<svg width="168" height="85" viewBox="0 0 168 85" fill="none" xmlns="http://www.w3.org/2000/svg">
<path d="M167.828 31.6991C167.98 31.0834 151.426 33.8583 134.121 36.9131C133.249 35.5696 131.546 33.1945 130.498 33.3065C129.579 33.4105 129.827 35.8495 130.13 37.6169C125.084 38.5125 120.078 39.4162 115.512 40.2478C115.104 38.6724 114.816 37.6089 114.744 37.4889C113.361 35.0658 113.137 37.4889 113.137 37.4889L113.761 40.5677C103.285 42.471 95.4877 43.9184 95.4877 43.9184L92.113 26.0773C92.113 26.0773 116.384 18.2003 116.224 16.5929C116.064 14.9855 89.538 21.7349 89.538 21.7349C89.538 21.7349 87.9466 18.7921 85.4356 17.9444C85.2916 11.3149 84.8998 0.774957 83.9082 0.998871C82.9165 1.21479 82.7566 11.4509 82.7566 17.9444C79.9337 18.88 77.8065 22.3827 77.8065 22.3827C77.8065 22.3827 53.3679 16.1131 52.7281 17.0807C52.0884 18.0483 75.3914 25.2776 75.3914 25.2776L71.6969 44.9021C71.6969 44.9021 62.2445 42.8788 50.2091 40.4158L50.8008 37.4969C50.8008 37.4969 50.5769 35.0738 49.1935 37.4969C49.1295 37.6169 48.8576 38.5925 48.4737 40.0559C43.8115 39.1043 38.8214 38.0967 33.8873 37.121C34.1432 35.4257 34.2712 33.4105 33.4395 33.3145C32.5278 33.2105 31.0964 35.0338 30.1767 36.3933C14.5667 33.3465 0.436128 30.8514 0.00429354 31.7071C-0.387556 32.4988 26.1223 40.8396 46.6824 47.1812C46.2026 49.1165 45.7148 51.0837 45.291 52.835C45.291 52.835 39.7171 54.0506 38.9094 58.8807C38.1017 63.7029 39.0693 68.3651 45.3389 68.2051C51.6085 68.0452 52.5762 61.2958 52.0884 58.241C51.6005 55.1861 47.698 52.843 47.698 52.843L48.7136 47.813C60.733 51.5155 70.2494 54.3784 70.2494 54.3784C70.2494 54.3784 68.8019 66.2779 70.2494 72.5475C71.6968 78.8171 80.2136 84.7668 83.9162 84.7668C87.6188 84.7668 96.1355 77.2097 96.7753 71.9077C97.415 66.6058 96.7753 54.7063 96.7753 54.7063C96.7753 54.7063 104.796 52.2433 115.448 48.9325L116.24 52.843C116.24 52.843 112.329 55.1861 111.849 58.241C111.37 61.2958 112.329 68.0452 118.599 68.2051C124.868 68.3651 125.836 63.7029 125.028 58.8807C124.221 54.0586 118.647 52.835 118.647 52.835C118.295 51.4196 117.911 49.8522 117.527 48.2768C138.423 41.7673 167.62 32.5388 167.828 31.7071V31.6991Z" fill="white"/>
</svg>
