<svg width="148" height="76" viewBox="0 0 148 76" fill="none" xmlns="http://www.w3.org/2000/svg">
<line x1="75" y1="37.6018" x2="147" y2="37.6018" stroke="url(#paint0_linear_303_9)" stroke-width="2" stroke-linecap="round"/>
<circle cx="37.5" cy="38.1018" r="36.5" fill="black" stroke="#6CBFE1" stroke-width="2"/>
<path fill-rule="evenodd" clip-rule="evenodd" d="M31.1432 32.2289L35.2953 32.5014V32.4908C35.2953 32.448 35.3164 32.4106 35.3428 32.3785C35.4115 32.6725 35.6704 32.8915 35.982 32.8915C36.2726 32.8915 36.5209 32.6885 36.6001 32.4266C36.6107 32.448 36.6212 32.464 36.6212 32.4854V32.4961L40.7734 32.2236L40.8843 32.2823L37.2129 32.7152V33.3297H37.2235V33.2816H37.2552V33.271C37.2552 33.2335 37.2868 33.2015 37.3133 33.2015C37.3555 33.2015 37.3819 33.2335 37.3819 33.271V33.4152C37.3819 33.4473 37.3502 33.474 37.3133 33.474C37.2816 33.474 37.2552 33.442 37.2552 33.4152V33.3939H37.2235V33.3458H37.2129V33.3885H37.1548V33.3458H37.1442V33.3939H37.1125V33.4152C37.1125 33.4473 37.0808 33.474 37.0438 33.474C37.0016 33.474 36.9857 33.442 36.9857 33.4152V33.271C36.9857 33.2335 37.0069 33.2015 37.0438 33.2015C37.0861 33.2015 37.1125 33.2335 37.1125 33.271V33.2816H37.1442V33.3297H37.1548V32.7152L36.616 32.7847C36.6054 32.8541 36.5473 32.9076 36.4733 32.9076H35.9926V33.2335H36.0032V33.2015H36.0243V33.1908C36.0243 33.1908 36.0454 33.148 36.0613 33.148C36.093 33.148 36.1035 33.1694 36.1035 33.1908V33.2816C36.1035 33.3137 36.093 33.319 36.0613 33.319C36.0613 33.319 36.0243 33.3084 36.0243 33.2816V33.271H36.0032V33.2389H35.9926V33.2603H35.9609V33.2389H35.9503V33.271H35.9292V33.2816C35.9292 33.3137 35.9081 33.319 35.8922 33.319C35.8922 33.319 35.85 33.3084 35.85 33.2816V33.1908C35.85 33.1908 35.8711 33.148 35.8922 33.148C35.8922 33.148 35.9292 33.1694 35.9292 33.1908V33.2015H35.9503V33.2335H35.9609V32.9076H35.4327C35.364 32.9076 35.3006 32.8595 35.29 32.7847L34.841 32.7259V33.3351H34.8516V33.287H34.8833V33.2763C34.8833 33.2389 34.915 33.2068 34.9519 33.2068C34.9836 33.2068 35.01 33.2389 35.01 33.2763V33.4206C35.01 33.4526 34.9783 33.4794 34.9519 33.4794C34.9097 33.4794 34.8833 33.4473 34.8833 33.4206V33.3992H34.8516V33.3511H34.841V33.3939H34.7829V33.3511H34.7723V33.3992H34.7406V33.4206C34.7406 33.4526 34.7089 33.4794 34.672 33.4794C34.6403 33.4794 34.6138 33.4473 34.6138 33.4206V33.2763C34.6138 33.2389 34.6455 33.2068 34.672 33.2068C34.7142 33.2068 34.7406 33.2389 34.7406 33.2763V33.287H34.7723V33.3351H34.7829V32.7259L31.0269 32.2823L31.1379 32.2236L31.1432 32.2289ZM49.4686 26.6018C50.6783 26.6018 51.6556 27.5904 51.6556 28.8142C51.6556 30.0379 50.6783 31.0265 49.4686 31.0265C48.2589 31.0265 47.2816 30.0379 47.2816 28.8142C47.2816 27.5904 48.2589 26.6018 49.4686 26.6018ZM56.6846 27.2698C57.1759 27.2698 57.5616 27.6652 57.5616 28.1569C57.5616 28.5897 57.2393 28.9638 56.8325 29.0279V30.3585C57.3819 30.428 57.7993 30.9036 57.7993 31.4808V31.5235C57.9208 31.6464 58 31.8174 58 31.9991V32.5228C58 32.8969 57.6989 33.1908 57.3291 33.1908H52.2789C52.4163 38.1659 52.6698 43.1571 52.6698 48.1269C52.6698 48.6132 52.2789 49.014 51.8035 49.014H51.1854C50.7047 49.014 50.3085 48.6078 50.3085 48.1269L49.9387 40.1325H49.4105L48.9826 47.1116V48.1322C48.9826 48.6185 48.5811 49.0193 48.1057 49.0193H47.4876C47.0069 49.0193 46.6212 48.6132 46.6212 48.1322C46.6212 43.1464 46.8378 38.198 47.1706 33.1962H42.131C41.7718 33.1962 41.4707 32.9022 41.4707 32.5282V32.0045C41.4707 31.8228 41.5394 31.6518 41.6609 31.5289V31.4861C41.6609 30.909 42.0888 30.4387 42.6381 30.3639V29.0333C42.2208 28.9745 41.8986 28.6004 41.8986 28.1622C41.8986 27.6652 42.3001 27.2751 42.7755 27.2751C43.2509 27.2751 43.6524 27.6706 43.6524 28.1622C43.6524 28.5951 43.3354 28.9691 42.9234 29.0333V30.3639C43.42 30.4334 43.8109 30.8288 43.8796 31.3311H55.5911C55.6598 30.8235 56.0507 30.4334 56.5526 30.3639V29.0333C56.1352 28.9745 55.8236 28.6004 55.8236 28.1622C55.8236 27.6652 56.2145 27.2751 56.6952 27.2751L56.6846 27.2698ZM30.8579 34.3664H35.6862L35.5172 35.5367H36.6952L36.5261 34.3664H41.3598L46.3307 40.234C46.2303 42.8685 46.1722 45.4977 46.1722 48.1216C46.1722 48.859 46.7639 49.4522 47.4823 49.4522H48.1004C48.8294 49.4522 49.4157 48.859 49.4157 48.1216V47.1223L49.6059 44.0923L49.6852 44.1831L49.8648 48.1429C49.8648 48.859 50.4564 49.4575 51.1801 49.4575H51.7982C52.485 49.4575 53.0449 48.9125 53.103 48.2391L54.1912 49.5323L38.7977 49.6018L38.2272 45.8023H33.9746L33.4041 49.6018L18 49.5323L30.8473 34.3718L30.8579 34.3664ZM38.0581 44.616L37.3397 39.8065H34.8833L34.1543 44.616H38.0581ZM37.2287 39.0316L36.7586 35.9429H35.4485L34.9889 39.0316H37.2235H37.2287ZM37.757 32.6564C37.8996 32.6564 38.0053 32.7686 38.0053 32.9076C38.0053 33.0465 37.8943 33.1694 37.757 33.1694C37.6197 33.1694 37.5087 33.0465 37.5087 32.9076C37.5087 32.7686 37.6197 32.6564 37.757 32.6564ZM37.757 32.7473C37.8468 32.7473 37.9155 32.8167 37.9155 32.9076C37.9155 32.9984 37.8468 33.0786 37.757 33.0786C37.6672 33.0786 37.5985 32.9984 37.5985 32.9076C37.5985 32.8167 37.6672 32.7473 37.757 32.7473ZM34.2335 32.6671C34.3708 32.6671 34.4818 32.7793 34.4818 32.9183C34.4818 33.0572 34.3708 33.1694 34.2335 33.1694C34.0961 33.1694 33.9852 33.0572 33.9852 32.9183C33.9852 32.7793 34.0961 32.6671 34.2335 32.6671ZM34.2335 32.7579C34.3233 32.7579 34.392 32.8274 34.392 32.9183C34.392 33.0091 34.3233 33.0786 34.2335 33.0786C34.1437 33.0786 34.075 33.0091 34.075 32.9183C34.075 32.8274 34.1437 32.7579 34.2335 32.7579ZM36.0507 31.577C36.299 31.609 36.5103 31.78 36.579 32.0205L37.7676 31.9403L37.8045 31.9617L36.5948 32.1006C36.6054 32.1434 36.616 32.1808 36.616 32.2236C36.616 32.5763 36.3254 32.8702 35.9768 32.8702C35.6281 32.8702 35.3376 32.5763 35.3376 32.2236C35.3376 32.1862 35.3376 32.1327 35.3481 32.1006L34.149 31.9617L34.186 31.9403L35.364 32.0205C35.4326 31.78 35.644 31.609 35.8922 31.577L35.9715 30.0913L36.0401 31.577H36.0507ZM35.6017 31.8976H36.3413L36.4416 32.0793H35.5119L35.6017 31.8976Z" fill="white"/>
<defs>
<linearGradient id="paint0_linear_303_9" x1="76.8779" y1="38.6018" x2="141.589" y2="38.6018" gradientUnits="userSpaceOnUse">
<stop stop-color="#2992BF"/>
<stop offset="1" stop-color="#2992BF" stop-opacity="0"/>
</linearGradient>
</defs>
</svg>
