<svg width="148" height="75" viewBox="0 0 148 75" fill="none" xmlns="http://www.w3.org/2000/svg">
<line x1="75" y1="37" x2="147" y2="37" stroke="url(#paint0_linear_303_11)" stroke-width="2" stroke-linecap="round"/>
<circle cx="37.5" cy="37.5" r="36.5" fill="black" stroke="#6CBFE1" stroke-width="2"/>
<path fill-rule="evenodd" clip-rule="evenodd" d="M12.0863 40.8133C12.4629 40.3959 12.999 40.0984 13.6857 39.9386C14.749 38.4556 16.0294 38.3446 19.1439 37.9316C26.3787 38.1847 33.5381 38.4378 40.7463 39.1171C43.3336 38.1847 45.9298 37.2434 48.5172 36.3154C50.9937 33.2118 53.6076 30.0815 56.0931 27C57.081 27.0577 57.8165 27.1199 58.738 27.1598C57.7057 31.3735 56.6424 35.5828 55.6057 39.8986C57.7589 39.3436 59.7348 38.8596 61.8924 38.3046C62.3177 38.2114 62.9291 38.1625 63 38.3046C60.931 39.3258 58.8133 40.4004 56.7443 41.426C56.6336 42.3407 56.1507 42.9934 55.8981 43.1799C52.819 43.9436 49.7267 44.6229 46.6298 45.2623C44.0026 45.7596 28.5052 46.6654 27.1053 46.1503C27.1894 46.47 27.1806 46.732 27.1053 46.914C27.0211 47.0916 26.8527 47.1982 26.6445 47.2249C26.2856 47.3181 26.2103 47.327 25.8559 47.4113C25.8249 47.5445 25.6565 47.882 25.4527 47.882C23.6939 48.2772 20.1452 47.5889 19.6002 47.1538C19.0996 46.8519 18.949 45.2001 19.8173 44.3343C17.1237 43.8548 14.4079 44.0812 12.1882 41.5237C11.9977 41.2218 11.9357 41.2218 12.0775 40.8177L12.0863 40.8133ZM12.2946 41.2839L13.1895 40.4891L14.142 40.4314L13.2471 41.2307L12.2946 41.2884V41.2839ZM19.3123 40.4536L19.454 40.4448C19.5028 40.4448 19.5471 40.4803 19.5471 40.5202L19.5648 40.9731C19.5648 41.0131 19.5249 41.0575 19.4806 41.0575L19.3388 41.0664C19.2901 41.0753 19.2547 41.0308 19.2547 40.9909L19.2369 40.538C19.2369 40.498 19.2724 40.4536 19.3123 40.4536ZM25.1559 40.9243L25.2977 40.9154C25.3375 40.9154 25.3818 40.9509 25.3818 40.9998L25.3996 41.4438C25.3996 41.4926 25.3686 41.5281 25.3154 41.537L25.1736 41.5459C25.1293 41.5459 25.0894 41.5104 25.0894 41.4615L25.0717 41.0175C25.0717 40.9687 25.1072 40.9332 25.1559 40.9243ZM43.4178 42.3141L43.5596 42.3052C43.6083 42.3052 43.6526 42.3407 43.6526 42.3895L43.6704 42.8335C43.6704 42.8824 43.6261 42.9179 43.5862 42.9268L43.4444 42.9357C43.3957 42.9357 43.3602 42.9002 43.3602 42.8602L43.3425 42.4073C43.3425 42.3673 43.378 42.3229 43.4178 42.3141ZM42.5893 42.2741L42.7311 42.2652C42.7799 42.2563 42.8153 42.3007 42.8153 42.3407L42.833 42.7936C42.8419 42.838 42.7976 42.8779 42.7577 42.8779L42.6159 42.8868C42.5672 42.8957 42.5229 42.8513 42.5229 42.8113L42.5052 42.3585C42.5052 42.3141 42.545 42.2741 42.5893 42.2741ZM41.7254 42.2164L41.8672 42.2075C41.9071 42.2075 41.9514 42.2386 41.9514 42.2919L41.9691 42.7359C41.9691 42.7847 41.9337 42.8202 41.8849 42.8291L41.7432 42.838C41.7033 42.838 41.659 42.8025 41.659 42.7536L41.6413 42.3096C41.6413 42.2608 41.6767 42.2252 41.7254 42.2164ZM40.9235 42.172L41.0653 42.1631C41.1096 42.1542 41.1495 42.1897 41.1495 42.2386L41.1672 42.6826C41.1672 42.7359 41.1318 42.7758 41.083 42.7758L40.9413 42.7847C40.9014 42.7847 40.8571 42.7536 40.8571 42.7092L40.8394 42.2563C40.8394 42.2164 40.8748 42.172 40.9235 42.172ZM40.1039 42.0565L40.2457 42.0476C40.2944 42.0476 40.3299 42.0832 40.3299 42.1231L40.3476 42.576C40.3476 42.616 40.3166 42.6604 40.2723 42.6604L40.1305 42.6693C40.0818 42.6781 40.0375 42.6426 40.0375 42.5938L40.0197 42.1498C40.0197 42.1009 40.0596 42.0565 40.1039 42.0565ZM39.2489 41.9988L39.3906 41.9899C39.4349 41.9899 39.4748 42.021 39.4748 42.0654L39.4925 42.5183C39.4925 42.5583 39.4571 42.6027 39.4084 42.6027L39.2666 42.6204C39.2267 42.6204 39.1824 42.5849 39.1824 42.5361L39.1647 42.092C39.1647 42.0432 39.1957 42.0032 39.2489 42.0032V41.9988ZM38.4381 41.9633L38.5799 41.9544C38.6197 41.9544 38.6641 41.9899 38.6641 42.0299L38.6818 42.4828C38.6818 42.5227 38.6463 42.5671 38.5976 42.5671L38.4558 42.576C38.416 42.5849 38.3716 42.5494 38.3716 42.5005L38.3539 42.0476C38.3539 42.0077 38.3894 41.9633 38.4381 41.9633ZM37.6495 41.8967L37.7913 41.8878C37.84 41.8878 37.8754 41.9233 37.8754 41.9633L37.8932 42.4162C37.8932 42.4606 37.8577 42.5005 37.8179 42.5005L37.6761 42.5094C37.6273 42.5183 37.583 42.4828 37.583 42.4339L37.5653 41.9899C37.5653 41.9366 37.6052 41.8967 37.6495 41.8967ZM36.8786 41.8301L37.0204 41.8212C37.0691 41.8212 37.1134 41.8523 37.1134 41.9056L37.1311 42.3496C37.1311 42.3984 37.0913 42.4339 37.047 42.4428L36.9052 42.4517C36.8565 42.4517 36.821 42.4206 36.821 42.3762L36.8033 41.9233C36.8033 41.8789 36.8387 41.839 36.8786 41.8301ZM36.0501 41.7901L36.1919 41.7812C36.2406 41.7812 36.2761 41.8168 36.285 41.8567L36.2938 42.3096C36.3027 42.354 36.2584 42.394 36.2185 42.394L36.0767 42.4029C36.028 42.4117 35.9925 42.3718 35.9837 42.3274L35.9748 41.8745C35.966 41.8345 36.0058 41.7901 36.0501 41.7901ZM35.3147 41.7413L35.4565 41.7324C35.4963 41.7324 35.5407 41.7679 35.5407 41.8168L35.5584 42.2608C35.5584 42.3096 35.5229 42.3451 35.4742 42.354L35.3324 42.3629C35.2926 42.3629 35.2482 42.3274 35.2482 42.2785L35.2305 41.8345C35.2305 41.7812 35.266 41.7502 35.3147 41.7413ZM34.5084 41.6969L34.6501 41.688C34.6989 41.6791 34.7343 41.7146 34.7343 41.7635L34.752 42.2075C34.752 42.2563 34.7166 42.3007 34.6767 42.3007L34.535 42.3096C34.4862 42.3096 34.4419 42.2785 34.4419 42.2341L34.4242 41.7812C34.4242 41.7413 34.4641 41.6969 34.5084 41.6969ZM33.7552 41.6125L33.897 41.6036C33.9457 41.6036 33.9812 41.6347 33.99 41.6791L34.0077 42.132C34.0077 42.172 33.9679 42.2164 33.9236 42.2252L33.7818 42.2341C33.7331 42.2341 33.6976 42.2031 33.6888 42.1498L33.6799 41.7058C33.671 41.6569 33.7153 41.6214 33.7552 41.6125ZM32.9578 41.5725L33.1084 41.5637C33.1483 41.5548 33.1926 41.5992 33.1926 41.6392L33.2103 42.092C33.2103 42.1364 33.1748 42.1764 33.1261 42.1764L32.9843 42.1853C32.9356 42.1942 32.9002 42.1498 32.9002 42.1098L32.8824 41.6569C32.8824 41.6169 32.9135 41.5725 32.9578 41.5725ZM32.2046 41.466L32.3464 41.4571C32.3951 41.4571 32.4394 41.4882 32.4394 41.5415L32.4571 41.9855C32.4571 42.0343 32.4217 42.0698 32.3729 42.0787L32.2312 42.0876C32.1824 42.0876 32.147 42.0521 32.147 42.0121L32.1293 41.5592C32.1293 41.5193 32.1603 41.4749 32.2046 41.466ZM31.2521 41.3816L31.3938 41.3727C31.4426 41.3727 31.478 41.4038 31.478 41.4482L31.4957 41.9011C31.4957 41.9411 31.4603 41.9855 31.4204 41.9944L31.2786 42.0032C31.2299 42.0032 31.1856 41.9677 31.1856 41.9189L31.1679 41.4749C31.1679 41.4216 31.2122 41.3905 31.2521 41.3816ZM30.4324 41.3195L30.5742 41.3106C30.623 41.3106 30.6673 41.3417 30.6673 41.3949L30.685 41.839C30.685 41.8878 30.6451 41.9233 30.6008 41.9322L30.459 41.9411C30.4103 41.9411 30.3749 41.91 30.3749 41.8567L30.3571 41.4127C30.3571 41.3639 30.3926 41.3283 30.4324 41.3195ZM29.4533 41.2706L29.5951 41.2617C29.6394 41.2529 29.6793 41.2884 29.6793 41.3372L29.697 41.7812C29.697 41.8345 29.6616 41.8745 29.6128 41.8745L29.4711 41.8834C29.4312 41.8834 29.3869 41.8523 29.3869 41.8079L29.3692 41.355C29.3692 41.315 29.4046 41.2706 29.4533 41.2706ZM28.7578 41.2129L28.8995 41.204C28.9483 41.204 28.9926 41.2395 28.9926 41.2884L29.0103 41.7324C29.0103 41.7812 28.9704 41.8168 28.9261 41.8256L28.7844 41.8345C28.7356 41.8345 28.7002 41.799 28.7002 41.759L28.6825 41.3061C28.6825 41.2529 28.7179 41.2218 28.7578 41.2129ZM28.0356 41.1863L28.1774 41.1774C28.2261 41.1685 28.2616 41.2129 28.2616 41.2529L28.2793 41.7058C28.2793 41.7457 28.2439 41.7901 28.204 41.7901L28.0534 41.799C28.0135 41.799 27.9692 41.7679 27.9692 41.7235L27.9515 41.2706C27.9515 41.2307 27.9869 41.1863 28.0356 41.1863ZM27.3666 41.1463L27.5084 41.1374C27.5483 41.1374 27.5926 41.1729 27.5926 41.2218L27.6103 41.6658C27.6103 41.7146 27.5793 41.7502 27.535 41.759L27.3844 41.7679C27.3401 41.7679 27.3002 41.7324 27.3002 41.6924L27.2825 41.2395C27.2825 41.1863 27.3179 41.1552 27.3666 41.1463ZM26.6223 41.0442L26.7641 41.0353C26.804 41.0353 26.8483 41.0708 26.8483 41.1197L26.866 41.5637C26.866 41.6169 26.8306 41.648 26.7818 41.6569L26.6401 41.6658C26.6002 41.6658 26.5559 41.6303 26.5559 41.5903L26.5382 41.1374C26.5382 41.0975 26.5736 41.053 26.6223 41.0442ZM25.9445 41.0131L26.0951 41.0042C26.135 41.0042 26.1793 41.0353 26.1793 41.0797L26.197 41.5326C26.197 41.5725 26.1616 41.6169 26.1129 41.6169L25.9711 41.6258C25.9312 41.6347 25.8869 41.5992 25.8869 41.5503L25.8692 41.1063C25.8692 41.0575 25.9046 41.0131 25.9445 41.0131ZM24.3629 40.8532L24.5046 40.8444C24.5534 40.8444 24.5888 40.8754 24.5977 40.9287L24.6065 41.3727C24.6154 41.4216 24.5755 41.4571 24.5312 41.466L24.3894 41.4749C24.3407 41.4749 24.3053 41.4393 24.2964 41.3905L24.2875 40.9465C24.2787 40.8976 24.323 40.8621 24.3629 40.8532ZM23.5831 40.8266L23.7338 40.8177C23.7736 40.8177 23.8179 40.8532 23.8179 40.9021L23.8357 41.3461C23.8357 41.3949 23.8046 41.4305 23.7515 41.4393L23.6097 41.4482C23.561 41.4482 23.5255 41.4127 23.5255 41.3639L23.5078 40.9198C23.5078 40.8666 23.5388 40.8355 23.5831 40.8266ZM22.8211 40.72L22.9629 40.7023C23.0027 40.7023 23.047 40.7378 23.047 40.7866L23.0648 41.2307C23.0648 41.2795 23.0293 41.3239 22.9806 41.3239L22.8388 41.3328C22.7989 41.3328 22.7546 41.2973 22.7546 41.2573L22.7369 40.8044C22.7369 40.7644 22.7724 40.72 22.8211 40.72ZM22.1255 40.6623L22.2673 40.6534C22.316 40.6534 22.3515 40.6845 22.3603 40.7289L22.3781 41.1818C22.3781 41.2351 22.3382 41.2662 22.2939 41.2751L22.1521 41.2839C22.1034 41.2839 22.0679 41.2529 22.0679 41.1996L22.0502 40.7556C22.0414 40.7067 22.0812 40.6712 22.1255 40.6623ZM21.4034 40.6357L21.5452 40.6268C21.585 40.6179 21.6293 40.6534 21.6293 40.7023L21.6471 41.1463C21.6471 41.1951 21.616 41.2395 21.5629 41.2395L21.4211 41.2484C21.3812 41.2484 21.3369 41.2129 21.3369 41.1729L21.3192 40.72C21.3192 40.6801 21.3547 40.6357 21.4034 40.6357ZM20.7344 40.5913L20.8762 40.5824C20.916 40.5824 20.9604 40.6179 20.9604 40.6579L20.9781 41.1108C20.9781 41.1596 20.9426 41.1951 20.8939 41.204L20.7521 41.2129C20.7123 41.2129 20.6679 41.1774 20.6679 41.1285L20.6502 40.6845C20.6502 40.6357 20.6857 40.6002 20.7344 40.5913ZM19.9812 40.4936L20.123 40.4847C20.1717 40.4847 20.2161 40.5202 20.2161 40.5691L20.2338 41.0131C20.2338 41.0619 20.1939 41.0975 20.1496 41.1063L20.0078 41.1152C19.9591 41.1152 19.9236 41.0797 19.9236 41.0308L19.9059 40.5868C19.9059 40.538 19.9414 40.5025 19.9812 40.4936ZM55.7386 29.411L50.883 37.1635L50.657 37.0214L55.5127 29.2689L55.7386 29.411ZM57.1519 30.1392L52.2963 37.8828L52.0703 37.7407L56.926 29.9971L57.1519 30.1392ZM56.926 29.1313L52.0703 36.8838L51.8444 36.7417L56.7 28.9892L56.926 29.1313Z" fill="white"/>
<defs>
<linearGradient id="paint0_linear_303_11" x1="76.8779" y1="38" x2="141.589" y2="38" gradientUnits="userSpaceOnUse">
<stop stop-color="#2992BF"/>
<stop offset="1" stop-color="#2992BF" stop-opacity="0"/>
</linearGradient>
</defs>
</svg>
