<svg width="19" height="18" viewBox="0 0 19 18" fill="none" xmlns="http://www.w3.org/2000/svg">
<path fill-rule="evenodd" clip-rule="evenodd" d="M9.06918 0.0124512C4.1523 0.0124512 0.129395 4.03536 0.129395 8.95224C0.129395 13.8691 4.1523 17.892 9.06918 17.892C13.9861 17.892 18.009 13.8691 18.009 8.95224C18.009 4.03536 13.9861 0.0124512 9.06918 0.0124512ZM15.2376 5.37632H12.6451C12.3769 4.21415 11.9299 3.23078 11.3935 2.158C13.0027 2.78379 14.4331 3.85656 15.2376 5.37632ZM9.06918 1.80041C9.78437 2.87318 10.4102 4.03536 10.7677 5.37632H7.37062C7.72822 4.12475 8.354 2.87318 9.06918 1.80041ZM2.18555 10.7402C2.00675 10.2038 1.91735 9.57802 1.91735 8.95224C1.91735 8.32646 2.00675 7.70067 2.18555 7.16428H5.22507C5.13568 7.79007 5.13568 8.32646 5.13568 8.95224C5.13568 9.57802 5.22507 10.1144 5.22507 10.7402H2.18555ZM2.90073 12.5282H5.49327C5.76146 13.6903 6.20845 14.6737 6.74484 15.7465C5.13568 15.1207 3.70531 14.0479 2.90073 12.5282ZM5.49327 5.37632H2.90073C3.79471 3.85656 5.13568 2.78379 6.74484 2.158C6.20845 3.23078 5.76146 4.21415 5.49327 5.37632ZM9.06918 16.1041C8.354 15.0313 7.72822 13.8691 7.37062 12.5282H10.7677C10.4102 13.7797 9.78437 15.0313 9.06918 16.1041ZM11.1253 10.7402H7.01303C6.92363 10.1144 6.83424 9.57802 6.83424 8.95224C6.83424 8.32646 6.92363 7.79007 7.01303 7.16428H11.2147C11.3041 7.79007 11.3935 8.32646 11.3935 8.95224C11.3935 9.57802 11.2147 10.1144 11.1253 10.7402ZM11.3935 15.7465C11.9299 14.7631 12.3769 13.6903 12.6451 12.5282H15.2376C14.4331 14.0479 13.0027 15.1207 11.3935 15.7465ZM13.0027 10.7402C13.0921 10.1144 13.0921 9.57802 13.0921 8.95224C13.0921 8.32646 13.0027 7.79007 13.0027 7.16428H16.0422C16.221 7.70067 16.3104 8.32646 16.3104 8.95224C16.3104 9.57802 16.221 10.2038 16.0422 10.7402H13.0027Z" fill="#2992BF"/>
</svg>
