<svg width="148" height="76" viewBox="0 0 148 76" fill="none" xmlns="http://www.w3.org/2000/svg">
<line x1="75" y1="37.6018" x2="147" y2="37.6018" stroke="url(#paint0_linear_303_7)" stroke-width="2" stroke-linecap="round"/>
<circle cx="37.5" cy="38.1018" r="36.5" fill="black" stroke="#6CBFE1" stroke-width="2"/>
<path fill-rule="evenodd" clip-rule="evenodd" d="M37.9925 18.6018C49.0434 18.6018 58 27.5523 58 38.5968C58 49.6413 49.0484 58.6018 37.9925 58.6018C26.9367 58.6018 18 49.6513 18 38.5968C18 27.5423 26.9516 18.6018 37.9925 18.6018ZM57.8201 35.9481C57.935 36.8177 58 37.6973 58 38.5918C58 39.4864 57.935 40.3759 57.8201 41.2455H52.8919V35.9481H57.8201ZM18.2099 41.5004C18.075 40.5458 18 39.5813 18 38.5918C18 37.6023 18.075 36.6378 18.2099 35.6933H26.4268V33.9191H30.2904C31.4699 33.9191 32.5396 34.4589 33.2443 35.3085H38.2424C38.5523 35.3085 38.8372 35.4334 39.0421 35.6383H39.0321C39.237 35.8432 39.372 36.128 39.372 36.4329V40.7557C39.372 41.0656 39.237 41.3504 39.0421 41.5603H39.0321C38.8322 41.7702 38.5523 41.8902 38.2424 41.8902H33.2443C32.5396 42.7397 31.4699 43.2795 30.2904 43.2795H26.4268V41.5054H18.2099V41.5004ZM42.8257 33.4744H51.2675C51.9873 33.4744 52.582 34.0591 52.582 34.7787V42.4099C52.582 43.1395 51.9873 43.7242 51.2675 43.7242H42.8257C42.106 43.7242 41.5212 43.1395 41.5212 42.4099V34.7787C41.5212 34.0591 42.106 33.4744 42.8257 33.4744ZM45.3397 36.5528H48.7685C48.9484 36.5528 49.1083 36.6278 49.2333 36.7527C49.3582 36.8777 49.4332 37.0376 49.4332 37.2175V39.9761C49.4332 40.166 49.3582 40.326 49.2333 40.4459C49.1083 40.5608 48.9484 40.6358 48.7685 40.6358H45.3397C45.1498 40.6358 44.9899 40.5608 44.8699 40.4459C44.755 40.321 44.68 40.161 44.68 39.9761V37.2175C44.68 37.0376 44.755 36.8777 44.8699 36.7527C44.9899 36.6278 45.1498 36.5528 45.3397 36.5528ZM48.7685 36.7977H45.3397C45.2198 36.7977 45.1148 36.8427 45.0399 36.9226C44.9649 36.9976 44.9149 37.1026 44.9149 37.2175V39.9761C44.9149 40.0911 44.9599 40.201 45.0399 40.276C45.1148 40.3509 45.2198 40.4009 45.3397 40.4009H48.7685C48.8834 40.4009 48.9834 40.3509 49.0583 40.276C49.1383 40.201 49.1833 40.0861 49.1833 39.9761V37.2175C49.1833 37.1026 49.1383 37.0026 49.0583 36.9226C48.9834 36.8477 48.8784 36.7977 48.7685 36.7977ZM33.959 36.5978C34.079 36.9676 34.149 37.3624 34.149 37.7672V39.4214C34.149 39.8262 34.084 40.226 33.959 40.5908H38.0874V36.5978H33.959ZM27.2915 35.6883V41.6753H28.0412V35.5084H27.2915V35.6883Z" fill="white"/>
<defs>
<linearGradient id="paint0_linear_303_7" x1="76.8779" y1="38.6018" x2="141.589" y2="38.6018" gradientUnits="userSpaceOnUse">
<stop stop-color="#2992BF"/>
<stop offset="1" stop-color="#2992BF" stop-opacity="0"/>
</linearGradient>
</defs>
</svg>
