<svg width="148" height="76" viewBox="0 0 148 76" fill="none" xmlns="http://www.w3.org/2000/svg">
<line x1="75" y1="37.6018" x2="147" y2="37.6018" stroke="url(#paint0_linear_303_5)" stroke-width="2" stroke-linecap="round"/>
<circle cx="37.5" cy="38.1018" r="36.5" fill="black" stroke="#6CBFE1" stroke-width="2"/>
<path fill-rule="evenodd" clip-rule="evenodd" d="M55.004 47.9352C54.8131 47.4101 53.9653 47.1109 52.9995 47.1899C52.7525 47.2238 52.4774 47.2746 52.2247 47.3593C51.0456 47.7207 45.021 49.7929 44.9648 49.855L44.8244 49.8776L44.9087 49.9623C45.5881 50.5495 45.9249 51.148 45.7565 51.6505C45.5656 52.3959 44.5662 52.8476 42.9435 52.9831C41.5117 53.0903 39.6982 52.9831 37.587 52.5652C37.8004 52.5652 38.0755 52.5652 38.3282 52.5991C39.8666 52.5991 41.2984 52.5991 42.4213 52.5144C44.1619 52.3733 44.976 51.9837 45.094 51.3174C45.1445 50.8826 44.9031 50.5156 44.2967 50.2389C43.6285 49.9058 42.281 49.7138 40.9671 49.4936C40.0575 49.3525 39.2265 49.2508 38.6201 49.0758C36.5314 48.5338 34.3866 47.9748 31.8824 48.1667C31.5006 48.2175 31.0851 48.2514 30.7258 48.3361C28.8055 48.6693 26.9246 49.104 24.9763 49.6913L24.7292 49.7138L27.6377 53.9316C28.1374 53.8131 28.6876 53.7058 29.2098 53.6776C29.9004 53.5929 30.5349 53.6268 31.1637 53.7115C31.9723 53.8526 33.9767 54.2535 35.897 54.6487C37.879 55.0892 39.7824 55.4505 40.5011 55.5578C40.9334 55.6086 41.3152 55.6086 41.7307 55.5917C42.6965 55.507 43.7127 54.9706 44.6504 54.4793C44.9592 54.2874 45.2568 54.1462 45.5319 53.9768L54.1449 49.2903C55.1107 48.7144 55.1107 48.2119 54.9928 47.9352H55.004ZM19.3222 29.2627C19.5131 29.7879 20.3722 30.0928 21.3267 30.0081C21.5793 29.9855 21.8601 29.9234 22.1015 29.85C23.2918 29.4886 29.3165 27.4051 29.367 27.3543L29.5074 27.3204L29.4232 27.247C28.7326 26.6598 28.4069 26.05 28.5753 25.5587C28.7662 24.8021 29.7544 24.3617 31.3771 24.2262C32.8089 24.1189 34.6224 24.2262 36.7448 24.644C36.5202 24.644 36.2451 24.644 36.0037 24.6101C34.4652 24.6101 33.0335 24.6102 31.8993 24.6948C30.1699 24.836 29.3446 25.22 29.2379 25.8919C29.1817 26.3323 29.4288 26.6937 30.0352 26.9703C30.6921 27.3035 32.0396 27.4954 33.3647 27.7156C34.2687 27.8568 35.0941 27.9584 35.7005 28.1222C37.7892 28.6755 39.9452 29.2345 42.4494 29.0369C42.8312 28.9861 43.2467 28.9522 43.5948 28.8675C45.5263 28.5344 47.3904 28.0883 49.3443 27.5124L49.597 27.4785L46.6773 23.272C46.1776 23.3905 45.6274 23.4978 45.1052 23.5261C44.4146 23.5995 43.7857 23.5769 43.1513 23.4922C42.354 23.351 40.3495 22.9388 38.418 22.5549C36.436 22.1145 34.5438 21.7531 33.8251 21.6458C33.3928 21.595 32.9998 21.595 32.5843 21.6119C31.6298 21.6966 30.6079 22.2217 29.6646 22.7243C29.367 22.9162 29.0582 23.0574 28.7831 23.2268L20.1757 27.902C19.2099 28.4892 19.2099 28.9917 19.3166 29.2571L19.3222 29.2627ZM54.8973 27.6535H51.0344C50.8659 27.6535 50.6301 27.5124 50.5066 27.343L46.8458 22.0411C46.7278 21.8717 46.7728 21.7305 46.9412 21.7305H50.7929C50.9726 21.7305 51.2084 21.8717 51.3207 22.0411L54.9928 27.343C55.1107 27.5124 55.0658 27.6535 54.8973 27.6535ZM19.4345 49.5501H23.2862C23.4547 49.5501 23.7017 49.7025 23.814 49.8719L27.4861 55.1739C27.604 55.3432 27.5591 55.4844 27.3906 55.4844H23.5277C23.3592 55.4844 23.1122 55.3432 22.9999 55.1739L19.3391 49.8719C19.2099 49.7025 19.2548 49.5501 19.4345 49.5501ZM13.5559 39.8835L34.2013 41.2612V41.2104C34.2013 40.9959 34.2968 40.8039 34.4428 40.6684C34.7909 42.1082 36.0767 43.1754 37.6151 43.1754C39.1535 43.1754 40.3102 42.2268 40.7313 40.8999C40.7762 40.9959 40.7931 41.0919 40.7931 41.2104V41.2612L61.461 39.8835L62 40.2223L43.7183 42.334V45.3661H43.7913V45.129H43.9317V45.0669C43.9317 44.8862 44.0833 44.7337 44.263 44.7337C44.4426 44.7337 44.5942 44.8806 44.5942 45.0669V45.784C44.5942 45.9647 44.4483 46.1171 44.263 46.1171C44.0833 46.1171 43.9317 45.9703 43.9317 45.784V45.7219H43.7913V45.4452H43.7183V45.6259H43.4432V45.4452H43.3702V45.7219H43.2299V45.784C43.2299 45.9647 43.0783 46.1171 42.8986 46.1171C42.7189 46.1171 42.5673 45.9703 42.5673 45.784V45.0669C42.5673 44.8862 42.7189 44.7337 42.8986 44.7337C43.0783 44.7337 43.2299 44.8806 43.2299 45.0669V45.129H43.3702V45.3661H43.4432V42.3679L40.7818 42.6785C40.7313 43.0173 40.4337 43.2883 40.0687 43.2883H37.7049V44.8975H37.7498V44.7394H37.8453V44.7055C37.8453 44.5869 37.9295 44.491 38.0474 44.491C38.1653 44.491 38.2608 44.5869 38.2608 44.7055V45.1629C38.2608 45.2702 38.1653 45.3661 38.0474 45.3661C37.9295 45.3661 37.8453 45.2702 37.8453 45.1629V45.1177H37.7498V44.937H37.7049V45.0556H37.5253V44.937H37.4803V45.1177H37.3849V45.1629C37.3849 45.2702 37.2894 45.3661 37.1828 45.3661C37.0649 45.3661 36.9694 45.2702 36.9694 45.1629V44.7055C36.9694 44.5869 37.0649 44.491 37.1828 44.491C37.2894 44.491 37.3849 44.5869 37.3849 44.7055V44.7394H37.4803V44.8975H37.5253V43.2883H34.9144C34.5551 43.2883 34.2575 43.0229 34.2013 42.6785L31.961 42.4131V45.3661H32.034V45.129H32.1744V45.0669C32.1744 44.8862 32.3204 44.7337 32.5057 44.7337C32.6853 44.7337 32.8369 44.8806 32.8369 45.0669V45.784C32.8369 45.9647 32.6853 46.1171 32.5057 46.1171C32.326 46.1171 32.1744 45.9703 32.1744 45.784V45.7219H32.034V45.4452H31.961V45.6259H31.6859V45.4452H31.6242V45.7219H31.4782V45.784C31.4782 45.9647 31.3266 46.1171 31.1469 46.1171C30.9672 46.1171 30.8156 45.9703 30.8156 45.784V45.0669C30.8156 44.8862 30.9672 44.7337 31.1469 44.7337C31.3266 44.7337 31.4782 44.8806 31.4782 45.0669V45.129H31.6242V45.3661H31.6859V42.3792L13 40.2223L13.539 39.8835H13.5559ZM46.492 42.0574C47.1826 42.0574 47.7441 42.622 47.7441 43.3165C47.7441 44.011 47.1826 44.5756 46.492 44.5756C45.8014 44.5756 45.2399 44.011 45.2399 43.3165C45.2399 42.622 45.8014 42.0574 46.492 42.0574ZM46.492 42.4978C46.9468 42.4978 47.3118 42.8705 47.3118 43.3222C47.3118 43.7739 46.9524 44.1409 46.492 44.1409C46.0316 44.1409 45.6835 43.7682 45.6835 43.3222C45.6835 42.8761 46.0428 42.4978 46.492 42.4978ZM28.9628 42.0913C29.6534 42.0913 30.2148 42.6446 30.2148 43.3504C30.2148 44.0562 29.6534 44.6095 28.9628 44.6095C28.2721 44.6095 27.7107 44.0449 27.7107 43.3504C27.7107 42.6559 28.2609 42.0913 28.9628 42.0913ZM28.9628 42.5317C29.4063 42.5317 29.7713 42.893 29.7713 43.3504C29.7713 43.8077 29.4119 44.1635 28.9628 44.1635C28.5136 44.1635 28.143 43.8021 28.143 43.3504C28.143 42.8987 28.5023 42.5317 28.9628 42.5317ZM37.9913 36.7159C39.2321 36.8571 40.2597 37.721 40.6415 38.8841L46.5201 38.5115L46.7222 38.63L40.7481 39.2907C40.7818 39.4826 40.7987 39.6859 40.7987 39.8892C40.7987 41.6621 39.3781 43.0907 37.6151 43.0907C35.8521 43.0907 34.4428 41.6621 34.4428 39.8892C34.4428 39.6859 34.4652 39.4826 34.4933 39.2794L28.5529 38.63L28.755 38.5115L34.6 38.8841C34.9818 37.721 36.0093 36.8571 37.2501 36.7159L37.6095 29.3531L37.9801 36.7159H37.9913ZM35.7735 38.3138L39.4118 38.3026L39.9115 39.189H35.3355L35.7678 38.3138H35.7735Z" fill="white"/>
<defs>
<linearGradient id="paint0_linear_303_5" x1="76.8779" y1="38.6018" x2="141.589" y2="38.6018" gradientUnits="userSpaceOnUse">
<stop stop-color="#2992BF"/>
<stop offset="1" stop-color="#2992BF" stop-opacity="0"/>
</linearGradient>
</defs>
</svg>
