<svg width="148" height="76" viewBox="0 0 148 76" fill="none" xmlns="http://www.w3.org/2000/svg">
<line x1="75" y1="37.6018" x2="147" y2="37.6018" stroke="url(#paint0_linear_303_2)" stroke-width="2" stroke-linecap="round"/>
<circle cx="37.5" cy="38.1018" r="36.5" fill="black" stroke="#6CBFE1" stroke-width="2"/>
<path fill-rule="evenodd" clip-rule="evenodd" d="M38.4239 34.1786C39.5409 34.3093 40.4662 35.0896 40.8127 36.123L46.0875 35.7922L46.2668 35.8984L40.9024 36.4866C40.935 36.6582 40.9472 36.842 40.9472 37.0258C40.9472 38.6067 39.6713 39.8812 38.0978 39.8812C36.5244 39.8812 35.2403 38.6067 35.2403 37.0258C35.2403 36.842 35.2566 36.6541 35.2933 36.4784L29.9533 35.8984L30.1286 35.7922L35.383 36.123C35.7213 35.0896 36.6467 34.3093 37.7636 34.1786L38.0978 27.6018L38.4199 34.1786H38.4239ZM16.4851 37.0258L35.0284 38.2554V38.2023C35.0284 38.0185 35.114 37.8387 35.2444 37.7244C35.5583 39.0152 36.716 39.9711 38.1019 39.9711C39.4023 39.9711 40.511 39.1132 40.8901 37.9327C40.939 38.0103 40.9513 38.1083 40.9513 38.2023V38.2554L59.5149 37.0258L60 37.3281L43.5846 39.2195V41.936H43.6457V41.7195H43.7762V41.6663C43.7762 41.5029 43.9107 41.3722 44.0697 41.3722C44.2327 41.3722 44.3632 41.5029 44.3632 41.6663V42.3077C44.3632 42.4711 44.2327 42.6018 44.0697 42.6018C43.9107 42.6018 43.7762 42.4711 43.7762 42.3077V42.2464H43.6457V42.0013H43.5846V42.1647H43.3319V42.0013H43.2707V42.2464H43.1403V42.3077C43.1403 42.4711 43.0098 42.6018 42.8468 42.6018C42.6837 42.6018 42.5533 42.4711 42.5533 42.3077V41.6663C42.5533 41.5029 42.6837 41.3722 42.8468 41.3722C43.0098 41.3722 43.1403 41.5029 43.1403 41.6663V41.7195H43.2707V41.936H43.3319V39.248L40.9431 39.5258C40.8983 39.8363 40.6292 40.0732 40.3031 40.0732H38.1794V41.5111H38.216V41.3722H38.3017V41.3396C38.3017 41.2333 38.3832 41.1476 38.4851 41.1476C38.587 41.1476 38.6685 41.2333 38.6685 41.3396V41.7399C38.6685 41.842 38.5829 41.9237 38.4851 41.9237C38.3832 41.9237 38.3017 41.8379 38.3017 41.7399V41.7031H38.216V41.5479H38.1794V41.65H38.0163V41.5479H37.9755V41.7031H37.8899V41.7399C37.8899 41.842 37.8125 41.9237 37.7065 41.9237C37.6087 41.9237 37.5231 41.8379 37.5231 41.7399V41.3396C37.5231 41.2333 37.6087 41.1476 37.7065 41.1476C37.8166 41.1476 37.8899 41.2333 37.8899 41.3396V41.3722H37.9755V41.5111H38.0163V40.0732H35.6765C35.3545 40.0732 35.0895 39.8281 35.0365 39.5177L33.0269 39.2848V41.9319H33.088V41.7154H33.2185V41.6623C33.2185 41.4989 33.3489 41.3681 33.512 41.3681C33.675 41.3681 33.8055 41.4989 33.8055 41.6623V42.3036C33.8055 42.467 33.675 42.5977 33.512 42.5977C33.3489 42.5977 33.2185 42.467 33.2185 42.3036V42.2423H33.088V41.9972H33.0269V42.1606H32.7782V41.9972H32.7171V42.2423H32.5866V42.3036C32.5866 42.467 32.4562 42.5977 32.2931 42.5977C32.1342 42.5977 31.9996 42.467 31.9996 42.3036V41.6623C31.9996 41.4989 32.1342 41.3681 32.2931 41.3681C32.4562 41.3681 32.5866 41.4989 32.5866 41.6623V41.7154H32.7171V41.9319H32.7782V39.2603L16 37.324L16.4851 37.0217V37.0258ZM46.0589 38.9703C46.6826 38.9703 47.1921 39.4727 47.1921 40.0977C47.1921 40.7227 46.6826 41.2252 46.0589 41.2252C45.4353 41.2252 44.9339 40.7227 44.9339 40.0977C44.9339 39.4727 45.4393 38.9703 46.0589 38.9703ZM30.312 38.9948C30.9357 38.9948 31.4452 39.4972 31.4452 40.1222C31.4452 40.7472 30.9357 41.2497 30.312 41.2497C29.6884 41.2497 29.187 40.7472 29.187 40.1222C29.187 39.4972 29.6965 38.9948 30.312 38.9948Z" fill="white"/>
<defs>
<linearGradient id="paint0_linear_303_2" x1="76.8779" y1="38.6018" x2="141.589" y2="38.6018" gradientUnits="userSpaceOnUse">
<stop stop-color="#2992BF"/>
<stop offset="1" stop-color="#2992BF" stop-opacity="0"/>
</linearGradient>
</defs>
</svg>
