<svg width="148" height="76" viewBox="0 0 148 76" fill="none" xmlns="http://www.w3.org/2000/svg">
<line x1="75" y1="37.6018" x2="147" y2="37.6018" stroke="url(#paint0_linear_303_4)" stroke-width="2" stroke-linecap="round"/>
<circle cx="37.5" cy="38.1018" r="36.5" fill="black" stroke="#6CBFE1" stroke-width="2"/>
<path fill-rule="evenodd" clip-rule="evenodd" d="M19.3563 35.0949H23.8317V48.6018H19.3563C19.162 48.6018 19 48.4356 19 48.2472V35.4661C19 35.2666 19.162 35.1004 19.3563 35.1004V35.0949ZM45.7657 36.286H53.2966C53.491 36.286 53.6421 36.4411 53.6421 36.6406C53.6421 36.84 53.491 36.9952 53.2966 36.9952H45.7657C45.5714 36.9952 45.4094 36.84 45.4094 36.6406C45.4094 36.4411 45.5714 36.286 45.7657 36.286ZM45.7657 34.8622H53.2966C53.491 34.8622 53.6421 35.0284 53.6421 35.2168C53.6421 35.4162 53.491 35.5824 53.2966 35.5824H45.7657C45.5714 35.5824 45.4094 35.4162 45.4094 35.2168C45.4094 35.0284 45.5714 34.8622 45.7657 34.8622ZM45.7657 33.4384H53.2966C53.491 33.4384 53.6421 33.6046 53.6421 33.804C53.6421 33.9924 53.491 34.1586 53.2966 34.1586H45.7657C45.5714 34.1586 45.4094 33.9924 45.4094 33.804C45.4094 33.6046 45.5714 33.4384 45.7657 33.4384ZM45.7657 32.0256H53.2966C53.491 32.0256 53.6421 32.1808 53.6421 32.3802C53.6421 32.5796 53.491 32.7348 53.2966 32.7348H45.7657C45.5714 32.7348 45.4094 32.5796 45.4094 32.3802C45.4094 32.1808 45.5714 32.0256 45.7657 32.0256ZM31.0332 26.6018H55.7637C56.1146 26.6018 56.4169 26.7403 56.6437 26.9675C56.865 27.1946 57 27.5104 57 27.8594V40.6406C57 40.9841 56.865 41.2999 56.6437 41.5326V41.5436C56.4169 41.7763 56.1038 41.9093 55.7637 41.9093H45.566V40.0976H55.2347V28.4134H31.5677V33.9425H29.8024V27.8594C29.8024 27.5159 29.9427 27.2001 30.1695 26.9675C30.3962 26.7348 30.6985 26.6018 31.0386 26.6018H31.0332ZM24.4525 35.0949H44.0814C44.2758 35.0949 44.4377 35.2611 44.4377 35.4605V48.2417C44.4377 48.4301 44.2758 48.5963 44.0814 48.5963H24.4525V35.0893V35.0949ZM20.8517 36.5409H22.1365V37.8483H20.8517V36.5409ZM20.8517 46.1309H22.1365V47.4495H20.8517V46.1309ZM20.8517 44.214H22.1365V45.5215H20.8517V44.214ZM20.8517 42.2971H22.1365V43.6046H20.8517V42.2971ZM20.8517 40.3691H22.1365V41.6877H20.8517V40.3691ZM20.8517 38.4522H22.1365V39.7708H20.8517V38.4522ZM32.5124 45.7819C32.4693 45.7486 32.4206 45.6988 32.4206 45.6988C32.4206 45.6988 32.4207 45.5326 32.4315 45.4882L32.5448 42.6184L33.5327 42.8899L33.6893 42.347L33.916 42.4079L33.7595 42.9508L34.159 43.0561L34.2939 42.552L34.5207 42.6184L34.3857 43.1226L34.7852 43.2389L34.9094 42.7791L35.1307 42.84L35.0065 43.2999L36.2428 43.6378C36.3346 43.66 36.4048 43.5935 36.394 43.4938L36.2914 42.624C36.2806 42.5187 36.1996 42.3913 36.1078 42.3525L32.5664 40.696L32.5178 37.8483C32.507 37.3165 32.3127 36.768 32.0913 36.635C32.0104 36.5741 31.9078 36.5409 31.7944 36.5409C31.6919 36.5409 31.5785 36.5741 31.4975 36.624C31.2762 36.7625 31.071 37.3054 31.0494 37.8262L30.9361 40.6849L27.3677 42.2583C27.2759 42.3026 27.1841 42.4135 27.1733 42.5187L27.0492 43.3885C27.0384 43.4938 27.1139 43.5547 27.2057 43.5326L28.3664 43.2389L28.2638 42.84L28.4906 42.7791L28.6039 43.1891L29.0034 43.0838L28.8792 42.624L29.106 42.5575L29.2302 43.0284L29.6242 42.9231L29.4839 42.4079L29.7106 42.347L29.851 42.8677L30.9091 42.6074L30.9739 45.4661C30.9846 45.5159 30.9739 45.6821 30.9739 45.6821C30.9739 45.6821 30.9253 45.7265 30.8821 45.7652L30.2883 46.214L30.1695 47.117H30.2073L33.2034 47.1503L33.1009 46.2472L32.5178 45.7763L32.5124 45.7819ZM36.3184 40.358H42.613C42.7642 40.358 42.8991 40.4965 42.8991 40.6628C42.8991 40.829 42.7696 40.9675 42.613 40.9675H36.3184C36.1564 40.9675 36.0215 40.8345 36.0215 40.6628C36.0215 40.4965 36.1564 40.358 36.3184 40.358ZM36.3184 39.1724H42.613C42.7642 39.1724 42.8991 39.3109 42.8991 39.4772C42.8991 39.6378 42.7696 39.7708 42.613 39.7708H36.3184C36.1564 39.7708 36.0215 39.6378 36.0215 39.4772C36.0215 39.3109 36.1564 39.1724 36.3184 39.1724ZM36.3184 37.9813H42.613C42.7642 37.9813 42.8991 38.1143 42.8991 38.286C42.8991 38.4522 42.7696 38.5907 42.613 38.5907H36.3184C36.1564 38.5907 36.0215 38.4578 36.0215 38.286C36.0215 38.1198 36.1564 37.9813 36.3184 37.9813ZM36.3184 36.7957H42.613C42.7642 36.7957 42.8991 36.9342 42.8991 37.0893C42.8991 37.2555 42.7696 37.3941 42.613 37.3941H36.3184C36.1564 37.3941 36.0215 37.2555 36.0215 37.0893C36.0215 36.9342 36.1564 36.7957 36.3184 36.7957Z" fill="white"/>
<defs>
<linearGradient id="paint0_linear_303_4" x1="76.8779" y1="38.6018" x2="141.589" y2="38.6018" gradientUnits="userSpaceOnUse">
<stop stop-color="#2992BF"/>
<stop offset="1" stop-color="#2992BF" stop-opacity="0"/>
</linearGradient>
</defs>
</svg>
