<svg width="148" height="76" viewBox="0 0 148 76" fill="none" xmlns="http://www.w3.org/2000/svg">
<line x1="75" y1="37.6018" x2="147" y2="37.6018" stroke="url(#paint0_linear_303_10)" stroke-width="2" stroke-linecap="round"/>
<circle cx="37.5" cy="38.1018" r="36.5" fill="black" stroke="#6CBFE1" stroke-width="2"/>
<path d="M41.6667 34.9768H25V28.7268C25 27.898 25.3292 27.1031 25.9153 26.5171C26.5013 25.931 27.2962 25.6018 28.125 25.6018H38.5417C39.3705 25.6018 40.1653 25.931 40.7514 26.5171C41.3374 27.1031 41.6667 27.898 41.6667 28.7268V34.9768ZM49.3896 29.7685L45.5281 25.907L44.0552 27.3799L45.8333 29.1581V31.8518C45.8333 32.4043 46.0528 32.9342 46.4435 33.3249C46.8342 33.7156 47.3641 33.9351 47.9167 33.9351V44.3518C47.9167 44.6281 47.8069 44.893 47.6116 45.0884C47.4162 45.2837 47.1513 45.3935 46.875 45.3935C46.5987 45.3935 46.3338 45.2837 46.1384 45.0884C45.9431 44.893 45.8333 44.6281 45.8333 44.3518V43.3101C45.8333 42.4813 45.5041 41.6865 44.918 41.1004C44.332 40.5144 43.5371 40.1851 42.7083 40.1851H41.6667V37.0601H25V50.6018H41.6667V42.2685H42.7083C42.9846 42.2685 43.2496 42.3782 43.4449 42.5736C43.6403 42.7689 43.75 43.0339 43.75 43.3101V44.3518C43.75 45.1806 44.0792 45.9755 44.6653 46.5615C45.2513 47.1476 46.0462 47.4768 46.875 47.4768C47.7038 47.4768 48.4987 47.1476 49.0847 46.5615C49.6708 45.9755 50 45.1806 50 44.3518V31.2414C49.9986 30.6892 49.7792 30.1598 49.3896 29.7685Z" fill="white"/>
<defs>
<linearGradient id="paint0_linear_303_10" x1="76.8779" y1="38.6018" x2="141.589" y2="38.6018" gradientUnits="userSpaceOnUse">
<stop stop-color="#2992BF"/>
<stop offset="1" stop-color="#2992BF" stop-opacity="0"/>
</linearGradient>
</defs>
</svg>
