<svg width="148" height="76" viewBox="0 0 148 76" fill="none" xmlns="http://www.w3.org/2000/svg">
<line x1="75" y1="37.6018" x2="147" y2="37.6018" stroke="url(#paint0_linear_303_3)" stroke-width="2" stroke-linecap="round"/>
<circle cx="37.5" cy="38.1018" r="36.5" fill="black" stroke="#6CBFE1" stroke-width="2"/>
<path fill-rule="evenodd" clip-rule="evenodd" d="M24.7729 24.8934C24.7729 24.8934 24.6456 24.9912 24.4138 25.1681C24.1821 25.3543 23.8458 25.6057 23.4187 25.9502C23.2051 26.1551 22.9642 26.3739 22.7052 26.6113C22.4462 26.8487 22.1554 27.1048 21.9054 27.4028C21.6328 27.7007 21.3465 28.008 21.0557 28.3525C20.7785 28.7063 20.4968 29.0834 20.1968 29.4698C19.9106 29.8748 19.6561 30.3124 19.3698 30.764C19.2153 30.9828 19.1153 31.2296 18.9835 31.4763C18.8563 31.7137 18.7245 31.9605 18.5973 32.2165C18.3564 32.724 18.161 33.2733 17.9338 33.818C17.8475 34.1066 17.7521 34.3907 17.6657 34.6793C17.5794 34.9679 17.4794 35.2612 17.4249 35.5685C17.3067 36.1644 17.1522 36.7836 17.1068 37.4167C17.075 37.7333 17.0295 38.0499 17.0114 38.3664C17.0114 38.6923 17.0023 39.0182 17.0023 39.3348C17.0023 39.5024 16.9932 39.6607 17.0114 39.8283L17.0522 40.3124C17.0886 40.6383 17.1022 40.9642 17.1477 41.2901L17.3431 42.2491C17.3794 42.4167 17.3976 42.575 17.4476 42.7333L17.6021 43.1988C17.7066 43.5061 17.793 43.832 17.9111 44.1299L18.3064 45.0191C18.4246 45.3264 18.5973 45.6011 18.7609 45.8711C18.9335 46.1551 19.079 46.4251 19.2653 46.7091C19.4561 46.9651 19.6379 47.2119 19.8151 47.4586C20.0242 47.6961 20.2377 47.9335 20.4422 48.1709C20.8694 48.6178 21.3102 49.0508 21.7828 49.4139C22.728 50.1588 23.7231 50.7408 24.7183 51.183C25.7135 51.616 26.6996 51.8767 27.6175 52.0629C28.081 52.1327 28.5263 52.2305 28.9489 52.2491C29.1625 52.2677 29.3716 52.291 29.576 52.3003C29.7714 52.3096 29.9714 52.319 30.1577 52.319C30.3122 52.319 30.4576 52.3283 30.5985 52.3283H30.7076C30.8893 52.319 31.062 52.3096 31.2256 52.3003C31.3892 52.291 31.5437 52.2817 31.6982 52.2817C31.8436 52.2631 31.9936 52.2445 32.1208 52.2305C32.3935 52.1979 32.6343 52.1793 32.8433 52.1421C33.0478 52.1048 33.2296 52.0722 33.375 52.0443C33.6568 52.0024 33.8112 51.9652 33.8112 51.9652C33.8112 51.9652 33.6567 51.9884 33.3659 52.0257C33.2205 52.0443 33.0478 52.0676 32.8433 52.0955C32.6297 52.1188 32.3889 52.1281 32.1208 52.156C31.9845 52.1653 31.8391 52.1746 31.6937 52.1839H30.7121C30.5394 52.1839 30.3622 52.1653 30.1713 52.156C29.9805 52.1467 29.7851 52.1281 29.5897 52.1188C29.3943 52.0955 29.1943 52.0676 28.9808 52.0396C28.5581 51.9977 28.131 51.8813 27.6857 51.8022C26.7814 51.5741 25.8316 51.2668 24.8774 50.8106C23.9322 50.3543 22.987 49.7445 22.119 48.9996C21.6828 48.6179 21.2784 48.1988 20.8921 47.7612C20.7149 47.5331 20.524 47.305 20.3423 47.0769C20.1696 46.8208 20.0014 46.5694 19.8197 46.3134C19.2426 45.2845 18.6791 44.1672 18.4019 42.9707L18.2792 42.5285C18.2383 42.3795 18.2292 42.2212 18.2019 42.0722L18.0565 41.1783C18.0338 40.8711 18.0202 40.5638 18.0065 40.2612L17.9793 39.8143C17.9702 39.656 17.9884 39.507 17.9974 39.3581C18.0156 39.0601 18.0202 38.7575 18.0384 38.4596C18.0656 38.1616 18.1247 37.873 18.161 37.5797C18.2292 36.9884 18.4019 36.4344 18.5291 35.8804C18.5882 35.5964 18.7018 35.3357 18.7881 35.0703C18.8836 34.805 18.9654 34.5443 19.0608 34.2789C19.2926 33.7854 19.5016 33.2873 19.7424 32.8264C19.8697 32.5983 19.9969 32.3795 20.1196 32.156C20.2514 31.9372 20.3604 31.7044 20.5059 31.5136C20.7876 31.1178 21.0375 30.7128 21.3238 30.3497C21.6146 30.0052 21.8873 29.6746 22.1463 29.3581C22.4371 29.0601 22.7143 28.7854 22.9688 28.5247C23.2187 28.25 23.4777 28.0406 23.7095 27.845C23.9503 27.6448 24.1639 27.4586 24.3548 27.291C24.791 26.9651 25.1546 26.7184 25.3863 26.5508C25.6272 26.3832 25.7589 26.2901 25.7589 26.2901L24.7683 24.9074L24.7729 24.8934ZM41.3728 55.8013C41.4182 55.7221 41.4864 55.6616 41.5864 55.615C41.7045 55.3497 41.9045 55.2985 42.368 55.1402C43.4767 54.9633 44.5764 54.7957 45.6989 54.6933C46.0669 54.4745 46.4396 54.2463 46.8076 54.0229C47.0894 53.4689 47.3984 52.8962 47.6937 52.3422C47.8482 52.3236 47.9573 52.3143 48.1073 52.291C48.0755 52.9847 48.03 53.6737 47.9937 54.3767C48.3027 54.2277 48.5935 54.0927 48.9025 53.9344C48.9707 53.9111 49.057 53.8925 49.0752 53.9111C48.7935 54.13 48.4981 54.3581 48.2072 54.5769C48.2163 54.7259 48.1618 54.8423 48.13 54.8795C47.6847 55.089 47.2257 55.2845 46.7713 55.4754C46.385 55.6337 44.0402 56.2296 43.8176 56.1877C43.8357 56.2389 43.8403 56.2761 43.8357 56.3087C43.8266 56.3366 43.8085 56.3646 43.7721 56.3692C43.7221 56.3972 43.713 56.3972 43.663 56.4251C43.654 56.4437 43.6449 56.5042 43.6085 56.5135C43.354 56.6206 42.7951 56.6206 42.6997 56.5648C42.6133 56.5322 42.5361 56.2854 42.6497 56.1178C42.218 56.1272 41.8181 56.2389 41.4046 55.9083C41.3592 55.8664 41.3546 55.8665 41.3682 55.8013H41.3728ZM41.4182 55.8618L41.5273 55.7128L41.6727 55.6756L41.5636 55.8245L41.4182 55.8618ZM42.4634 55.5266H42.4907C42.4907 55.5266 42.4997 55.5266 42.4997 55.5359L42.5179 55.6058C42.5179 55.6058 42.5179 55.615 42.5088 55.615L42.4816 55.6244C42.4816 55.6244 42.4725 55.6244 42.4725 55.615L42.4543 55.5452C42.4543 55.5452 42.4543 55.5266 42.4634 55.5266ZM43.3631 55.4288L43.3904 55.4195L43.4086 55.4288L43.4268 55.4987C43.4268 55.4987 43.4177 55.5173 43.4086 55.5173L43.3904 55.5266C43.3904 55.5266 43.3722 55.5266 43.3722 55.5173L43.354 55.4475L43.3631 55.4288ZM46.1987 55.1123L46.226 55.103C46.226 55.103 46.2351 55.103 46.2351 55.1123L46.2532 55.1821C46.2532 55.1821 46.2533 55.2007 46.2442 55.2007L46.226 55.21C46.226 55.21 46.2078 55.2007 46.2078 55.1914L46.1896 55.1216C46.1896 55.1216 46.1896 55.1123 46.1987 55.1123ZM46.0669 55.1309L46.0942 55.1216C46.0942 55.1216 46.1033 55.1216 46.1033 55.1309L46.1215 55.2007C46.1215 55.2007 46.1215 55.2193 46.1124 55.2193H46.0942C46.0942 55.2193 46.076 55.2193 46.076 55.21L46.0578 55.1402C46.0578 55.1402 46.0579 55.1309 46.0669 55.1309ZM45.9397 55.1495L45.9579 55.1402C45.9579 55.1402 45.9761 55.1402 45.9761 55.1495L45.9897 55.2193C45.9897 55.2193 45.9806 55.2379 45.9761 55.2379H45.9579C45.9579 55.2379 45.9397 55.238 45.9397 55.2287L45.9215 55.1588C45.9215 55.1588 45.9306 55.1495 45.9397 55.1495ZM45.8125 55.1588H45.8397C45.8397 55.1588 45.8488 55.1588 45.8488 55.1681L45.867 55.2379C45.867 55.2379 45.867 55.2473 45.8579 55.2566H45.8397C45.8397 55.2566 45.8215 55.2566 45.8215 55.2473L45.8034 55.1774C45.8034 55.1774 45.8034 55.1681 45.8125 55.1588ZM45.6807 55.1681L45.7079 55.1588C45.7079 55.1588 45.717 55.1681 45.717 55.1774L45.7352 55.2379C45.7352 55.2379 45.7352 55.2566 45.7261 55.2566L45.7079 55.2659C45.7079 55.2659 45.6898 55.2659 45.6898 55.2566L45.6716 55.1867C45.6716 55.1867 45.6716 55.1728 45.6807 55.1728V55.1681ZM45.5534 55.1821L45.5716 55.1728L45.5898 55.1821L45.6034 55.2519L45.5943 55.2705L45.5671 55.2799C45.5671 55.2799 45.558 55.2705 45.5489 55.2705L45.5398 55.2007C45.5398 55.2007 45.5398 55.1821 45.5489 55.1821H45.5534ZM45.4262 55.2007L45.4535 55.1914C45.4535 55.1914 45.4626 55.2007 45.4717 55.2007L45.4807 55.2705C45.4807 55.2705 45.4807 55.2892 45.4717 55.2892L45.4535 55.2985C45.4535 55.2985 45.4353 55.2985 45.4353 55.2892L45.4171 55.2193C45.4171 55.2193 45.4171 55.2007 45.4262 55.2007ZM45.308 55.21H45.3262C45.3262 55.21 45.3444 55.21 45.3444 55.2193L45.3626 55.2892C45.3626 55.2892 45.3626 55.2985 45.3535 55.3078H45.3262C45.3262 55.3078 45.3171 55.3078 45.3171 55.2985L45.299 55.2287C45.299 55.2287 45.299 55.2193 45.308 55.21ZM45.1899 55.2287L45.2172 55.2193L45.2262 55.2287L45.2399 55.2985C45.2399 55.2985 45.2399 55.3171 45.2308 55.3171L45.2126 55.3264L45.1944 55.3171L45.1763 55.2473C45.1763 55.2473 45.1763 55.2287 45.1854 55.2287H45.1899ZM45.0627 55.2473L45.0854 55.2379C45.0854 55.2379 45.0945 55.2473 45.1036 55.2473L45.1126 55.3171C45.1126 55.3171 45.1127 55.3357 45.1036 55.3357L45.0854 55.345L45.0672 55.3357L45.049 55.2659C45.049 55.2659 45.049 55.2473 45.0581 55.2473H45.0627ZM44.9491 55.2566H44.9672C44.9672 55.2566 44.9854 55.2566 44.9854 55.2659L45.0036 55.3357C45.0036 55.3357 45.0036 55.3543 44.9945 55.3543H44.9672C44.9672 55.3543 44.9582 55.3544 44.9582 55.345L44.94 55.2752C44.94 55.2752 44.94 55.2659 44.9491 55.2566ZM44.8218 55.2752H44.8491C44.8491 55.2752 44.8673 55.2752 44.8673 55.2845L44.8854 55.3543C44.8854 55.3543 44.8764 55.3637 44.8673 55.373H44.8491C44.8491 55.373 44.8309 55.373 44.8309 55.3637L44.8127 55.2938C44.8127 55.2938 44.8218 55.2845 44.8218 55.2752ZM44.7082 55.2845H44.7264C44.7264 55.2845 44.7446 55.2845 44.7446 55.2938L44.7628 55.3637C44.7628 55.3637 44.7628 55.373 44.7537 55.3823H44.7264C44.7264 55.3823 44.7173 55.3823 44.7082 55.373L44.6991 55.3031C44.6991 55.3031 44.6991 55.2938 44.7082 55.2845ZM44.5901 55.3031H44.6082C44.6082 55.3031 44.6264 55.3031 44.6264 55.3125L44.6446 55.3823C44.6446 55.3823 44.6355 55.3916 44.6264 55.4009H44.6082C44.6082 55.4009 44.5901 55.4009 44.5901 55.3916L44.5719 55.3217C44.5719 55.3217 44.581 55.3124 44.5901 55.3031ZM44.4674 55.3125L44.4855 55.3031L44.5037 55.3125L44.5219 55.3823C44.5219 55.3823 44.5219 55.4009 44.5128 55.4009L44.4855 55.4102C44.4855 55.4102 44.4765 55.4102 44.4674 55.4009L44.4583 55.3311C44.4583 55.3311 44.4583 55.3125 44.4674 55.3125ZM44.3129 55.3311L44.3356 55.3217C44.3356 55.3217 44.3538 55.3218 44.3538 55.3311L44.3719 55.4009C44.3719 55.4009 44.3629 55.4149 44.3538 55.4149L44.3356 55.4242C44.3356 55.4242 44.3174 55.4149 44.3174 55.4055L44.2992 55.345L44.3083 55.3264L44.3129 55.3311ZM44.1902 55.3404H44.2084C44.2084 55.3404 44.2265 55.3404 44.2265 55.3497L44.2402 55.4195C44.2402 55.4195 44.2311 55.4288 44.2311 55.4381H44.2038C44.2038 55.4381 44.1947 55.4382 44.1856 55.4288L44.1765 55.359C44.1765 55.359 44.1766 55.3497 44.1856 55.3404H44.1902ZM44.0357 55.3683L44.0629 55.359C44.0629 55.359 44.072 55.359 44.072 55.3683L44.0902 55.4381C44.0902 55.4381 44.0902 55.4568 44.0811 55.4568L44.0539 55.4661C44.0539 55.4661 44.0448 55.4568 44.0448 55.4475L44.0266 55.3869C44.0266 55.3869 44.0266 55.3683 44.0357 55.3683ZM43.9312 55.3776L43.9493 55.3683C43.9493 55.3683 43.9675 55.3776 43.9675 55.3869L43.9857 55.4475L43.9766 55.4661L43.9493 55.4754C43.9493 55.4754 43.9312 55.4754 43.9312 55.4661L43.913 55.3962C43.913 55.3962 43.9221 55.3776 43.9312 55.3776ZM43.8221 55.3962L43.8403 55.3869L43.8539 55.3962L43.8721 55.4661L43.863 55.4847L43.8403 55.494C43.8403 55.494 43.8221 55.494 43.8221 55.4847L43.8039 55.4149C43.8039 55.4149 43.813 55.3962 43.8221 55.3962ZM43.7176 55.4149L43.7358 55.4055C43.7358 55.4055 43.7494 55.4055 43.7494 55.4149L43.7676 55.4847L43.7585 55.5033H43.7312C43.7312 55.5033 43.7131 55.5033 43.7131 55.494L43.6949 55.4242C43.6949 55.4242 43.704 55.4149 43.7131 55.4149H43.7176ZM43.5994 55.4149H43.6131C43.6131 55.4149 43.6313 55.4149 43.6313 55.4242L43.6494 55.494C43.6494 55.494 43.6494 55.5033 43.6403 55.5033L43.6131 55.5126C43.6131 55.5126 43.604 55.5126 43.604 55.5033L43.5904 55.4335C43.5904 55.4335 43.5904 55.4149 43.5994 55.4149ZM43.4949 55.4335L43.5131 55.4242L43.5313 55.4335L43.5494 55.5033C43.5494 55.5033 43.5495 55.5219 43.5404 55.5219L43.5131 55.5312C43.5131 55.5312 43.504 55.5219 43.4949 55.5219L43.4858 55.4521C43.4858 55.4521 43.4858 55.4381 43.4949 55.4381V55.4335ZM43.245 55.4475H43.2723C43.2723 55.4475 43.2813 55.4475 43.2813 55.4568L43.2995 55.5266C43.2995 55.5266 43.2995 55.5359 43.2904 55.5452H43.2723C43.2723 55.5452 43.2541 55.5452 43.2541 55.5359L43.2359 55.4661C43.2359 55.4661 43.2359 55.4568 43.245 55.4475ZM43.1268 55.4754L43.1541 55.4661C43.1541 55.4661 43.1632 55.4661 43.1723 55.4754L43.1814 55.5452C43.1814 55.5452 43.1814 55.5638 43.1723 55.5638H43.1541C43.1541 55.5638 43.1359 55.5638 43.1359 55.5545L43.1178 55.4847C43.1178 55.4847 43.1177 55.4754 43.1268 55.4754ZM43.0042 55.4754L43.0314 55.4661L43.0405 55.4754L43.0541 55.5452C43.0541 55.5452 43.0541 55.5638 43.045 55.5638L43.0269 55.5732C43.0269 55.5732 43.0087 55.5732 43.0087 55.5638L42.9905 55.494C42.9905 55.494 42.9905 55.4754 42.9996 55.4754H43.0042ZM42.9042 55.4847H42.9178C42.9178 55.4847 42.936 55.4847 42.936 55.494L42.9542 55.5638C42.9542 55.5638 42.9451 55.5731 42.9451 55.5825H42.9178C42.9178 55.5825 42.9087 55.5825 42.9042 55.5732L42.8951 55.5033C42.8951 55.5033 42.8951 55.494 42.9042 55.4847ZM42.7906 55.5033H42.8087C42.8087 55.5033 42.8269 55.5033 42.8269 55.5126L42.8451 55.5825C42.8451 55.5825 42.8451 55.5918 42.836 55.6011H42.8087C42.8087 55.6011 42.7997 55.6011 42.7906 55.5918L42.7815 55.5219C42.7815 55.5219 42.7815 55.5033 42.7906 55.5033ZM42.6861 55.5219L42.7042 55.5126L42.7224 55.5219L42.7406 55.5918L42.7315 55.6104L42.7088 55.6197C42.7088 55.6197 42.6997 55.6104 42.6906 55.6104L42.6815 55.5406C42.6815 55.5406 42.6815 55.5219 42.6906 55.5219H42.6861ZM42.5679 55.5312L42.5952 55.5219C42.5952 55.5219 42.6043 55.5219 42.6043 55.5312L42.6224 55.6011C42.6224 55.6011 42.6224 55.615 42.6133 55.615H42.5861C42.5861 55.615 42.577 55.6151 42.577 55.6058L42.5588 55.5359C42.5588 55.5359 42.5588 55.5266 42.5679 55.5266V55.5312ZM47.7119 52.7426L47.1984 54.0973L47.153 54.0787L47.6756 52.724L47.7119 52.7426ZM47.9528 52.8125L47.4302 54.1672L47.3938 54.1486L47.9119 52.7938L47.9528 52.8125ZM47.8846 52.6635L47.3711 54.0182L47.3302 53.9996L47.8528 52.6448L47.8846 52.6635ZM50.2385 53.0312C50.2385 53.0312 50.3567 52.9335 50.5884 52.7473C50.8202 52.5704 51.1655 52.319 51.5927 51.9652C51.8062 51.7696 52.0471 51.5508 52.3061 51.304C52.5651 51.0666 52.8469 50.8199 53.1059 50.5126C53.3695 50.21 53.6648 49.9074 53.9557 49.5722C54.2238 49.2091 54.5055 48.8413 54.8054 48.4456C55.1008 48.0499 55.3462 47.5983 55.637 47.1514C55.7824 46.9419 55.8915 46.6858 56.0233 46.4484C56.1414 46.2016 56.2732 45.9549 56.4004 45.6988C56.6413 45.2007 56.8367 44.642 57.0684 44.0974C57.1548 43.8134 57.2411 43.5247 57.3365 43.2361C57.4138 42.9475 57.5228 42.6635 57.5774 42.3562C57.6955 41.751 57.85 41.1411 57.8955 40.4987C57.9227 40.1821 57.9727 39.8748 57.9818 39.5489C57.9909 39.2323 57.9909 38.9065 58 38.5806C57.9909 38.4223 58.0091 38.2547 57.9909 38.0964L57.95 37.6029C57.9136 37.277 57.8955 36.9512 57.8455 36.6346L57.6546 35.6663C57.6137 35.508 57.5956 35.3404 57.5456 35.1914L57.4002 34.7165C57.2956 34.4093 57.2093 34.0927 57.0912 33.7947L56.6867 32.8962C56.5686 32.5983 56.405 32.3189 56.2323 32.0443C56.0596 31.7649 55.9142 31.4996 55.7234 31.2109C55.5461 30.9642 55.3644 30.7174 55.1735 30.4707C54.9781 30.224 54.7645 29.9865 54.5555 29.7491C54.1238 29.3022 53.6785 28.8785 53.2059 28.5108C52.2697 27.7612 51.2655 27.1793 50.2794 26.751C49.2751 26.318 48.289 26.0573 47.3666 25.8618C46.9031 25.792 46.4668 25.7035 46.0351 25.6802C45.8216 25.6616 45.6125 25.643 45.4171 25.6243C45.2126 25.615 45.0218 25.615 44.8264 25.6057C44.6809 25.6057 44.5356 25.5964 44.3947 25.5964C44.3538 25.5964 44.3174 25.6057 44.2765 25.6057C44.1038 25.615 43.9312 25.6243 43.7676 25.6243C43.604 25.6337 43.4404 25.643 43.295 25.6523C43.1496 25.6709 43.0041 25.6895 42.8678 25.6942C42.5997 25.7314 42.3589 25.7501 42.1544 25.7826C41.9408 25.8292 41.7681 25.8525 41.6227 25.8804C41.341 25.9316 41.1865 25.9595 41.1865 25.9595C41.1865 25.9595 41.341 25.9409 41.6227 25.899C41.7681 25.8804 41.9499 25.8571 42.1544 25.8292C42.3589 25.8013 42.6088 25.7919 42.8769 25.7733C43.0132 25.764 43.1496 25.7547 43.3041 25.7407H44.2765C44.4583 25.7407 44.6355 25.7547 44.8264 25.7687C45.0127 25.7826 45.2035 25.792 45.3989 25.8106C45.5989 25.8385 45.8034 25.8618 46.0079 25.8897C46.4305 25.9316 46.8576 26.0387 47.312 26.1272C48.2073 26.346 49.157 26.6532 50.1113 27.1141C51.0564 27.5797 52.0016 28.1802 52.865 28.9391C53.3058 29.3068 53.7103 29.7398 54.1011 30.1681C54.2828 30.3962 54.4601 30.6244 54.6509 30.8618C54.8236 31.1085 54.9963 31.3739 55.1644 31.6299C55.7506 32.6495 56.3186 33.7761 56.5822 34.9633L56.7049 35.4148C56.7458 35.5545 56.7549 35.7128 56.7912 35.8618L56.9276 36.7696C56.9639 37.0676 56.9684 37.3748 56.9866 37.6774L57.0139 38.1337C57.0139 38.2826 56.9957 38.4363 56.9957 38.5853C56.9775 38.8832 56.9639 39.1812 56.9457 39.4838C56.9185 39.7817 56.8685 40.075 56.823 40.3636C56.764 40.9549 56.5913 41.5182 56.4641 42.0722C56.405 42.3516 56.2914 42.6169 56.205 42.8823C56.1142 43.1476 56.0187 43.413 55.9324 43.6644C55.6915 44.1672 55.4916 44.6607 55.2462 45.1262C55.119 45.345 54.9963 45.5732 54.869 45.792C54.7373 46.0108 54.6373 46.2296 54.4828 46.4344C54.1965 46.8301 53.9511 47.2352 53.6648 47.5843C53.3831 47.9381 53.1059 48.2687 52.8423 48.5899C52.5606 48.8786 52.2834 49.1625 52.0289 49.4279C51.779 49.6979 51.5245 49.9028 51.2837 50.103C51.0519 50.3031 50.8383 50.4894 50.6384 50.657C50.2112 50.9735 49.8477 51.2203 49.616 51.3879C49.3751 51.5648 49.2433 51.6532 49.2433 51.6532L50.234 53.0406L50.2385 53.0312ZM25.4545 23.5433C25.5908 23.4642 25.7362 23.3851 25.868 23.3059C26.5224 23.4363 27.1495 23.6039 27.8629 23.683C28.4309 23.3851 29.0035 23.1011 29.5624 22.8031C29.3216 22.7566 29.0671 22.7054 28.8263 22.6635C28.8672 22.6076 29.0898 22.4958 29.1853 22.4679C29.5897 22.426 29.985 22.4074 30.3804 22.3608C30.6621 22.2119 30.9484 22.0629 31.2301 21.9232C31.3574 21.8534 31.4892 21.7836 31.6164 21.7137C34.1657 19.7258 35.7289 20.7035 32.4662 22.305C32.2617 22.4446 32.0708 22.5517 31.88 22.6588C31.9163 22.6402 31.939 22.6122 31.9754 22.5936C32.0117 22.5703 32.0436 22.5331 32.0617 22.5005C32.0708 22.4633 32.0799 22.4307 32.0617 22.3934C32.0345 22.3562 31.9845 22.3562 31.9436 22.3655C31.8754 22.3841 31.8072 22.4214 31.7391 22.454C31.68 22.4912 31.6119 22.5238 31.5482 22.5703C31.0302 22.9055 30.4894 23.2128 29.9941 23.5806L29.985 23.5899C29.985 23.5899 29.9578 23.6178 29.9305 23.6411C28.9171 24.1765 27.8447 24.4232 26.695 24.7352C26.5405 24.8143 26.3542 24.9307 26.2224 25.0098C26.2224 25.0098 26.2194 25.0129 26.2134 25.0191C26.4178 24.8934 26.6178 24.7724 26.8223 24.6607C26.9768 24.5629 27.1404 24.4651 27.2949 24.372C27.3449 24.3394 27.4039 24.3115 27.4494 24.2742C27.463 24.2649 27.4812 24.2463 27.4994 24.237C27.5085 24.2277 27.5266 24.2184 27.5175 24.1998C27.5085 24.1718 27.4812 24.1718 27.4585 24.1812C27.4312 24.1905 27.4039 24.1998 27.3812 24.2091C27.3131 24.2277 27.2358 24.265 27.1586 24.2975C27.0995 24.3255 27.0404 24.3487 26.9813 24.3767C26.9541 24.386 26.9359 24.4046 26.9132 24.4139C26.895 24.4232 26.8768 24.4326 26.8723 24.4419C26.7178 24.5443 26.5814 24.642 26.436 24.7491C26.3497 24.67 26.2906 24.5303 26.486 24.4232C26.1588 24.1392 25.7907 23.832 25.4636 23.5526L25.4545 23.5433ZM31.6028 22.8124H31.5937C31.5664 22.8311 31.5437 22.845 31.5073 22.8543C31.2756 23.0033 30.9484 23.1988 30.6848 23.3664H30.6758C30.5349 23.4456 30.3758 23.5434 30.2395 23.6272L30.2213 23.6364C29.9896 23.7854 29.7487 23.9297 29.517 24.0694C29.517 24.0694 29.5109 24.0725 29.4988 24.0787C29.2443 24.2091 28.7717 24.4325 28.5718 24.5443C28.3673 24.6327 28.29 24.6514 28.1674 24.6932C28.5036 24.507 28.8308 24.3255 29.1807 24.1299C29.1807 24.1299 29.1807 24.133 29.1807 24.1392C29.1807 24.1392 29.9623 23.6737 30.0032 23.5946C30.494 23.2314 31.0438 22.9148 31.5573 22.5843C31.6619 22.5145 31.8163 22.4167 31.9436 22.3795C32.0754 22.3515 32.0663 22.4959 31.9527 22.575C31.8482 22.6448 31.7482 22.7147 31.6437 22.7845C31.6255 22.7938 31.6073 22.8031 31.6028 22.8124ZM26.0634 25.0191C26.0952 24.9912 26.1315 24.9633 26.1679 24.94C26.4087 24.7817 26.6405 24.6048 26.8723 24.4558C26.9586 24.3953 27.4812 24.1579 27.4903 24.1998C27.5085 24.2184 26.486 24.819 26.1952 24.9912C26.1724 25.0005 26.0997 25.0098 26.0679 25.0191H26.0634ZM26.277 23.6039L26.3633 23.6132H26.3815L26.4406 23.6225H26.4587L26.4678 23.6318V23.6411L26.5042 23.7202L26.5405 23.7994H26.5496V23.8087L26.5405 23.818V23.8273L26.5042 23.8785L26.486 23.8971L26.4451 23.967H26.436V23.9763H26.4179L26.3315 23.967H26.3133L26.2542 23.9577H26.2361L26.227 23.9484L26.1906 23.8692L26.1543 23.7901L26.1452 23.7808V23.7622H26.1543L26.1906 23.7016L26.1997 23.6923L26.2497 23.6225L26.2588 23.6132V23.6039H26.277ZM26.3542 23.6458L26.277 23.6364L26.2361 23.7063L26.1861 23.7761L26.2179 23.8459L26.2542 23.9251L26.3406 23.9344H26.4179L26.4587 23.8739L26.5133 23.8041L26.4769 23.7249L26.4406 23.6551L26.3542 23.6458ZM34.2293 20.7268C34.093 20.7687 33.8521 20.9037 33.7067 20.9316C33.5795 20.9456 33.5022 20.9409 33.425 20.9316C33.1614 20.8944 33.4931 20.5359 34.2338 20.7268H34.2293ZM32.4025 21.4111L32.498 21.3646L32.5616 21.4949L32.4752 21.5368L32.4071 21.4065L32.4025 21.4111ZM32.6252 21.304L32.7115 21.2622L32.7706 21.3925L32.6843 21.4344L32.6252 21.304ZM32.8479 21.197L32.9342 21.1551L32.9933 21.2854L32.9069 21.3273L32.8479 21.197ZM31.5846 22.8404C31.6618 22.8311 31.7118 22.8404 31.78 22.8217C31.7891 22.8729 31.8073 22.9381 31.8436 23.0033C31.8754 23.0731 31.9118 23.129 31.939 23.1709C31.8709 23.2174 31.7936 23.25 31.7073 23.2873C31.6891 23.2873 31.6709 23.2687 31.6482 23.278C31.5119 23.3199 31.1256 23.4968 31.0393 23.4549C31.012 23.3944 31.1438 23.3245 31.2392 23.2361C31.0484 23.2826 30.9302 23.3059 30.7576 23.3431C31.0166 23.1849 31.2711 23.0359 31.5301 22.8776C31.5482 22.859 31.5619 22.8497 31.5891 22.8404H31.5846ZM30.3395 23.5899C30.4531 23.562 30.5712 23.5573 30.6939 23.5294C30.703 23.5713 30.7257 23.6411 30.753 23.7063C30.7803 23.7668 30.8121 23.8227 30.8393 23.8553C30.7621 23.9065 30.6576 23.967 30.5576 24.0042C30.5485 24.0042 30.5394 23.9856 30.5303 23.9856C30.4349 24.0322 30.3168 24.0834 30.2122 24.1253C30.1532 24.1439 30.0986 24.1625 30.0396 24.1672C29.9987 24.1765 29.9441 24.1765 29.926 24.1486C29.9169 24.0974 29.9941 24.0322 30.0396 23.9903C29.876 23.9623 29.7396 23.981 29.617 24.0275L30.235 23.6551L30.2532 23.6364C30.2804 23.6178 30.3077 23.6039 30.3395 23.5852V23.5899ZM31.8164 22.8171C31.8845 22.8078 32.0163 23.0871 31.9708 23.1476L31.9617 23.1569C31.9708 23.0685 31.8845 22.8869 31.8164 22.8171ZM30.7257 23.5201C30.7712 23.5014 30.8893 23.7203 30.8712 23.8273C30.8712 23.8366 30.8621 23.8366 30.8621 23.8366C30.8621 23.7389 30.7757 23.5713 30.7257 23.5201ZM27.7493 24.251C29.2443 23.4828 30.5213 22.7985 32.0935 21.9791C32.3071 21.858 34.1293 20.8897 34.2066 20.8897C34.1112 21.1644 32.1708 22.1141 31.8027 22.3236H31.7845C31.0302 22.7286 30.2668 23.1243 29.5079 23.5294C28.8808 23.8646 28.4582 24.0741 27.9356 24.3208C27.8674 24.2929 27.8084 24.2742 27.7493 24.251ZM48.0573 48.9018C46.485 50.5126 44.5174 51.7184 42.3225 52.3515C43.4313 50.75 44.331 48.9297 44.9763 46.9419H49.6387C49.1752 47.6541 48.6435 48.3059 48.0573 48.9018ZM36.2515 52.6169C34.9882 50.9875 33.9567 49.0694 33.2296 46.9419H38.2509V52.8543C37.5648 52.8264 36.9013 52.7426 36.2515 52.6169ZM25.5863 39.8795H31.0211C31.062 42.007 31.3756 44.0415 31.8981 45.9595H27.254C26.2679 44.1486 25.6726 42.0908 25.5863 39.8795ZM39.2507 31.7836V25.8897C39.8005 25.9083 40.3413 25.9689 40.8729 26.0573C42.1499 27.6821 43.1995 29.6281 43.9448 31.7836H39.2461H39.2507ZM44.2674 32.7705C44.8264 34.6793 45.1445 36.7184 45.1944 38.8599H39.2507V32.7705H44.2674ZM38.2555 31.7836H33.2341C33.9703 29.656 34.9927 27.7426 36.256 26.1272C36.9104 25.9875 37.5693 25.9176 38.2555 25.8897V31.7836ZM38.2555 32.7705V38.8599H31.9936C32.0345 36.723 32.3526 34.6793 32.9115 32.7705H38.2509H38.2555ZM31.0256 38.8599H25.5908C25.6771 36.6532 26.2679 34.5862 27.2631 32.7705H31.9072C31.3755 34.6886 31.0666 36.7277 31.0211 38.8599H31.0256ZM31.9981 39.8795H38.26V45.9595H32.9115C32.3616 44.0601 32.0436 42.0163 32.0027 39.8795H31.9981ZM39.2552 46.9419H43.9539C43.2177 49.0973 42.168 51.0434 40.882 52.6867C40.3503 52.7659 39.8096 52.8264 39.2597 52.8543V46.9419H39.2552ZM39.2552 45.9549V39.8748H45.199C45.149 42.0117 44.8309 44.0508 44.2811 45.9549H39.2552ZM46.1624 39.8748H51.9153C51.8381 42.1095 51.2291 44.1858 50.2067 46.0154V45.9502H45.2853C45.817 44.0322 46.126 42.0024 46.1624 39.8702V39.8748ZM46.1624 38.8553C46.126 36.7277 45.817 34.684 45.2763 32.7659H50.2385C51.2337 34.5769 51.8335 36.6439 51.9108 38.8553H46.1578H46.1624ZM49.6387 31.7836H44.9763C44.331 29.7957 43.4313 27.9847 42.3316 26.3832C44.531 27.0257 46.4941 28.2221 48.0664 29.8236C48.648 30.4242 49.1752 31.0806 49.6387 31.7836ZM29.4488 29.8236C30.9166 28.3106 32.7479 27.1653 34.7792 26.5089C33.7158 28.0732 32.8479 29.8515 32.2117 31.7882H27.8584C28.3309 31.0852 28.8626 30.4241 29.4488 29.8282V29.8236ZM27.8538 46.9419H32.2072C32.8524 48.8878 33.7204 50.6663 34.7837 52.2398C32.7479 51.5787 30.9211 50.4195 29.4534 48.9065C28.8626 48.3106 28.3264 47.6588 27.8584 46.9465L27.8538 46.9419Z" fill="white"/>
<defs>
<linearGradient id="paint0_linear_303_3" x1="76.8779" y1="38.6018" x2="141.589" y2="38.6018" gradientUnits="userSpaceOnUse">
<stop stop-color="#2992BF"/>
<stop offset="1" stop-color="#2992BF" stop-opacity="0"/>
</linearGradient>
</defs>
</svg>
