<svg width="148" height="76" viewBox="0 0 148 76" fill="none" xmlns="http://www.w3.org/2000/svg">
<line x1="75" y1="37.6018" x2="147" y2="37.6018" stroke="url(#paint0_linear_303_8)" stroke-width="2" stroke-linecap="round"/>
<circle cx="37.5" cy="38.1018" r="36.5" fill="black" stroke="#6CBFE1" stroke-width="2"/>
<path d="M30.02 50.754C30.6606 50.754 31.2749 50.4996 31.7278 50.0466C32.1808 49.5937 32.4352 48.9794 32.4352 48.3388V41.0931C32.4352 40.4526 32.1808 39.8383 31.7278 39.3853C31.2749 38.9324 30.6606 38.6779 30.02 38.6779V37.4703C30.02 35.2284 30.9106 33.0782 32.4959 31.4929C34.0812 29.9076 36.2313 29.017 38.4733 29.017C40.7152 29.017 42.8654 29.9076 44.4507 31.4929C46.036 33.0782 46.9266 35.2284 46.9266 37.4703V38.6779C46.286 38.6779 45.6717 38.9324 45.2188 39.3853C44.7658 39.8383 44.5114 40.4526 44.5114 41.0931V48.3388H40.8885C40.5682 48.3388 40.2611 48.466 40.0346 48.6925C39.8081 48.919 39.6809 49.2262 39.6809 49.5464C39.6809 49.8667 39.8081 50.1739 40.0346 50.4003C40.2611 50.6268 40.5682 50.754 40.8885 50.754H46.9266C48.3105 50.7499 49.651 50.2705 50.7237 49.396C51.7964 48.5216 52.5361 47.3052 52.8191 45.9505C53.102 44.5957 52.911 43.1849 52.278 41.9543C51.645 40.7236 50.6084 39.7477 49.3418 39.19V37.4703C49.3418 34.5878 48.1967 31.8234 46.1585 29.7851C44.1203 27.7469 41.3558 26.6018 38.4733 26.6018C35.5908 26.6018 32.8263 27.7469 30.7881 29.7851C28.7499 31.8234 27.6048 34.5878 27.6048 37.4703V39.19C26.3382 39.7477 25.3016 40.7236 24.6686 41.9543C24.0356 43.1849 23.8446 44.5957 24.1275 45.9505C24.4105 47.3052 25.1502 48.5216 26.2229 49.396C27.2956 50.2705 28.6361 50.7499 30.02 50.754Z" fill="white"/>
<defs>
<linearGradient id="paint0_linear_303_8" x1="76.8779" y1="38.6018" x2="141.589" y2="38.6018" gradientUnits="userSpaceOnUse">
<stop stop-color="#2992BF"/>
<stop offset="1" stop-color="#2992BF" stop-opacity="0"/>
</linearGradient>
</defs>
</svg>
