<svg width="148" height="76" viewBox="0 0 148 76" fill="none" xmlns="http://www.w3.org/2000/svg">
<line x1="75" y1="37.6018" x2="147" y2="37.6018" stroke="url(#paint0_linear_303_6)" stroke-width="2" stroke-linecap="round"/>
<circle cx="37.5" cy="38.1018" r="36.5" fill="black" stroke="#6CBFE1" stroke-width="2"/>
<path fill-rule="evenodd" clip-rule="evenodd" d="M58.9298 42.3719C58.6951 41.7406 57.6689 41.3739 56.5139 41.476C56.2194 41.5085 55.8881 41.5735 55.5936 41.6663C54.1671 42.1027 46.9334 44.6045 46.8643 44.6741L46.6987 44.7112L46.7953 44.8087C47.619 45.5096 48.0193 46.2476 47.8215 46.8417C47.596 47.7468 46.4042 48.2806 44.4485 48.4477C42.7367 48.5777 40.5509 48.4477 38.0062 47.9464C38.2731 47.9464 38.5952 47.9464 38.9036 47.9836C40.7534 47.9836 42.4698 47.9836 43.8227 47.8768C45.9118 47.7097 46.9012 47.2455 47.0346 46.4472C47.1036 45.9134 46.7999 45.4725 46.0775 45.1383C45.286 44.7437 43.6616 44.507 42.0787 44.2424C40.9927 44.0753 39.9941 43.9454 39.2717 43.7411C36.7592 43.0727 34.1777 42.409 31.1636 42.6457C30.7035 42.7061 30.2065 42.7432 29.7832 42.8453C27.4686 43.2398 25.2184 43.7736 22.8716 44.4792L22.5724 44.5163L26.0789 49.5849C26.6679 49.4549 27.3305 49.311 27.9563 49.2786C28.7892 49.1811 29.5485 49.2182 30.3031 49.3157C31.2695 49.4828 33.6761 49.9841 35.9908 50.4482C38.3744 50.982 40.6522 51.4137 41.5127 51.5437C42.0419 51.6133 42.502 51.6133 42.999 51.5808C44.154 51.4833 45.3826 50.8428 46.5054 50.2486C46.8689 50.0119 47.2371 49.8448 47.5684 49.6452L57.9174 44.0057C59.0724 43.3141 59.0724 42.7061 58.9436 42.3765L58.9298 42.3719ZM38.3146 25.6018H46.6021C47.6006 25.6018 48.4197 26.428 48.4197 27.4352V40.1625C48.4197 41.1697 47.6006 41.9959 46.6021 41.9959H38.3146C37.316 41.9959 36.4969 41.1697 36.4969 40.1625V27.4352C36.4969 26.428 37.316 25.6018 38.3146 25.6018ZM39.603 38.8489C39.7319 38.8489 39.9297 38.7793 39.9297 38.5147C39.9297 38.2501 39.7825 38.2084 39.5202 38.2084H39.2625V39.1552H39.4374V38.8489H39.603ZM45.1157 35.4095C44.6648 35.8644 44.108 36.1986 43.4822 36.3842C43.7951 35.9386 44.0574 35.4188 44.2368 34.8664H45.5575C45.4286 35.0614 45.2814 35.2424 45.1157 35.4095ZM41.752 36.4538C41.3976 35.999 41.0985 35.4605 40.8915 34.8664H42.318V36.5142C42.1247 36.5142 41.936 36.4863 41.752 36.4538ZM38.7149 32.8845H40.261C40.2702 33.4832 40.3577 34.0495 40.5049 34.5879H39.1842C38.9035 34.0774 38.7333 33.4971 38.7149 32.8845ZM42.6033 30.6101V28.9623C42.7597 28.9623 42.9162 28.9809 43.0634 29.0041C43.427 29.459 43.7352 30.0067 43.9423 30.6101H42.6033ZM44.0298 30.8886C44.1954 31.4224 44.2829 31.9933 44.3013 32.592H42.6033V30.8886H44.0298ZM42.318 30.6101H40.8915C41.0985 30.016 41.3976 29.4775 41.752 29.0227C41.936 28.9855 42.1247 28.9623 42.318 28.9623V30.6101ZM42.318 30.8886V32.592H40.5371C40.5555 31.9979 40.643 31.427 40.804 30.8886H42.318ZM40.2656 32.592H38.7195C38.7379 31.9701 38.9128 31.3992 39.1981 30.8886H40.5187C40.3623 31.4224 40.2748 31.9933 40.2656 32.592ZM40.5371 32.8798H42.318V34.5833H40.7948C40.6384 34.0495 40.5509 33.4786 40.5371 32.8798ZM42.6078 34.8618H43.9469C43.7399 35.4652 43.4453 36.0129 43.068 36.4678C42.9208 36.4956 42.7643 36.5095 42.6078 36.5095V34.8618ZM42.6078 34.5833V32.8798H44.3058C44.2874 33.4786 44.2 34.0449 44.0436 34.5833H42.6078ZM44.5727 32.8798H46.2155C46.1879 33.5018 46.0176 34.0913 45.7277 34.5972V34.5786H44.3289C44.4761 34.0449 44.5635 33.4739 44.5727 32.8752V32.8798ZM44.5727 32.592C44.5635 31.9979 44.4761 31.427 44.3197 30.8886H45.737C46.0177 31.3992 46.1879 31.9654 46.2155 32.592H44.5727ZM45.5621 30.6101H44.2414C44.0528 30.0577 43.7997 29.5472 43.4868 29.0923C44.1126 29.2779 44.6694 29.6075 45.1203 30.0577C45.286 30.2341 45.4333 30.4151 45.5621 30.6101ZM39.8147 30.0577C40.2334 29.6353 40.7534 29.3104 41.3378 29.1294C41.0341 29.5657 40.781 30.067 40.6108 30.6101H39.3683C39.4972 30.4151 39.6536 30.2341 39.8193 30.0577H39.8147ZM39.3637 34.8618H40.5969C40.781 35.4048 41.0341 35.9061 41.3378 36.3424C40.758 36.1568 40.2334 35.8319 39.8147 35.4048C39.6398 35.2377 39.4926 35.0521 39.3637 34.8618ZM45.6587 38.3708V38.2037H44.9639V38.3708H45.2262V39.1506H45.401V38.3708H45.6633H45.6587ZM44.9363 39.1506L44.72 38.7561C44.8074 38.705 44.8856 38.6261 44.8856 38.4822C44.8856 38.2733 44.7384 38.2037 44.5635 38.2037H44.2184V39.1506H44.3933V38.7978H44.5681L44.7614 39.1506H44.9409H44.9363ZM44.5175 38.3523C44.6648 38.3523 44.7016 38.4033 44.7016 38.4915C44.7016 38.5797 44.6694 38.64 44.5129 38.64H44.3933V38.3523H44.5221H44.5175ZM43.6064 39.1692C43.8733 39.1692 44.0666 38.9789 44.0666 38.6772C44.0666 38.3755 43.8779 38.1852 43.6064 38.1852C43.3349 38.1852 43.1463 38.3755 43.1463 38.6772C43.1463 38.9789 43.3395 39.1692 43.6064 39.1692ZM43.6064 38.3523C43.7905 38.3523 43.8733 38.4915 43.8733 38.6772C43.8733 38.8628 43.7859 39.0021 43.6064 39.0021C43.427 39.0021 43.3303 38.8721 43.3303 38.6772C43.3303 38.4822 43.427 38.3523 43.6064 38.3523ZM42.7367 38.8443C42.8748 38.8443 43.0634 38.7746 43.0634 38.5101C43.0634 38.2455 42.9254 38.2037 42.6631 38.2037H42.3916V39.1506H42.5664V38.8443H42.7321H42.7367ZM42.7091 38.3523C42.8563 38.3523 42.8886 38.3987 42.8886 38.5101C42.8886 38.6307 42.8379 38.6772 42.7137 38.6772H42.5664V38.3523H42.7045H42.7091ZM41.89 39.1692C42.2121 39.1692 42.2581 39.0021 42.2581 38.8953C42.2581 38.6864 42.0833 38.6307 41.936 38.589C41.8302 38.5565 41.7428 38.5286 41.7428 38.4497C41.7428 38.3708 41.8486 38.3523 41.9176 38.3523C42.005 38.3523 42.0925 38.3801 42.1845 38.4404L42.2029 38.2641C42.1615 38.2316 42.0373 38.1852 41.9084 38.1852C41.6553 38.1852 41.5679 38.343 41.5679 38.4729C41.5679 38.64 41.7151 38.6818 41.8486 38.7282C41.959 38.77 42.0649 38.8071 42.0649 38.9046C42.0649 38.9742 41.9958 39.0021 41.8992 39.0021C41.7612 39.0021 41.6553 38.9603 41.6047 38.9046L41.5863 39.0949C41.6415 39.132 41.7519 39.1645 41.89 39.1645V39.1692ZM41.1169 39.1692C41.4298 39.1692 41.4805 39.0021 41.4805 38.8953C41.4805 38.6864 41.2964 38.6307 41.1584 38.589C41.0571 38.5565 40.9697 38.5286 40.9697 38.4497C40.9697 38.3708 41.0663 38.3523 41.1445 38.3523C41.232 38.3523 41.3194 38.3801 41.4114 38.4404L41.4298 38.2641C41.3884 38.2316 41.2642 38.1852 41.1354 38.1852C40.8823 38.1852 40.7948 38.343 40.7948 38.4729C40.7948 38.64 40.9329 38.6818 41.0755 38.7282C41.186 38.77 41.2918 38.8071 41.2918 38.9046C41.2918 38.9742 41.2228 39.0021 41.1261 39.0021C40.9789 39.0021 40.8822 38.9603 40.8316 38.9046L40.804 39.0949C40.8638 39.132 40.9789 39.1645 41.1169 39.1645V39.1692ZM40.7442 39.1506L40.4037 38.2037H40.2472L39.9067 39.1506H40.0862L40.1644 38.9232H40.4773L40.5555 39.1506H40.7396H40.7442ZM40.4221 38.7561H40.2288L40.3255 38.4822L40.4221 38.7561ZM39.58 38.3523C39.7181 38.3523 39.7594 38.3987 39.7594 38.5101C39.7594 38.6307 39.7088 38.6772 39.58 38.6772H39.442V38.3523H39.58ZM16.1992 44.3074H20.8331C21.0447 44.3074 21.3208 44.4838 21.468 44.6927L25.8764 51.0795C26.0144 51.2884 25.9638 51.4555 25.7614 51.4555H21.1184C20.9159 51.4555 20.6306 51.2884 20.4833 51.0795L16.0842 44.6927C15.9369 44.4838 15.9876 44.3074 16.1992 44.3074Z" fill="white"/>
<defs>
<linearGradient id="paint0_linear_303_6" x1="76.8779" y1="38.6018" x2="141.589" y2="38.6018" gradientUnits="userSpaceOnUse">
<stop stop-color="#2992BF"/>
<stop offset="1" stop-color="#2992BF" stop-opacity="0"/>
</linearGradient>
</defs>
</svg>
