<svg width="238" height="48" viewBox="0 0 238 48" fill="none" xmlns="http://www.w3.org/2000/svg">
<path d="M36.3961 9.92489L51.042 28.1481L48.1381 32.5671L28.1052 7.69434L36.3961 9.92489Z" fill="url(#paint0_linear_2_7)"/>
<path d="M38.2057 47.4655L41.5305 42.6256L10.0082 2.85447L0.623047 0.245148L38.2057 47.4655Z" fill="url(#paint1_linear_2_7)"/>
<path d="M46.623 34.9239L43.4665 39.6375L14.301 4.11707L23.8124 6.72639L46.623 34.9239Z" fill="url(#paint2_linear_2_7)"/>
<path d="M93.8433 25.5387L38.2058 47.5076L58.3649 16.2798L93.8433 25.5387Z" fill="#E1E1E1"/>
<path d="M132.907 13.3024C132.977 13.3024 132.977 13.3724 132.977 13.5124C132.977 13.6525 132.977 13.7225 132.907 13.7225C132.137 13.7225 131.296 14.1427 130.386 14.913C129.476 15.6833 128.635 16.6636 127.865 17.8541L124.014 24.0864V31.6493C124.014 32.3495 124.084 32.8397 124.154 33.1898C124.294 33.4699 124.504 33.75 124.854 33.8201C125.204 33.9601 125.764 33.9601 126.535 33.9601C126.605 33.9601 126.605 34.0302 126.605 34.1702C126.605 34.3103 126.605 34.3803 126.535 34.3803C125.764 34.3803 125.204 34.3803 124.854 34.3803H122.403H119.952C119.532 34.3803 118.902 34.3803 118.201 34.3803C118.131 34.3803 118.131 34.3103 118.131 34.1702C118.131 34.0302 118.131 33.9601 118.201 33.9601C118.972 33.9601 119.532 33.8901 119.882 33.8201C120.232 33.68 120.512 33.4699 120.652 33.1898C120.792 32.8397 120.862 32.3495 120.862 31.6493V24.7167L115.751 16.9437C114.98 15.7533 114.35 14.913 113.79 14.4928C113.23 14.0026 112.739 13.7926 112.179 13.7926C112.109 13.7926 112.109 13.7225 112.109 13.5825C112.109 13.4424 112.109 13.3724 112.179 13.3724H113.3C113.79 13.4424 114.14 13.4424 114.35 13.4424C115.12 13.4424 116.171 13.4424 117.571 13.3724H119.672C119.742 13.3724 119.742 13.4424 119.742 13.5825C119.742 13.7225 119.742 13.7926 119.672 13.7926C118.762 13.7926 118.271 14.0727 118.271 14.7029C118.271 14.983 118.412 15.4032 118.692 15.7533L123.593 23.2461L127.025 17.644C127.585 16.7337 127.865 15.8933 127.865 15.1931C127.865 14.2127 127.235 13.7225 126.044 13.7225C125.974 13.7225 125.974 13.6525 125.974 13.5124C125.974 13.3724 125.974 13.3024 126.044 13.3024H127.795C128.705 13.3724 129.616 13.3724 130.386 13.3724C130.736 13.3724 131.226 13.3724 131.787 13.3024H132.907ZM151.954 17.4339C151.954 16.2435 151.674 15.3331 151.114 14.7029C150.624 14.0727 149.853 13.7225 148.873 13.7225C148.803 13.7225 148.803 13.6525 148.803 13.5124C148.803 13.3724 148.803 13.3024 148.873 13.3024H150.414C151.254 13.3724 151.954 13.3724 152.444 13.3724C152.864 13.3724 153.425 13.3724 154.265 13.3024H155.736C155.806 13.3024 155.806 13.3724 155.806 13.5124C155.806 13.6525 155.806 13.7225 155.736 13.7225C154.895 13.7225 154.195 14.0727 153.705 14.7029C153.215 15.3331 153.005 16.2435 153.005 17.4339V26.8174C153.005 28.428 152.654 29.8286 151.954 31.019C151.254 32.2095 150.344 33.1198 149.083 33.7501C147.823 34.3803 146.422 34.7304 144.811 34.7304C143.201 34.7304 141.73 34.4503 140.47 33.8201C139.209 33.1898 138.229 32.2795 137.459 31.0891C136.758 29.8986 136.408 28.4981 136.408 26.8875V16.0334C136.408 15.3331 136.338 14.8429 136.198 14.5628C136.058 14.2827 135.848 14.0026 135.428 13.9326C135.078 13.7926 134.588 13.7225 133.817 13.7225C133.747 13.7225 133.747 13.6525 133.747 13.5124C133.747 13.3724 133.747 13.3024 133.817 13.3024H135.568C136.548 13.3724 137.319 13.3724 137.949 13.3724C138.649 13.3724 139.419 13.3724 140.47 13.3024H142.15C142.22 13.3024 142.22 13.3724 142.22 13.5124C142.22 13.6525 142.22 13.7225 142.15 13.7225C141.38 13.7225 140.89 13.7926 140.47 13.9326C140.12 14.0727 139.91 14.2827 139.77 14.6329C139.629 14.913 139.559 15.4732 139.559 16.1034V25.697C139.559 28.358 140.12 30.3888 141.24 31.6493C142.361 32.9798 143.901 33.61 145.932 33.61C147.823 33.61 149.293 33.0498 150.414 31.8593C151.464 30.6689 152.024 28.9883 152.024 26.8174V17.4339H151.954ZM179.825 33.8901C179.895 33.8901 179.895 33.9601 179.895 34.1002C179.895 34.2402 179.895 34.3103 179.825 34.3103H174.433C173.942 34.3103 172.962 33.3999 171.561 31.5092C170.161 29.6185 168.48 27.0275 166.45 23.6663C166.099 23.7363 165.749 23.7363 165.329 23.7363C164.489 23.7363 163.929 23.7363 163.578 23.7363V31.5792C163.578 32.2795 163.649 32.7697 163.719 33.1198C163.859 33.3999 164.069 33.68 164.419 33.7501C164.769 33.8901 165.329 33.8901 166.099 33.8901C166.169 33.8901 166.169 33.9601 166.169 34.1002C166.169 34.2402 166.169 34.3103 166.099 34.3103C165.329 34.3103 164.769 34.3103 164.419 34.3103H161.898H159.447C159.027 34.3103 158.467 34.3103 157.696 34.3103C157.626 34.3103 157.626 34.2402 157.626 34.1002C157.626 33.9601 157.626 33.8901 157.696 33.8901C158.467 33.8901 159.027 33.8201 159.377 33.7501C159.727 33.61 160.007 33.3999 160.147 33.1198C160.287 32.7697 160.357 32.2795 160.357 31.5792V16.0334C160.357 15.3331 160.287 14.8429 160.147 14.5628C160.007 14.2827 159.797 14.0026 159.447 13.9326C159.097 13.7926 158.537 13.7225 157.766 13.7225C157.696 13.7225 157.696 13.6525 157.696 13.5124C157.696 13.3724 157.696 13.3024 157.766 13.3024H159.517C160.497 13.3724 161.268 13.3724 161.898 13.3724C162.598 13.3724 163.298 13.3724 163.999 13.3024C164.279 13.3024 164.559 13.2323 164.979 13.2323C165.329 13.2323 165.749 13.2323 166.239 13.2323C168.2 13.2323 169.741 13.5825 170.861 14.3528C171.912 15.1231 172.472 16.1034 172.472 17.504C172.472 18.5543 172.192 19.5347 171.561 20.5151C170.931 21.4254 170.091 22.1957 169.111 22.8259C170.931 25.627 172.472 27.8678 173.732 29.4784C174.993 31.0891 176.113 32.2095 177.094 32.9097C178.004 33.54 178.914 33.8901 179.825 33.8901ZM163.578 22.7559C164.139 22.826 164.769 22.896 165.539 22.896C166.87 22.896 167.85 22.6159 168.34 21.9856C168.9 21.3554 169.181 20.305 169.181 18.6244C169.181 16.8037 168.9 15.5432 168.27 14.8429C167.64 14.1427 166.8 13.7926 165.749 13.7926C164.909 13.7926 164.349 13.9326 164.069 14.2827C163.789 14.5628 163.649 15.1931 163.649 16.0334V22.7559H163.578ZM186.897 31.5792C186.897 32.2795 186.967 32.7697 187.037 33.1198C187.177 33.3999 187.387 33.68 187.738 33.7501C188.088 33.8901 188.648 33.8901 189.418 33.8901C189.488 33.8901 189.488 33.9601 189.488 34.1002C189.488 34.2402 189.488 34.3103 189.418 34.3103C188.718 34.3103 188.158 34.3103 187.738 34.3103H185.217H182.766C182.346 34.3103 181.785 34.3103 181.015 34.3103C180.945 34.3103 180.945 34.2402 180.945 34.1002C180.945 33.9601 180.945 33.8901 181.015 33.8901C181.785 33.8901 182.346 33.8201 182.696 33.7501C183.046 33.61 183.326 33.3999 183.466 33.1198C183.606 32.7697 183.676 32.2795 183.676 31.5792V16.0334C183.676 15.3331 183.606 14.8429 183.466 14.5628C183.326 14.2827 183.116 14.0026 182.696 13.9326C182.346 13.7926 181.785 13.7225 181.015 13.7225C180.945 13.7225 180.945 13.6525 180.945 13.5124C180.945 13.3724 180.945 13.3024 181.015 13.3024H182.766C183.746 13.3724 184.586 13.3724 185.217 13.3724C185.917 13.3724 186.757 13.3724 187.738 13.3024H189.418C189.488 13.3024 189.488 13.3724 189.488 13.5124C189.488 13.6525 189.488 13.7225 189.418 13.7225C188.648 13.7225 188.158 13.7926 187.738 13.9326C187.387 14.0727 187.177 14.2827 187.037 14.6329C186.897 14.913 186.897 15.4732 186.897 16.1034V31.5792ZM205.034 12.9522C206.014 12.9522 207.065 13.0223 208.185 13.2323C209.306 13.4424 210.146 13.6525 210.776 14.0026C210.986 14.0727 211.126 14.1427 211.126 14.2827C211.196 14.3528 211.266 14.5628 211.266 14.7729L211.687 19.1145C211.687 19.1846 211.617 19.2546 211.547 19.2546C211.406 19.2546 211.336 19.2546 211.336 19.1846C210.706 17.4339 209.726 16.1034 208.395 15.1931C207.065 14.2827 205.594 13.7926 203.774 13.7926C201.463 13.7926 199.642 14.6329 198.312 16.2435C196.981 17.8541 196.351 20.0949 196.351 22.8259C196.351 24.8567 196.701 26.7474 197.401 28.4981C198.171 30.2487 199.152 31.5792 200.412 32.6296C201.743 33.61 203.143 34.1702 204.754 34.1702C207.765 34.1702 210.076 32.2795 211.617 28.4981C211.617 28.4281 211.687 28.358 211.827 28.4281C211.967 28.4281 212.037 28.4981 212.037 28.5681L211.547 32.8397C211.476 33.1198 211.476 33.2599 211.406 33.3999C211.336 33.47 211.266 33.54 211.056 33.61C209.096 34.3803 207.065 34.8005 204.824 34.8005C202.093 34.8005 199.782 34.2402 198.031 33.1898C196.211 32.0694 194.88 30.6689 193.97 28.9883C193.13 27.3076 192.709 25.557 192.709 23.7363C192.709 21.6355 193.27 19.7448 194.39 18.1342C195.581 16.5236 197.121 15.2631 199.012 14.3528C200.903 13.4424 202.863 12.9522 205.034 12.9522ZM225.692 34.7304C223.591 34.7304 221.77 34.2402 220.09 33.2599C218.479 32.2795 217.219 30.949 216.308 29.2684C215.468 27.5877 214.978 25.7671 214.978 23.8063C214.978 21.4955 215.538 19.5347 216.728 17.9241C217.919 16.2435 219.389 15.053 221.21 14.2127C223.031 13.3724 224.922 12.9522 226.812 12.9522C228.913 12.9522 230.804 13.4424 232.414 14.4928C234.025 15.4732 235.285 16.8037 236.126 18.4143C236.966 20.0249 237.456 21.7756 237.456 23.5962C237.456 25.627 236.896 27.5177 235.846 29.1983C234.795 30.879 233.325 32.2795 231.504 33.2599C229.753 34.2402 227.793 34.7304 225.692 34.7304ZM226.882 33.8901C228.213 33.8901 229.403 33.54 230.454 32.8397C231.504 32.0694 232.344 31.019 232.975 29.6185C233.605 28.218 233.885 26.5373 233.885 24.5766C233.885 22.5458 233.535 20.6551 232.835 19.0445C232.134 17.4339 231.154 16.1034 229.893 15.1931C228.633 14.2827 227.162 13.7926 225.482 13.7926C223.311 13.7926 221.63 14.5628 220.44 16.1734C219.249 17.714 218.689 19.8848 218.689 22.6159C218.689 24.7167 219.039 26.6774 219.74 28.4281C220.44 30.1787 221.42 31.5092 222.681 32.4896C223.871 33.3999 225.272 33.8901 226.882 33.8901Z" fill="white"/>
<defs>
<linearGradient id="paint0_linear_2_7" x1="43.6667" y1="24.3497" x2="48.5002" y2="31.9454" gradientUnits="userSpaceOnUse">
<stop stop-color="#0F7DAD"/>
<stop offset="1" stop-color="#056995"/>
</linearGradient>
<linearGradient id="paint1_linear_2_7" x1="20.7857" y1="21.0781" x2="40.1202" y2="45.9369" gradientUnits="userSpaceOnUse">
<stop stop-color="#6BBEE1"/>
<stop offset="0.9736" stop-color="#1684B3"/>
</linearGradient>
<linearGradient id="paint2_linear_2_7" x1="35.0037" y1="25.5675" x2="44.1185" y2="37.7206" gradientUnits="userSpaceOnUse">
<stop stop-color="#3B9FCC"/>
<stop offset="1" stop-color="#2784AD"/>
</linearGradient>
</defs>
</svg>
