<svg width="348" height="70" viewBox="0 0 348 70" fill="none" xmlns="http://www.w3.org/2000/svg">
<path d="M53.0002 14.1882L74.4435 40.869L70.1918 47.339L40.8613 10.9224L53.0002 14.1882Z" fill="url(#paint0_linear_121_13)"/>
<path d="M55.6495 69.1522L60.5173 62.0661L14.365 3.83647L0.624023 0.0161133L55.6495 69.1522Z" fill="url(#paint1_linear_121_13)"/>
<path d="M67.9733 50.7894L63.3519 57.6907L20.6501 5.68457L34.576 9.50493L67.9733 50.7894Z" fill="url(#paint2_linear_121_13)"/>
<path d="M137.109 37.0483L55.6494 69.2132L85.1647 23.4922L137.109 37.0483Z" fill="#E1E1E1"/>
<path d="M194.303 19.1328C194.406 19.1328 194.406 19.2353 194.406 19.4403C194.406 19.6454 194.406 19.7479 194.303 19.7479C193.175 19.7479 191.945 20.3631 190.612 21.4909C189.279 22.6186 188.049 24.054 186.921 25.797L181.282 34.9219V45.9948C181.282 47.02 181.385 47.7377 181.487 48.2503C181.692 48.6605 182 49.0706 182.513 49.1731C183.025 49.3781 183.845 49.3781 184.973 49.3781C185.076 49.3781 185.076 49.4807 185.076 49.6857C185.076 49.8908 185.076 49.9933 184.973 49.9933C183.845 49.9933 183.025 49.9933 182.513 49.9933H178.924H175.336C174.721 49.9933 173.798 49.9933 172.773 49.9933C172.67 49.9933 172.67 49.8908 172.67 49.6857C172.67 49.4807 172.67 49.3781 172.773 49.3781C173.9 49.3781 174.721 49.2756 175.233 49.1731C175.746 48.968 176.156 48.6605 176.361 48.2503C176.566 47.7377 176.669 47.02 176.669 45.9948V35.8446L169.184 24.4641C168.056 22.7212 167.134 21.4909 166.313 20.8757C165.493 20.158 164.776 19.8504 163.955 19.8504C163.853 19.8504 163.853 19.7479 163.853 19.5429C163.853 19.3378 163.853 19.2353 163.955 19.2353H165.596C166.313 19.3378 166.826 19.3378 167.134 19.3378C168.261 19.3378 169.799 19.3378 171.85 19.2353H174.926C175.028 19.2353 175.028 19.3378 175.028 19.5429C175.028 19.7479 175.028 19.8504 174.926 19.8504C173.593 19.8504 172.875 20.2605 172.875 21.1833C172.875 21.5934 173.08 22.2086 173.49 22.7212L180.667 33.6915L185.691 25.4894C186.511 24.1566 186.921 22.9262 186.921 21.901C186.921 20.4656 185.999 19.7479 184.256 19.7479C184.153 19.7479 184.153 19.6454 184.153 19.4403C184.153 19.2353 184.153 19.1328 184.256 19.1328H186.819C188.152 19.2353 189.484 19.2353 190.612 19.2353C191.125 19.2353 191.843 19.2353 192.663 19.1328H194.303ZM222.191 25.1818C222.191 23.4389 221.78 22.106 220.96 21.1833C220.243 20.2605 219.115 19.7479 217.679 19.7479C217.577 19.7479 217.577 19.6454 217.577 19.4403C217.577 19.2353 217.577 19.1328 217.679 19.1328H219.935C221.165 19.2353 222.191 19.2353 222.908 19.2353C223.523 19.2353 224.344 19.2353 225.574 19.1328H227.727C227.829 19.1328 227.829 19.2353 227.829 19.4403C227.829 19.6454 227.829 19.7479 227.727 19.7479C226.497 19.7479 225.471 20.2605 224.754 21.1833C224.036 22.106 223.728 23.4389 223.728 25.1818V38.9204C223.728 41.2785 223.216 43.3291 222.191 45.072C221.165 46.815 219.832 48.1478 217.987 49.0706C216.141 49.9933 214.091 50.5059 211.733 50.5059C209.375 50.5059 207.222 50.0958 205.376 49.1731C203.531 48.2503 202.095 46.9175 200.967 45.1745C199.942 43.4316 199.43 41.3811 199.43 39.0229V23.1313C199.43 22.106 199.327 21.3883 199.122 20.9782C198.917 20.5681 198.609 20.158 197.994 20.0555C197.482 19.8504 196.764 19.7479 195.636 19.7479C195.534 19.7479 195.534 19.6454 195.534 19.4403C195.534 19.2353 195.534 19.1328 195.636 19.1328H198.199C199.635 19.2353 200.762 19.2353 201.685 19.2353C202.71 19.2353 203.838 19.2353 205.376 19.1328H207.837C207.939 19.1328 207.939 19.2353 207.939 19.4403C207.939 19.6454 207.939 19.7479 207.837 19.7479C206.709 19.7479 205.991 19.8504 205.376 20.0555C204.863 20.2605 204.556 20.5681 204.351 21.0808C204.146 21.4909 204.043 22.3111 204.043 23.2338V37.28C204.043 41.176 204.863 44.1493 206.504 45.9948C208.144 47.9428 210.4 48.8655 213.373 48.8655C216.141 48.8655 218.294 48.0453 219.935 46.3023C221.473 44.5594 222.293 42.0987 222.293 38.9204V25.1818H222.191ZM262.996 49.2756C263.099 49.2756 263.099 49.3781 263.099 49.5832C263.099 49.7882 263.099 49.8908 262.996 49.8908H255.102C254.384 49.8908 252.949 48.5579 250.898 45.7897C248.847 43.0215 246.387 39.228 243.414 34.3067C242.901 34.4092 242.388 34.4092 241.773 34.4092C240.543 34.4092 239.723 34.4092 239.21 34.4092V45.8922C239.21 46.9175 239.312 47.6352 239.415 48.1478C239.62 48.5579 239.928 48.968 240.44 49.0706C240.953 49.2756 241.773 49.2756 242.901 49.2756C243.003 49.2756 243.003 49.3781 243.003 49.5832C243.003 49.7882 243.003 49.8908 242.901 49.8908C241.773 49.8908 240.953 49.8908 240.44 49.8908H236.749H233.161C232.546 49.8908 231.725 49.8908 230.598 49.8908C230.495 49.8908 230.495 49.7882 230.495 49.5832C230.495 49.3781 230.495 49.2756 230.598 49.2756C231.725 49.2756 232.546 49.1731 233.058 49.0706C233.571 48.8655 233.981 48.5579 234.186 48.1478C234.391 47.6352 234.494 46.9175 234.494 45.8922V23.1313C234.494 22.106 234.391 21.3883 234.186 20.9782C233.981 20.5681 233.674 20.158 233.161 20.0555C232.648 19.8504 231.828 19.7479 230.7 19.7479C230.598 19.7479 230.598 19.6454 230.598 19.4403C230.598 19.2353 230.598 19.1328 230.7 19.1328H233.263C234.699 19.2353 235.827 19.2353 236.749 19.2353C237.775 19.2353 238.8 19.2353 239.825 19.1328C240.235 19.1328 240.645 19.0302 241.26 19.0302C241.773 19.0302 242.388 19.0302 243.106 19.0302C245.977 19.0302 248.232 19.5429 249.873 20.6707C251.411 21.7984 252.231 23.2338 252.231 25.2844C252.231 26.8223 251.821 28.2576 250.898 29.693C249.975 31.0258 248.745 32.1536 247.31 33.0764C249.975 37.1775 252.231 40.4583 254.076 42.8164C255.922 45.1745 257.562 46.815 258.998 47.8402C260.33 48.763 261.663 49.2756 262.996 49.2756ZM239.21 32.9739C240.03 33.0764 240.953 33.1789 242.081 33.1789C244.029 33.1789 245.464 32.7688 246.182 31.8461C247.002 30.9233 247.412 29.3854 247.412 26.9248C247.412 24.2591 247.002 22.4136 246.079 21.3883C245.157 20.3631 243.926 19.8504 242.388 19.8504C241.158 19.8504 240.338 20.0555 239.928 20.5681C239.518 20.9782 239.312 21.901 239.312 23.1313V32.9739H239.21ZM273.351 45.8922C273.351 46.9175 273.454 47.6352 273.556 48.1478C273.761 48.5579 274.069 48.968 274.582 49.0706C275.094 49.2756 275.915 49.2756 277.042 49.2756C277.145 49.2756 277.145 49.3781 277.145 49.5832C277.145 49.7882 277.145 49.8908 277.042 49.8908C276.017 49.8908 275.197 49.8908 274.582 49.8908H270.891H267.302C266.687 49.8908 265.867 49.8908 264.739 49.8908C264.637 49.8908 264.637 49.7882 264.637 49.5832C264.637 49.3781 264.637 49.2756 264.739 49.2756C265.867 49.2756 266.687 49.1731 267.2 49.0706C267.712 48.8655 268.122 48.5579 268.328 48.1478C268.533 47.6352 268.635 46.9175 268.635 45.8922V23.1313C268.635 22.106 268.533 21.3883 268.328 20.9782C268.122 20.5681 267.815 20.158 267.2 20.0555C266.687 19.8504 265.867 19.7479 264.739 19.7479C264.637 19.7479 264.637 19.6454 264.637 19.4403C264.637 19.2353 264.637 19.1328 264.739 19.1328H267.302C268.738 19.2353 269.968 19.2353 270.891 19.2353C271.916 19.2353 273.146 19.2353 274.582 19.1328H277.042C277.145 19.1328 277.145 19.2353 277.145 19.4403C277.145 19.6454 277.145 19.7479 277.042 19.7479C275.915 19.7479 275.197 19.8504 274.582 20.0555C274.069 20.2605 273.761 20.5681 273.556 21.0808C273.351 21.4909 273.351 22.3111 273.351 23.2338V45.8922ZM299.906 18.6201C301.341 18.6201 302.879 18.7226 304.52 19.0302C306.16 19.3378 307.39 19.6454 308.313 20.158C308.621 20.2605 308.826 20.3631 308.826 20.5681C308.928 20.6706 309.031 20.9782 309.031 21.2858L309.646 27.6425C309.646 27.745 309.543 27.8475 309.441 27.8475C309.236 27.8475 309.133 27.8475 309.133 27.745C308.21 25.1818 306.775 23.2338 304.827 21.901C302.879 20.5681 300.726 19.8504 298.06 19.8504C294.677 19.8504 292.011 21.0808 290.063 23.4389C288.115 25.797 287.192 29.0778 287.192 33.0764C287.192 36.0497 287.705 38.8179 288.73 41.3811C289.858 43.9442 291.294 45.8922 293.139 47.4301C295.087 48.8655 297.138 49.6857 299.496 49.6857C303.904 49.6857 307.288 46.9175 309.543 41.3811C309.543 41.2785 309.646 41.176 309.851 41.2785C310.056 41.2785 310.158 41.381 310.158 41.4836L309.441 47.7377C309.338 48.1478 309.338 48.3529 309.236 48.5579C309.133 48.6605 309.031 48.763 308.723 48.8655C305.852 49.9933 302.879 50.6085 299.598 50.6085C295.6 50.6085 292.216 49.7882 289.653 48.2503C286.987 46.6099 285.039 44.5594 283.707 42.0987C282.476 39.6381 281.861 37.0749 281.861 34.4092C281.861 31.3334 282.681 28.5652 284.322 26.2071C286.065 23.849 288.32 22.0035 291.088 20.6707C293.857 19.3378 296.727 18.6201 299.906 18.6201ZM330.151 50.5059C327.075 50.5059 324.41 49.7883 321.949 48.3529C319.591 46.9175 317.745 44.9695 316.413 42.5088C315.182 40.0482 314.465 37.3825 314.465 34.5118C314.465 31.1284 315.285 28.2576 317.028 25.8995C318.771 23.4389 320.924 21.6959 323.589 20.4656C326.255 19.2353 329.023 18.6201 331.792 18.6201C334.867 18.6201 337.636 19.3378 339.994 20.8757C342.352 22.3111 344.197 24.2591 345.428 26.6172C346.658 28.9753 347.376 31.5385 347.376 34.2042C347.376 37.1775 346.555 39.9457 345.018 42.4063C343.48 44.867 341.327 46.9175 338.661 48.3529C336.098 49.7883 333.227 50.5059 330.151 50.5059ZM331.894 49.2756C333.842 49.2756 335.585 48.763 337.123 47.7377C338.661 46.6099 339.891 45.072 340.814 43.0215C341.737 40.9709 342.147 38.5103 342.147 35.6395C342.147 32.6663 341.634 29.8981 340.609 27.5399C339.584 25.1818 338.148 23.2338 336.303 21.901C334.457 20.5681 332.304 19.8504 329.844 19.8504C326.665 19.8504 324.205 20.9782 322.462 23.3363C320.719 25.5919 319.899 28.7703 319.899 32.7688C319.899 35.8446 320.411 38.7154 321.436 41.2785C322.462 43.8417 323.897 45.7897 325.743 47.2251C327.485 48.5579 329.536 49.2756 331.894 49.2756Z" fill="black"/>
<defs>
<linearGradient id="paint0_linear_121_13" x1="63.6451" y1="35.3078" x2="70.722" y2="46.4288" gradientUnits="userSpaceOnUse">
<stop stop-color="#0F7DAD"/>
<stop offset="1" stop-color="#056995"/>
</linearGradient>
<linearGradient id="paint1_linear_121_13" x1="30.1445" y1="30.518" x2="58.4525" y2="66.9142" gradientUnits="userSpaceOnUse">
<stop stop-color="#6BBEE1"/>
<stop offset="0.9736" stop-color="#1684B3"/>
</linearGradient>
<linearGradient id="paint2_linear_121_13" x1="50.9613" y1="37.0905" x2="64.3065" y2="54.8841" gradientUnits="userSpaceOnUse">
<stop stop-color="#3B9FCC"/>
<stop offset="1" stop-color="#2784AD"/>
</linearGradient>
</defs>
</svg>
