<svg width="46" height="27" viewBox="0 0 46 27" fill="none" xmlns="http://www.w3.org/2000/svg">
<path fill-rule="evenodd" clip-rule="evenodd" d="M0.42403 10.9263H5.74982V27H0.42403C0.192753 27 0 26.8022 0 26.5781V11.3681C0 11.1307 0.192753 10.9329 0.42403 10.9329V10.9263ZM31.852 12.3438H40.814C41.0453 12.3438 41.2252 12.5284 41.2252 12.7658C41.2252 13.0031 41.0453 13.1877 40.814 13.1877H31.852C31.6208 13.1877 31.428 13.0031 31.428 12.7658C31.428 12.5284 31.6208 12.3438 31.852 12.3438ZM31.852 10.6495H40.814C41.0453 10.6495 41.2252 10.8472 41.2252 11.0714C41.2252 11.3087 41.0453 11.5065 40.814 11.5065H31.852C31.6208 11.5065 31.428 11.3087 31.428 11.0714C31.428 10.8472 31.6208 10.6495 31.852 10.6495ZM31.852 8.95505H40.814C41.0453 8.95505 41.2252 9.15285 41.2252 9.39019C41.2252 9.61435 41.0453 9.81215 40.814 9.81215H31.852C31.6208 9.81215 31.428 9.61435 31.428 9.39019C31.428 9.15285 31.6208 8.95505 31.852 8.95505ZM31.852 7.27386H40.814C41.0453 7.27386 41.2252 7.45845 41.2252 7.6958C41.2252 7.93314 41.0453 8.11775 40.814 8.11775H31.852C31.6208 8.11775 31.428 7.93314 31.428 7.6958C31.428 7.45845 31.6208 7.27386 31.852 7.27386ZM14.3199 0.819336H43.7499C44.1675 0.819336 44.5273 0.984163 44.7971 1.25447C45.0605 1.52479 45.2211 1.90058 45.2211 2.31593V17.5259C45.2211 17.9347 45.0605 18.3105 44.7971 18.5874V18.6006C44.5273 18.8775 44.1547 19.0357 43.7499 19.0357H31.6143V16.8798H43.1204V2.97523H14.956V9.55502H12.8552V2.31593C12.8552 1.90717 13.0222 1.53138 13.292 1.25447C13.5618 0.97757 13.9216 0.819336 14.3263 0.819336H14.3199ZM6.4886 10.9263H29.8476C30.0789 10.9263 30.2716 11.1241 30.2716 11.3615V26.5715C30.2716 26.7956 30.0789 26.9934 29.8476 26.9934H6.4886V10.9198V10.9263ZM2.20355 12.6471H3.73256V14.203H2.20355V12.6471ZM2.20355 24.0595H3.73256V25.6287H2.20355V24.0595ZM2.20355 21.7784H3.73256V23.3343H2.20355V21.7784ZM2.20355 19.4972H3.73256V21.0532H2.20355V19.4972ZM2.20355 17.2029H3.73256V18.772H2.20355V17.2029ZM2.20355 14.9217H3.73256V16.4908H2.20355V14.9217ZM16.0802 23.6442C16.0288 23.6046 15.971 23.5453 15.971 23.5453C15.971 23.5453 15.971 23.3475 15.9838 23.2948L16.1188 19.8796L17.2944 20.2027L17.4807 19.5566L17.7505 19.6291L17.5642 20.2752L18.0396 20.4005L18.2002 19.8005L18.4701 19.8796L18.3095 20.4796L18.7848 20.618L18.9326 20.0708L19.196 20.1433L19.0483 20.6905L20.5194 21.0927C20.6287 21.1191 20.7122 21.04 20.6993 20.9213L20.5773 19.8862C20.5644 19.7609 20.468 19.6093 20.3588 19.5631L16.1444 17.5918L16.0866 14.203C16.0738 13.5701 15.8425 12.9174 15.5791 12.7592C15.4827 12.6867 15.3607 12.6471 15.2258 12.6471C15.1037 12.6471 14.9688 12.6867 14.8724 12.746C14.609 12.9108 14.3649 13.557 14.3392 14.1767L14.2043 17.5787L9.95777 19.4511C9.84856 19.5038 9.73935 19.6357 9.7265 19.7609L9.57876 20.796C9.56591 20.9213 9.65584 20.9938 9.76505 20.9674L11.1463 20.618L11.0242 20.1433L11.2941 20.0708L11.4289 20.5587L11.9044 20.4334L11.7566 19.8862L12.0264 19.8071L12.1742 20.3675L12.6432 20.2422L12.4761 19.6291L12.746 19.5566L12.913 20.1763L14.1722 19.8664L14.2492 23.2684C14.2621 23.3277 14.2492 23.5255 14.2492 23.5255C14.2492 23.5255 14.1914 23.5783 14.14 23.6244L13.4334 24.1584L13.292 25.2331H13.337L16.9025 25.2726L16.7804 24.198L16.0866 23.6376L16.0802 23.6442ZM20.6094 17.1897H28.1002C28.2801 17.1897 28.4407 17.3545 28.4407 17.5523C28.4407 17.7501 28.2865 17.9149 28.1002 17.9149H20.6094C20.4167 17.9149 20.2561 17.7567 20.2561 17.5523C20.2561 17.3545 20.4167 17.1897 20.6094 17.1897ZM20.6094 15.7788H28.1002C28.2801 15.7788 28.4407 15.9436 28.4407 16.1414C28.4407 16.3326 28.2865 16.4908 28.1002 16.4908H20.6094C20.4167 16.4908 20.2561 16.3326 20.2561 16.1414C20.2561 15.9436 20.4167 15.7788 20.6094 15.7788ZM20.6094 14.3613H28.1002C28.2801 14.3613 28.4407 14.5195 28.4407 14.7239C28.4407 14.9217 28.2865 15.0865 28.1002 15.0865H20.6094C20.4167 15.0865 20.2561 14.9283 20.2561 14.7239C20.2561 14.5261 20.4167 14.3613 20.6094 14.3613ZM20.6094 12.9504H28.1002C28.2801 12.9504 28.4407 13.1152 28.4407 13.2998C28.4407 13.4976 28.2865 13.6624 28.1002 13.6624H20.6094C20.4167 13.6624 20.2561 13.4976 20.2561 13.2998C20.2561 13.1152 20.4167 12.9504 20.6094 12.9504Z" fill="white"/>
</svg>
