<svg width="47" height="44" viewBox="0 0 47 44" fill="none" xmlns="http://www.w3.org/2000/svg">
<path fill-rule="evenodd" clip-rule="evenodd" d="M38.3454 30.167H37.3167C36.4012 30.167 35.4856 30.2799 34.5701 30.6241C33.6545 28.3383 31.4787 26.9669 29.3084 26.1601C28.9637 26.0472 28.5059 25.9235 28.1612 25.8159C27.3534 23.073 25.0645 21.1314 22.3286 21.1314C21.0684 21.1314 19.9159 21.4756 19.0003 22.277C17.2823 23.4172 16.2537 25.4663 16.2537 27.7575C15.2251 27.0744 14.0887 26.6173 12.8231 26.6173C10.4211 26.6173 8.24534 28.333 7.32979 30.6241H6.17727C2.74665 30.6241 0 32.7862 0 35.4216C0 37.1426 1.15251 38.6217 2.85974 39.536C3.77529 39.9931 4.92781 40.3374 6.17727 40.3374C6.52194 40.3374 6.97972 40.2244 7.32979 40.2244C8.01914 41.5851 9.03702 42.7361 10.1895 43.3062C10.992 43.7633 11.9075 44 12.8231 44C14.5411 44 16.0275 43.3062 17.1692 42.0477C18.0848 42.7361 19.2373 43.0857 20.3737 43.0857C22.3286 43.0857 23.9282 42.0477 25.0645 40.5633C25.9801 41.7088 27.1326 42.6285 28.5059 42.9727C28.9637 42.9727 29.4214 43.0857 29.8792 43.0857C32.1681 43.0857 34.2254 41.5905 35.2648 39.536C35.5987 39.6489 36.0619 39.7726 36.5143 39.7726C36.7512 39.7726 37.0851 39.8856 37.3167 39.8856C39.9557 39.8856 42.2445 38.5141 43.047 36.6855C43.3809 36.1154 43.5047 35.5345 43.5047 34.9644C43.5047 32.5657 41.329 30.6241 38.3454 30.167ZM3.44677 14.4246C3.74298 14.0481 4.18999 13.7738 4.77164 13.591C5.59563 12.2518 6.68352 12.0851 9.33323 11.5472C15.559 11.3429 21.7308 11.1331 27.9566 11.2837C30.1216 10.3371 32.292 9.37978 34.4624 8.4332C36.4066 5.63109 38.4638 2.79133 40.4134 0.0215014C41.259 0.0107448 41.8999 0.0215133 42.6915 0C42.0614 3.65725 41.3882 7.33063 40.7473 11.0793C42.5677 10.4769 44.2372 9.93913 46.0575 9.34213C46.413 9.23994 46.93 9.15927 47 9.27221C45.282 10.278 43.5317 11.316 41.8083 12.3217C41.7814 13.1069 41.4044 13.7039 41.1889 13.8653C38.5931 14.6989 35.9811 15.4734 33.3637 16.1941C31.1341 16.7696 17.8855 18.4584 16.6522 18.1034C16.7438 18.3777 16.7546 18.5982 16.6899 18.7649C16.6307 18.9155 16.496 19.0177 16.3129 19.0608C16.0167 19.1522 15.9467 19.1629 15.6505 19.2651C15.629 19.378 15.5051 19.6846 15.3274 19.69C13.8517 20.1257 10.7604 19.7438 10.2703 19.4049C9.82331 19.1791 9.59712 17.7646 10.2919 16.9847C7.94913 16.7319 5.62794 17.0869 3.57604 15.0216C3.39293 14.7742 3.33907 14.7742 3.4414 14.4193L3.44677 14.4246ZM3.66221 14.8226L4.38387 14.0912L5.19708 13.9782L4.46465 14.7097L3.66221 14.8226ZM9.63482 13.6932L9.75867 13.6824C9.79637 13.6717 9.82869 13.7039 9.82869 13.747L9.86639 14.1234C9.87716 14.1665 9.84486 14.2041 9.80716 14.2041L9.68329 14.2203C9.6402 14.2203 9.61328 14.2041 9.6025 14.1611L9.55941 13.7739C9.55941 13.7362 9.59173 13.7039 9.62943 13.6932H9.63482ZM14.6703 13.7523L14.7942 13.7416C14.8373 13.7308 14.8642 13.7577 14.875 13.8007L14.9073 14.1772C14.9181 14.2149 14.8858 14.2579 14.8481 14.2579L14.7242 14.2794C14.6811 14.2794 14.6542 14.2579 14.6434 14.2149L14.6111 13.8276C14.6003 13.79 14.6326 13.7577 14.6703 13.747V13.7523ZM30.4339 13.8653L30.5578 13.8545C30.5901 13.8438 30.6278 13.8761 30.6278 13.9191L30.6655 14.3063C30.6763 14.3386 30.644 14.3762 30.6063 14.3762L30.4824 14.3977C30.4393 14.4085 30.4124 14.3762 30.4016 14.3332L30.3585 13.946C30.3585 13.9029 30.3908 13.876 30.4285 13.8653H30.4339ZM29.7123 13.876L29.8361 13.8653C29.8792 13.8545 29.9169 13.8868 29.9169 13.9298L29.96 14.3063C29.96 14.344 29.9277 14.387 29.8954 14.387L29.7769 14.4085C29.7338 14.4085 29.6961 14.387 29.6961 14.3493L29.653 13.9621C29.653 13.9244 29.6746 13.8922 29.7177 13.8814L29.7123 13.876ZM28.9691 13.8868L29.0929 13.8653C29.136 13.8653 29.1629 13.8868 29.1629 13.9298L29.206 14.3171C29.2168 14.3601 29.1845 14.387 29.1468 14.3977L29.0229 14.4085C28.9852 14.4193 28.9529 14.387 28.9421 14.3493L28.899 13.9729C28.899 13.9352 28.9314 13.8922 28.9691 13.8922V13.8868ZM28.2743 13.8868L28.3982 13.876C28.4359 13.8653 28.4682 13.8976 28.479 13.9406L28.5221 14.3225C28.5221 14.3547 28.4897 14.3977 28.4467 14.3977L28.3282 14.4139C28.2851 14.4246 28.2582 14.3978 28.2474 14.3547L28.2151 13.9675C28.2043 13.9298 28.2366 13.8975 28.2743 13.8868ZM27.5634 13.833L27.6873 13.8222C27.725 13.8115 27.7681 13.8438 27.7681 13.8814L27.8058 14.2687C27.8058 14.3063 27.7735 14.3386 27.7465 14.3493L27.6227 14.3601C27.585 14.3708 27.5419 14.3386 27.5419 14.3009L27.5042 13.9137C27.4934 13.8814 27.5203 13.8438 27.5634 13.833ZM26.8202 13.8438L26.9441 13.8222C26.9872 13.8115 27.0249 13.8438 27.0249 13.8814L27.0626 14.2687C27.0626 14.3063 27.0464 14.3386 27.0033 14.3493L26.8848 14.3601C26.8418 14.3708 26.8041 14.3386 26.8041 14.3009L26.7664 13.9137C26.7664 13.8814 26.7987 13.8438 26.8256 13.8438H26.8202ZM26.1309 13.8545L26.2493 13.8438C26.2924 13.833 26.3247 13.8653 26.3301 13.9029L26.3678 14.2902C26.3678 14.3224 26.3355 14.3601 26.2978 14.3601L26.1739 14.3816C26.1362 14.3816 26.1039 14.3601 26.1039 14.3225L26.0608 13.9406C26.0501 13.8976 26.0824 13.8653 26.1255 13.8599L26.1309 13.8545ZM25.4469 13.8438L25.5708 13.833C25.6085 13.8223 25.6515 13.8545 25.6515 13.8976L25.6892 14.274C25.6892 14.3117 25.6569 14.3547 25.63 14.3547L25.5115 14.3762C25.4684 14.3762 25.4307 14.3547 25.4307 14.3117L25.393 13.9244C25.393 13.8814 25.4146 13.8545 25.4523 13.8438H25.4469ZM24.7845 13.833L24.9083 13.8222C24.946 13.8115 24.9891 13.8438 24.9891 13.8814L25.0322 14.2687C25.0322 14.3009 24.9999 14.3386 24.9676 14.3386L24.8437 14.3601C24.8006 14.3708 24.7629 14.3386 24.7629 14.3009L24.7252 13.9137C24.7252 13.8707 24.7468 13.8438 24.7845 13.833ZM24.0736 13.8438L24.1974 13.833C24.2405 13.8223 24.2674 13.8545 24.2782 13.8976L24.3213 14.274C24.3213 14.3117 24.289 14.3547 24.2513 14.3547L24.1274 14.3762C24.0843 14.3762 24.0574 14.3547 24.0466 14.3117L24.0143 13.9244C24.0035 13.8814 24.0359 13.8545 24.0736 13.8438ZM23.4327 13.8545L23.5566 13.833C23.5996 13.833 23.6373 13.8545 23.6373 13.8976L23.6804 14.2848C23.6804 14.3225 23.6481 14.3547 23.6212 14.3655L23.4973 14.3762C23.4542 14.387 23.4165 14.3547 23.4165 14.3117L23.3734 13.9244C23.3734 13.8922 23.395 13.8545 23.4327 13.8545ZM22.7433 13.8545L22.8672 13.8438C22.9049 13.833 22.948 13.8653 22.948 13.9029L22.9911 14.2794C22.9911 14.3171 22.9695 14.3601 22.9318 14.3601L22.8079 14.3816C22.7649 14.3816 22.7272 14.3601 22.7272 14.3225L22.6895 13.9406C22.6895 13.8976 22.711 13.8653 22.7487 13.8599L22.7433 13.8545ZM22.0917 13.833L22.2155 13.8115C22.2532 13.8115 22.2963 13.8438 22.2963 13.8707L22.334 14.2579C22.3448 14.3009 22.3125 14.3386 22.2748 14.3386L22.1509 14.3601C22.1132 14.3601 22.0701 14.3332 22.0701 14.3009L22.027 13.9137C22.027 13.8707 22.0594 13.833 22.0863 13.833H22.0917ZM21.4077 13.8438L21.5316 13.8222C21.5747 13.8222 21.6124 13.8438 21.6124 13.8814L21.6554 14.2687C21.6554 14.3063 21.6231 14.3386 21.5962 14.3493L21.4723 14.3708C21.4292 14.3708 21.3915 14.3386 21.3915 14.3009L21.3485 13.9244C21.3485 13.8814 21.37 13.8438 21.4077 13.8438ZM20.756 13.79L20.8799 13.7792C20.923 13.7685 20.9499 13.8008 20.9607 13.8438L20.9984 14.231C20.9984 14.2633 20.9661 14.3009 20.9284 14.3117L20.8045 14.3225C20.7722 14.3332 20.7345 14.3009 20.7345 14.2633L20.6914 13.876C20.6806 13.833 20.713 13.8061 20.7507 13.7954L20.756 13.79ZM19.9321 13.7792L20.0559 13.7577C20.099 13.7577 20.1259 13.7792 20.1367 13.8222L20.169 14.2095C20.1798 14.2472 20.1475 14.2794 20.1098 14.2902L19.9859 14.3009C19.9428 14.3117 19.9159 14.2794 19.9051 14.2364L19.8728 13.8599C19.862 13.8223 19.8944 13.7792 19.9321 13.7792ZM19.2319 13.7792L19.3558 13.7577C19.3881 13.7577 19.4258 13.7792 19.4258 13.8222L19.4635 14.2095C19.4743 14.2472 19.442 14.2794 19.4043 14.2902L19.2804 14.3009C19.2427 14.3117 19.2104 14.2794 19.1996 14.2364L19.1619 13.8599C19.1619 13.8223 19.1942 13.7792 19.2211 13.7792H19.2319ZM18.3756 13.79L18.4995 13.7685C18.5426 13.7685 18.5695 13.79 18.5803 13.8276L18.6234 14.2149C18.6234 14.2579 18.591 14.2848 18.5533 14.2955L18.4295 14.3063C18.3972 14.3171 18.3595 14.2848 18.3595 14.2472L18.3164 13.8707C18.3056 13.8276 18.3379 13.79 18.3756 13.79ZM17.7832 13.7792L17.9071 13.7685C17.9394 13.7577 17.9771 13.79 17.9771 13.8276L18.0148 14.2041C18.0256 14.2418 17.9932 14.2848 17.9555 14.2848L17.8317 14.3063C17.7886 14.3063 17.7617 14.2848 17.7509 14.2472L17.7132 13.8599C17.7132 13.8223 17.7455 13.79 17.7832 13.7792ZM17.1531 13.8007L17.277 13.7792C17.32 13.7792 17.3577 13.8008 17.3577 13.8438L17.4008 14.231C17.4008 14.274 17.3793 14.3009 17.3416 14.3117L17.2177 14.3332C17.1746 14.3332 17.1369 14.3009 17.1369 14.2633L17.0939 13.8868C17.0939 13.8491 17.1262 13.8061 17.1585 13.8061L17.1531 13.8007ZM16.5822 13.8115L16.7061 13.79C16.7492 13.79 16.7761 13.8115 16.7761 13.8492L16.8192 14.2364C16.83 14.2794 16.7976 14.3063 16.7599 14.3171L16.6361 14.3278C16.593 14.3386 16.5661 14.3063 16.5553 14.2687L16.5122 13.8922C16.5122 13.8491 16.5445 13.8115 16.5822 13.8115ZM15.9306 13.7685L16.0544 13.747C16.0975 13.7362 16.1244 13.7685 16.1352 13.8115L16.1783 14.1987C16.1783 14.2364 16.146 14.2687 16.1083 14.2794L15.9844 14.2902C15.9413 14.3009 15.9144 14.2687 15.9144 14.231L15.8713 13.8438C15.8605 13.8115 15.8929 13.7685 15.9306 13.7685ZM15.3489 13.7685L15.4728 13.7577C15.5105 13.747 15.5536 13.7792 15.5536 13.8222L15.5913 14.2095C15.5913 14.2364 15.5589 14.2794 15.532 14.2902L15.4082 14.3009C15.3705 14.3117 15.3274 14.2794 15.3274 14.2364L15.2897 13.8492C15.2897 13.8115 15.3112 13.7792 15.3489 13.7685ZM13.9864 13.7308L14.1102 13.7201C14.1479 13.7093 14.1803 13.7416 14.1803 13.7792L14.2179 14.1665C14.2287 14.1987 14.1964 14.2364 14.1587 14.2364L14.0348 14.2579C13.9971 14.2686 13.9648 14.2364 13.954 14.1987L13.9163 13.8115C13.9163 13.7685 13.9487 13.7416 13.9864 13.7308ZM13.3132 13.7577L13.437 13.7416C13.4801 13.7416 13.507 13.7577 13.5178 13.8007L13.5609 14.188C13.5609 14.231 13.5286 14.2579 13.4909 14.2687L13.367 14.2794C13.3347 14.2902 13.297 14.2579 13.297 14.2149L13.2539 13.8384C13.2432 13.7954 13.2755 13.7577 13.3132 13.7577ZM12.6507 13.6986L12.7746 13.6878C12.8069 13.677 12.8446 13.7093 12.8446 13.747L12.8877 14.1342C12.8985 14.1665 12.8662 14.2041 12.8285 14.2149L12.7046 14.2256C12.6669 14.2364 12.6346 14.2041 12.6238 14.1665L12.5807 13.7792C12.5807 13.7416 12.613 13.7093 12.6507 13.6986ZM12.0475 13.6986L12.1714 13.6771C12.2145 13.6771 12.2414 13.7039 12.2522 13.7416L12.2899 14.1234C12.2899 14.1665 12.2576 14.2095 12.2199 14.2095L12.096 14.231C12.0637 14.231 12.026 14.2095 12.026 14.1718L11.9829 13.7846C11.9722 13.747 12.0045 13.7147 12.0422 13.7039L12.0475 13.6986ZM11.4282 13.7201L11.5521 13.6986C11.5898 13.6986 11.6221 13.7201 11.6329 13.7577L11.676 14.145C11.676 14.188 11.6436 14.2149 11.6059 14.2256L11.4821 14.2364C11.439 14.2471 11.4121 14.2149 11.4013 14.1772L11.369 13.8007C11.3582 13.7577 11.3905 13.7201 11.4282 13.7201ZM10.8466 13.7201L10.9704 13.7093C11.0135 13.6986 11.0405 13.7308 11.0512 13.7685L11.0889 14.1557C11.0889 14.1987 11.0566 14.2256 11.0189 14.2364L10.895 14.2472C10.8627 14.2579 10.825 14.2256 10.825 14.188L10.7819 13.8007C10.7712 13.7685 10.8035 13.7308 10.8412 13.7201H10.8466ZM10.1949 13.6771L10.3188 13.6663C10.3619 13.6555 10.3996 13.6878 10.3996 13.7308L10.4373 14.1181C10.4373 14.1503 10.4157 14.188 10.378 14.188L10.2542 14.2095C10.2111 14.2203 10.1734 14.188 10.1734 14.145L10.1303 13.7577C10.1303 13.7201 10.1626 13.6878 10.1895 13.6771H10.1949ZM40.2357 2.09214L36.5196 9.0033L36.315 8.90111L40.0311 1.97922L40.2357 2.09214ZM41.5013 2.62997L37.7853 9.54113L37.5806 9.43355L41.2967 2.52243L41.5013 2.63536V2.62997ZM41.2482 1.78557L37.5321 8.69673L37.3275 8.59454L41.0435 1.67265L41.2482 1.78557Z" fill="white"/>
</svg>
