<svg width="55" height="38" viewBox="0 0 55 38" fill="none" xmlns="http://www.w3.org/2000/svg">
<path fill-rule="evenodd" clip-rule="evenodd" d="M47.1473 29.4315C46.9331 28.8446 45.9814 28.5101 44.8974 28.5985C44.6201 28.6363 44.3113 28.6931 44.0277 28.7878C42.7043 29.1917 35.9419 31.5077 35.8789 31.5771L35.7213 31.6023L35.8158 31.697C36.5784 32.3533 36.9566 33.0222 36.7675 33.5839C36.5532 34.4169 35.4314 34.9217 33.6101 35.0732C32.003 35.1931 29.9673 35.0732 27.5977 34.6062C27.8372 34.6062 28.146 34.6062 28.4296 34.6441C30.1564 34.6441 31.7635 34.6441 33.0239 34.5494C34.9776 34.3916 35.8915 33.9562 36.0238 33.2115C36.0805 32.7256 35.8095 32.3154 35.1289 32.0062C34.3789 31.6339 32.8664 31.4193 31.3917 31.1732C30.3707 31.0154 29.4379 30.9019 28.7573 30.7062C26.4128 30.1004 24.0054 29.4756 21.1946 29.6902C20.766 29.747 20.2996 29.7849 19.8963 29.8795C17.7409 30.2519 15.6296 30.7378 13.4428 31.3941L13.1655 31.4193L16.43 36.1334C16.9909 36.0008 17.6086 35.8809 18.1947 35.8494C18.9699 35.7547 19.682 35.7926 20.3879 35.8872C21.2954 36.045 23.5453 36.4931 25.7007 36.9348C27.9254 37.427 30.0619 37.8309 30.8686 37.9508C31.3538 38.0076 31.7824 38.0076 32.2488 37.9887C33.3328 37.894 34.4735 37.2945 35.5259 36.7455C35.8726 36.5309 36.2066 36.3732 36.5154 36.1838L46.1831 30.946C47.2671 30.3023 47.2671 29.7407 47.1347 29.4315H47.1473ZM7.09636 8.56223C7.31064 9.14911 8.27489 9.48988 9.34627 9.39522C9.62988 9.36998 9.94499 9.30057 10.216 9.21853C11.5521 8.81465 18.3144 6.48603 18.3711 6.42923L18.5287 6.39137L18.4342 6.30933C17.659 5.65302 17.2934 4.97148 17.4825 4.42246C17.6968 3.57683 18.806 3.0846 20.6274 2.93315C22.2344 2.81325 24.2701 2.93314 26.6523 3.40013C26.4002 3.40013 26.0914 3.40013 25.8204 3.36227C24.0936 3.36227 22.4865 3.36227 21.2135 3.45693C19.2724 3.6147 18.3459 4.04382 18.2262 4.79478C18.1632 5.28701 18.4405 5.69089 19.1211 6.00011C19.8585 6.37244 21.371 6.587 22.8584 6.83311C23.873 6.99088 24.7995 7.10447 25.4801 7.28748C27.8246 7.90592 30.2446 8.53068 33.0555 8.3098C33.484 8.25301 33.9504 8.21514 34.3411 8.12048C36.5091 7.74816 38.6015 7.24961 40.7947 6.60593L41.0783 6.56807L37.8011 1.86665C37.2402 1.99917 36.6225 2.11907 36.0364 2.15063C35.2612 2.23266 34.5554 2.20742 33.8432 2.11276C32.9483 1.955 30.6984 1.49432 28.5304 1.0652C26.3057 0.572968 24.1818 0.169087 23.3752 0.0491854C22.8899 -0.00761025 22.4487 -0.00760871 21.9823 0.0113232C20.911 0.105983 19.7639 0.692872 18.7052 1.25452C18.3711 1.46908 18.0245 1.62684 17.7157 1.81616L8.05431 7.04136C6.97032 7.69767 6.97032 8.25932 7.09007 8.55592L7.09636 8.56223ZM47.0276 6.76369H42.6916C42.5026 6.76369 42.2379 6.60594 42.0992 6.41662L37.9901 0.490937C37.8578 0.301618 37.9082 0.143851 38.0973 0.143851H42.4206C42.6223 0.143851 42.887 0.301618 43.0131 0.490937L47.1347 6.41662C47.2671 6.60594 47.2167 6.76369 47.0276 6.76369ZM7.22241 31.2363H11.5458C11.7348 31.2363 12.0121 31.4067 12.1382 31.596L16.2599 37.5217C16.3922 37.711 16.3418 37.8688 16.1527 37.8688H11.8168C11.6277 37.8688 11.3504 37.711 11.2244 37.5217L7.11527 31.596C6.97032 31.4067 7.02073 31.2363 7.22241 31.2363ZM0.62392 20.4325L23.7974 21.9723V21.9155C23.7974 21.6757 23.9045 21.4611 24.0684 21.3097C24.4591 22.9189 25.9024 24.1116 27.6292 24.1116C29.356 24.1116 30.6543 23.0514 31.127 21.5684C31.1774 21.6757 31.1963 21.783 31.1963 21.9155V21.9723L54.395 20.4325L55 20.8112L34.4798 23.1713V26.5601H34.5617V26.2951H34.7193V26.2257C34.7193 26.0237 34.8894 25.8533 35.0911 25.8533C35.2928 25.8533 35.4629 26.0174 35.4629 26.2257V27.0271C35.4629 27.2291 35.2991 27.3994 35.0911 27.3994C34.8894 27.3994 34.7193 27.2354 34.7193 27.0271V26.9577H34.5617V26.6485H34.4798V26.8504H34.171V26.6485H34.089V26.9577H33.9315V27.0271C33.9315 27.2291 33.7613 27.3994 33.5596 27.3994C33.358 27.3994 33.1878 27.2354 33.1878 27.0271V26.2257C33.1878 26.0237 33.358 25.8533 33.5596 25.8533C33.7613 25.8533 33.9315 26.0174 33.9315 26.2257V26.2951H34.089V26.5601H34.171V23.2092L31.1837 23.5563C31.127 23.9349 30.7929 24.2378 30.3833 24.2378H27.73V26.0364H27.7804V25.8597H27.8876V25.8218C27.8876 25.6893 27.9821 25.582 28.1145 25.582C28.2468 25.582 28.354 25.6893 28.354 25.8218V26.333C28.354 26.4529 28.2468 26.5601 28.1145 26.5601C27.9821 26.5601 27.8876 26.4529 27.8876 26.333V26.2825H27.7804V26.0805H27.73V26.2131H27.5284V26.0805H27.4779V26.2825H27.3708V26.333C27.3708 26.4529 27.2637 26.5601 27.1439 26.5601C27.0116 26.5601 26.9044 26.4529 26.9044 26.333V25.8218C26.9044 25.6893 27.0116 25.582 27.1439 25.582C27.2637 25.582 27.3708 25.6893 27.3708 25.8218V25.8597H27.4779V26.0364H27.5284V24.2378H24.5978C24.1945 24.2378 23.8604 23.9412 23.7974 23.5563L21.2828 23.2597V26.5601H21.3647V26.2951H21.5223V26.2257C21.5223 26.0237 21.6861 25.8533 21.8941 25.8533C22.0958 25.8533 22.2659 26.0174 22.2659 26.2257V27.0271C22.2659 27.2291 22.0958 27.3994 21.8941 27.3994C21.6924 27.3994 21.5223 27.2354 21.5223 27.0271V26.9577H21.3647V26.6485H21.2828V26.8504H20.974V26.6485H20.9047V26.9577H20.7408V27.0271C20.7408 27.2291 20.5706 27.3994 20.369 27.3994C20.1673 27.3994 19.9971 27.2354 19.9971 27.0271V26.2257C19.9971 26.0237 20.1673 25.8533 20.369 25.8533C20.5706 25.8533 20.7408 26.0174 20.7408 26.2257V26.2951H20.9047V26.5601H20.974V23.2218L0 20.8112L0.605013 20.4325H0.62392ZM37.5931 22.8621C38.3683 22.8621 38.9985 23.4932 38.9985 24.2694C38.9985 25.0456 38.3683 25.6766 37.5931 25.6766C36.8179 25.6766 36.1877 25.0456 36.1877 24.2694C36.1877 23.4932 36.8179 22.8621 37.5931 22.8621ZM37.5931 23.3543C38.1036 23.3543 38.5132 23.7708 38.5132 24.2757C38.5132 24.7805 38.1099 25.1907 37.5931 25.1907C37.0763 25.1907 36.6856 24.7742 36.6856 24.2757C36.6856 23.7771 37.0889 23.3543 37.5931 23.3543ZM17.9174 22.9C18.6926 22.9 19.3228 23.5184 19.3228 24.3072C19.3228 25.0961 18.6926 25.7145 17.9174 25.7145C17.1422 25.7145 16.512 25.0834 16.512 24.3072C16.512 23.531 17.1296 22.9 17.9174 22.9ZM17.9174 23.3922C18.4153 23.3922 18.8249 23.7961 18.8249 24.3072C18.8249 24.8184 18.4216 25.216 17.9174 25.216C17.4132 25.216 16.9972 24.8121 16.9972 24.3072C16.9972 23.8024 17.4006 23.3922 17.9174 23.3922ZM28.0514 16.8923C29.4442 17.05 30.5976 18.0155 31.0261 19.3155L37.6246 18.899L37.8515 19.0316L31.1459 19.7699C31.1837 19.9845 31.2026 20.2116 31.2026 20.4388C31.2026 22.4204 29.6081 24.017 27.6292 24.017C25.6503 24.017 24.0684 22.4204 24.0684 20.4388C24.0684 20.2116 24.0936 19.9845 24.1251 19.7573L17.4573 19.0316L17.6842 18.899L24.2449 19.3155C24.6734 18.0155 25.8267 17.05 27.2195 16.8923L27.6229 8.6632L28.0388 16.8923H28.0514ZM25.562 18.6782L29.6459 18.6655L30.2068 19.6563H25.0705L25.5557 18.6782H25.562Z" fill="white"/>
</svg>
