<svg width="32" height="50" viewBox="0 0 32 50" fill="none" xmlns="http://www.w3.org/2000/svg">
<path fill-rule="evenodd" clip-rule="evenodd" d="M27.6459 6.03563C27.7935 3.82628 26.573 -0.0198445 22.7241 0.55852C19.8517 1.39715 1.92449 6.16288 0.851588 7.29069C0.312296 7.85748 -0.00560199 8.63828 7.47632e-05 9.4769L0.550738 46.4864C0.573445 47.3251 0.914047 48.0943 1.47037 48.6379C2.01534 49.1874 2.7817 49.5113 3.60483 49.4997L29.0367 49.1064C29.8655 49.0948 30.6148 48.7363 31.1484 48.1753C31.6877 47.6085 32.0056 46.8277 31.9999 45.989L31.4436 8.9795C31.4323 8.13509 31.0803 7.37165 30.5297 6.82799C29.9733 6.27854 29.2183 5.95466 28.3952 5.96623L27.6459 6.02984V6.03563ZM7.73181 6.49831L22.8377 2.06227C25.8293 1.51282 25.9485 4.69383 25.8861 6.00672L7.73181 6.49831ZM9.8152 32.8717H12.3811C12.7671 34.0053 13.2723 35.0464 13.9024 35.9775C12.699 35.5843 11.6261 34.9076 10.7575 34.0169C10.4056 33.6699 10.0877 33.2882 9.8152 32.8717ZM21.7193 34.0169C20.7997 34.9596 19.6416 35.671 18.353 36.0412C18.9945 35.0984 19.5338 34.04 19.9085 32.8717H22.656C22.3892 33.2882 22.0656 33.6699 21.725 34.0169H21.7193ZM14.7653 36.1916C14.0273 35.243 13.4142 34.1152 12.9828 32.8717H15.9461V36.3361C15.5374 36.313 15.1513 36.2667 14.7653 36.1916ZM8.48683 28.7249H11.6828C11.7055 29.9683 11.8872 31.1598 12.1994 32.2876H9.46325C8.88422 31.2292 8.52656 30.0262 8.48683 28.7249ZM16.5308 23.9823V20.5294C16.8487 20.541 17.1722 20.5815 17.4845 20.6278C18.2338 21.5879 18.8582 22.7272 19.2954 23.9823H16.5308ZM19.4827 24.5606C19.8119 25.6769 19.9993 26.8799 20.0277 28.1349H16.5308V24.5606H19.4827ZM15.9404 23.9823H12.9771C13.4199 22.7388 14.016 21.6225 14.7596 20.6682C15.1456 20.5931 15.5317 20.5468 15.9404 20.5236V23.9765V23.9823ZM15.9404 24.5606V28.1349H12.2505C12.2846 26.8799 12.4662 25.6769 12.8011 24.5606H15.9461H15.9404ZM11.6828 28.1349H8.48683C8.53224 26.8336 8.88422 25.6248 9.46325 24.5606H12.1994C11.8872 25.6884 11.7055 26.8799 11.6828 28.1349ZM12.2505 28.7249H15.9404V32.2876H12.7898C12.4662 31.1713 12.2846 29.9857 12.2505 28.7249ZM16.5308 32.866H19.2954C18.8582 34.121 18.2451 35.2719 17.4845 36.232C17.1722 36.2725 16.8487 36.3072 16.5308 36.3304V32.866ZM16.5308 32.2876V28.7249H20.0277C19.9993 29.9857 19.8119 31.1713 19.4827 32.2876H16.5308ZM20.5954 28.7249H23.9844C23.9333 30.0378 23.5756 31.2523 22.9739 32.3223V32.2876H20.0787C20.391 31.1598 20.5726 29.9683 20.5954 28.7249ZM20.5954 28.1349C20.5726 26.8799 20.391 25.6884 20.0674 24.5606H22.9966C23.5756 25.619 23.9333 26.8336 23.9844 28.1349H20.5954ZM22.6446 23.9823H19.8971C19.5111 22.8255 18.9831 21.7614 18.3417 20.8244C19.6303 21.1946 20.7883 21.8944 21.708 22.8371C22.0543 23.1841 22.3608 23.5774 22.639 23.9823H22.6446ZM10.7518 22.8371C11.6204 21.9522 12.6933 21.2871 13.8968 20.9054C13.261 21.8134 12.7614 22.8603 12.3868 23.9881H9.82085C10.099 23.5832 10.4112 23.1899 10.7575 22.8429L10.7518 22.8371Z" fill="white"/>
</svg>
