<svg width="58" height="33" viewBox="0 0 58 33" fill="none" xmlns="http://www.w3.org/2000/svg">
<path fill-rule="evenodd" clip-rule="evenodd" d="M19.0576 8.07365L25.0782 8.46469V8.44936C25.0782 8.38802 25.1088 8.33436 25.1471 8.28836C25.2467 8.71006 25.622 9.02441 26.074 9.02441C26.4952 9.02441 26.8553 8.73306 26.9702 8.35736C26.9855 8.38803 27.0008 8.41102 27.0008 8.44169V8.45701L33.0214 8.066L33.1823 8.15033L27.8587 8.77138V9.65313H27.874V9.58411H27.92V9.56878C27.92 9.51511 27.9659 9.4691 28.0042 9.4691C28.0655 9.4691 28.1038 9.51511 28.1038 9.56878V9.77579C28.1038 9.82179 28.0578 9.86014 28.0042 9.86014C27.9583 9.86014 27.92 9.81412 27.92 9.77579V9.74514H27.874V9.67613H27.8587V9.73746H27.7744V9.67613H27.7591V9.74514H27.7132V9.77579C27.7132 9.82179 27.6672 9.86014 27.6136 9.86014C27.5523 9.86014 27.5293 9.81412 27.5293 9.77579V9.56878C27.5293 9.51511 27.56 9.4691 27.6136 9.4691C27.6749 9.4691 27.7132 9.51511 27.7132 9.56878V9.58411H27.7591V9.65313H27.7744V8.77138L26.9931 8.87105C26.9778 8.97073 26.8936 9.04741 26.7863 9.04741H26.0893V9.5151H26.1046V9.4691H26.1352V9.45378C26.1352 9.45378 26.1659 9.39242 26.1888 9.39242C26.2348 9.39242 26.2501 9.42311 26.2501 9.45378V9.58411C26.2501 9.63011 26.2348 9.63778 26.1888 9.63778C26.1888 9.63778 26.1352 9.62244 26.1352 9.58411V9.56878H26.1046V9.52278H26.0893V9.55345H26.0433V9.52278H26.028V9.56878H25.9974V9.58411C25.9974 9.63011 25.9667 9.63778 25.9437 9.63778C25.9437 9.63778 25.8825 9.62244 25.8825 9.58411V9.45378C25.8825 9.45378 25.9131 9.39242 25.9437 9.39242C25.9437 9.39242 25.9974 9.42311 25.9974 9.45378V9.4691H26.028V9.5151H26.0433V9.04741H25.2773C25.1778 9.04741 25.0858 8.9784 25.0705 8.87105L24.4194 8.78673V9.66078H24.4348V9.59178H24.4807V9.57645C24.4807 9.52278 24.5267 9.47678 24.5803 9.47678C24.6263 9.47678 24.6646 9.52278 24.6646 9.57645V9.78346C24.6646 9.82947 24.6186 9.86782 24.5803 9.86782C24.519 9.86782 24.4807 9.8218 24.4807 9.78346V9.75279H24.4348V9.68378H24.4194V9.74514H24.3352V9.68378H24.3199V9.75279H24.2739V9.78346C24.2739 9.82947 24.2279 9.86782 24.1743 9.86782C24.1284 9.86782 24.0901 9.8218 24.0901 9.78346V9.57645C24.0901 9.52278 24.136 9.47678 24.1743 9.47678C24.2356 9.47678 24.2739 9.52278 24.2739 9.57645V9.59178H24.3199V9.66078H24.3352V8.78673L18.8891 8.15033L19.0499 8.066L19.0576 8.07365ZM45.6294 0C47.3835 0 48.8006 1.41846 48.8006 3.17427C48.8006 4.93008 47.3835 6.34851 45.6294 6.34851C43.8753 6.34851 42.4583 4.93008 42.4583 3.17427C42.4583 1.41846 43.8753 0 45.6294 0ZM56.0927 0.958411C56.8051 0.958411 57.3642 1.52579 57.3642 2.23118C57.3642 2.85223 56.897 3.38895 56.3072 3.48095V5.3901C57.1038 5.48977 57.7089 6.17217 57.7089 7.00023V7.06159C57.8851 7.23793 58 7.48327 58 7.74396V8.49536C58 9.03207 57.5634 9.45378 57.0272 9.45378H49.7044C49.9036 16.592 50.2713 23.7532 50.2713 30.8838C50.2713 31.5815 49.7044 32.1566 49.0151 32.1566H48.1189C47.4218 32.1566 46.8473 31.5739 46.8473 30.8838L46.3112 19.4136H45.5452L44.9247 29.427V30.8915C44.9247 31.5892 44.3426 32.1643 43.6532 32.1643H42.757C42.06 32.1643 41.5008 31.5816 41.5008 30.8915C41.5008 23.7379 41.8148 16.638 42.2974 9.46145H34.99C34.4691 9.46145 34.0325 9.03975 34.0325 8.50304V7.75164C34.0325 7.49095 34.1321 7.24558 34.3082 7.06924V7.00791C34.3082 6.17984 34.9287 5.50512 35.7253 5.39777V3.48863C35.1202 3.40429 34.6529 2.86757 34.6529 2.23886C34.6529 1.5258 35.2351 0.966085 35.9245 0.966085C36.6138 0.966085 37.196 1.53347 37.196 2.23886C37.196 2.85991 36.7364 3.39662 36.1389 3.48863V5.39777C36.859 5.49745 37.4258 6.06483 37.5254 6.78555H54.5071C54.6067 6.05716 55.1735 5.49745 55.9012 5.39777V3.48863C55.2961 3.40429 54.8442 2.86757 54.8442 2.23886C54.8442 1.5258 55.411 0.966085 56.108 0.966085L56.0927 0.958411ZM18.644 11.1406H25.645L25.3999 12.8197H27.108L26.8629 11.1406H33.8716L41.0795 19.5592C40.934 23.3392 40.8497 27.1115 40.8497 30.8762C40.8497 31.9343 41.7076 32.7853 42.7493 32.7853H43.6455C44.7026 32.7853 45.5528 31.9343 45.5528 30.8762V29.4424L45.8286 25.095L45.9435 25.2254L46.2039 30.9068C46.2039 31.9343 47.0618 32.793 48.1112 32.793H49.0074C50.0032 32.793 50.8151 32.0109 50.8994 31.0449L52.4773 32.9003L30.1566 33L29.3294 27.5486H23.1632L22.336 33L0 32.9003L18.6286 11.1482L18.644 11.1406ZM29.0843 25.8464L28.0425 18.9459H24.4807L23.4237 25.8464H29.0843ZM27.8817 17.8341L27.1999 13.4024H25.3003L24.6339 17.8341H27.874H27.8817ZM28.6476 8.68705C28.8545 8.68705 29.0077 8.84806 29.0077 9.04741C29.0077 9.24676 28.8468 9.4231 28.6476 9.4231C28.4485 9.4231 28.2876 9.24676 28.2876 9.04741C28.2876 8.84806 28.4485 8.68705 28.6476 8.68705ZM28.6476 8.81738C28.7779 8.81738 28.8774 8.91707 28.8774 9.04741C28.8774 9.17775 28.7779 9.29277 28.6476 9.29277C28.5174 9.29277 28.4179 9.17775 28.4179 9.04741C28.4179 8.91707 28.5174 8.81738 28.6476 8.81738ZM23.5386 8.70237C23.7377 8.70237 23.8986 8.86339 23.8986 9.06274C23.8986 9.26208 23.7377 9.4231 23.5386 9.4231C23.3394 9.4231 23.1786 9.26208 23.1786 9.06274C23.1786 8.86339 23.3394 8.70237 23.5386 8.70237ZM23.5386 8.83273C23.6688 8.83273 23.7684 8.93239 23.7684 9.06274C23.7684 9.19308 23.6688 9.29277 23.5386 9.29277C23.4083 9.29277 23.3088 9.19308 23.3088 9.06274C23.3088 8.93239 23.4083 8.83273 23.5386 8.83273ZM26.1735 7.13826C26.5335 7.18427 26.8399 7.42961 26.9395 7.77464L28.663 7.65963L28.7166 7.69029L26.9625 7.88964C26.9778 7.95098 26.9931 8.00466 26.9931 8.066C26.9931 8.57204 26.5718 8.99373 26.0663 8.99373C25.5608 8.99373 25.1395 8.57204 25.1395 8.066C25.1395 8.01233 25.1395 7.93565 25.1548 7.88964L23.416 7.69029L23.4696 7.65963L25.1778 7.77464C25.2773 7.42961 25.5837 7.18427 25.9437 7.13826L26.0586 5.00674L26.1582 7.13826H26.1735ZM25.5224 7.59828H26.5948L26.7404 7.85897H25.3922L25.5224 7.59828Z" fill="white"/>
</svg>
