<svg width="69" height="29" viewBox="0 0 69 29" fill="none" xmlns="http://www.w3.org/2000/svg">
<path fill-rule="evenodd" clip-rule="evenodd" d="M0.116291 19.3213C0.62345 18.7592 1.3454 18.3585 2.27022 18.1432C3.7022 16.146 5.42654 15.9965 9.62103 15.4404C19.3644 15.7812 29.0064 16.1221 38.714 17.037C42.1985 15.7812 45.6949 14.5135 49.1794 13.2638C52.5147 9.08392 56.035 4.86821 59.3822 0.718262C60.7127 0.795998 61.7032 0.879706 62.9442 0.933524C61.554 6.60831 60.1221 12.2771 58.7259 18.0894C61.6256 17.342 64.2867 16.6902 67.1924 15.9427C67.7652 15.8171 68.5886 15.7513 68.6841 15.9427C65.8977 17.318 63.0457 18.7651 60.2593 20.1465C60.1101 21.3783 59.4598 22.2573 59.1197 22.5085C54.9729 23.537 50.8082 24.4519 46.6376 25.313C43.0994 25.9827 22.2284 27.2026 20.343 26.5089C20.4563 26.9394 20.4444 27.2923 20.343 27.5374C20.2296 27.7766 20.0029 27.9201 19.7224 27.956C19.2391 28.0816 19.1377 28.0936 18.6604 28.2072C18.6186 28.3866 18.3919 28.841 18.1174 28.841C15.7487 29.3732 10.9695 28.4464 10.2356 27.8603C9.56137 27.4537 9.3585 25.2292 10.528 24.0632C6.90028 23.4174 3.24277 23.7224 0.253522 20.278C-0.0030402 19.8714 -0.0865721 19.8714 0.104358 19.3272L0.116291 19.3213ZM0.39672 19.9551L1.60197 18.8847L2.88478 18.807L1.67953 19.8834L0.39672 19.9611V19.9551ZM9.84776 18.8369L10.0387 18.8249C10.1043 18.8249 10.164 18.8728 10.164 18.9266L10.1879 19.5365C10.1879 19.5904 10.1342 19.6501 10.0745 19.6501L9.88356 19.6621C9.81793 19.6741 9.7702 19.6143 9.7702 19.5604L9.74633 18.9505C9.74633 18.8967 9.79406 18.8369 9.84776 18.8369ZM17.7177 19.4707L17.9086 19.4588C17.9623 19.4588 18.022 19.5066 18.022 19.5724L18.0458 20.1704C18.0458 20.2362 18.0041 20.284 17.9325 20.296L17.7415 20.3079C17.6819 20.3079 17.6282 20.2601 17.6282 20.1943L17.6043 19.5963C17.6043 19.5305 17.652 19.4827 17.7177 19.4707ZM42.3119 21.3424L42.5028 21.3305C42.5684 21.3305 42.6281 21.3783 42.6281 21.4441L42.6519 22.042C42.6519 22.1078 42.5923 22.1557 42.5386 22.1676L42.3477 22.1796C42.282 22.1796 42.2343 22.1317 42.2343 22.0779L42.2104 21.468C42.2104 21.4142 42.2582 21.3544 42.3119 21.3424ZM41.1961 21.2886L41.387 21.2766C41.4527 21.2647 41.5004 21.3245 41.5004 21.3783L41.5243 21.9882C41.5362 22.048 41.4765 22.1018 41.4228 22.1018L41.2319 22.1138C41.1663 22.1258 41.1066 22.066 41.1066 22.0121L41.0827 21.4022C41.0827 21.3424 41.1364 21.2886 41.1961 21.2886ZM40.0326 21.2109L40.2236 21.1989C40.2773 21.1989 40.3369 21.2408 40.3369 21.3125L40.3608 21.9105C40.3608 21.9763 40.3131 22.0241 40.2474 22.0361L40.0565 22.048C40.0028 22.048 39.9431 22.0002 39.9431 21.9344L39.9193 21.3364C39.9193 21.2706 39.967 21.2228 40.0326 21.2109ZM38.9527 21.1511L39.1436 21.1391C39.2033 21.1271 39.257 21.175 39.257 21.2407L39.2808 21.8387C39.2808 21.9105 39.2331 21.9643 39.1675 21.9643L38.9765 21.9763C38.9228 21.9763 38.8632 21.9344 38.8632 21.8746L38.8393 21.2647C38.8393 21.2109 38.887 21.1511 38.9527 21.1511ZM37.8489 20.9956L38.0398 20.9836C38.1054 20.9836 38.1532 21.0315 38.1532 21.0853L38.177 21.6952C38.177 21.749 38.1353 21.8088 38.0756 21.8088L37.8847 21.8208C37.819 21.8327 37.7594 21.7849 37.7594 21.7191L37.7355 21.1212C37.7355 21.0554 37.7892 20.9956 37.8489 20.9956ZM36.6973 20.9179L36.8882 20.9059C36.9479 20.9059 37.0016 20.9478 37.0016 21.0075L37.0255 21.6175C37.0255 21.6713 36.9777 21.7311 36.9121 21.7311L36.7212 21.755C36.6675 21.755 36.6078 21.7072 36.6078 21.6414L36.584 21.0434C36.584 20.9776 36.6257 20.9238 36.6973 20.9238V20.9179ZM35.6054 20.87L35.7964 20.8581C35.8501 20.8581 35.9097 20.9059 35.9097 20.9597L35.9336 21.5696C35.9336 21.6235 35.8859 21.6833 35.8202 21.6833L35.6293 21.6952C35.5756 21.7072 35.5159 21.6593 35.5159 21.5936L35.4921 20.9836C35.4921 20.9298 35.5398 20.87 35.6054 20.87ZM34.5434 20.7803L34.7343 20.7684C34.7999 20.7684 34.8477 20.8162 34.8477 20.87L34.8715 21.48C34.8715 21.5398 34.8238 21.5936 34.7701 21.5936L34.5792 21.6055C34.5135 21.6175 34.4539 21.5696 34.4539 21.5039L34.43 20.9059C34.43 20.8341 34.4837 20.7803 34.5434 20.7803ZM33.5052 20.6906L33.6961 20.6786C33.7618 20.6786 33.8214 20.7205 33.8214 20.7923L33.8453 21.3902C33.8453 21.456 33.7916 21.5039 33.7319 21.5158L33.541 21.5278C33.4754 21.5278 33.4276 21.4859 33.4276 21.4261L33.4038 20.8162C33.4038 20.7564 33.4515 20.7026 33.5052 20.6906ZM32.3895 20.6368L32.5804 20.6248C32.646 20.6248 32.6937 20.6727 32.7057 20.7265L32.7176 21.3364C32.7295 21.3962 32.6699 21.45 32.6162 21.45L32.4253 21.462C32.3596 21.474 32.3119 21.4201 32.3 21.3604L32.288 20.7504C32.2761 20.6966 32.3298 20.6368 32.3895 20.6368ZM31.399 20.571L31.5899 20.5591C31.6436 20.5591 31.7033 20.6069 31.7033 20.6727L31.7272 21.2707C31.7272 21.3364 31.6794 21.3843 31.6138 21.3962L31.4229 21.4082C31.3692 21.4082 31.3095 21.3603 31.3095 21.2946L31.2856 20.6966C31.2856 20.6248 31.3334 20.583 31.399 20.571ZM30.3131 20.5112L30.504 20.4993C30.5696 20.4873 30.6174 20.5352 30.6174 20.6009L30.6412 21.1989C30.6412 21.2647 30.5935 21.3245 30.5398 21.3245L30.3489 21.3364C30.2833 21.3364 30.2236 21.2946 30.2236 21.2348L30.1997 20.6248C30.1997 20.571 30.2534 20.5112 30.3131 20.5112ZM29.2988 20.3976L29.4897 20.3856C29.5553 20.3856 29.6031 20.4275 29.615 20.4873L29.6389 21.0972C29.6389 21.1511 29.5852 21.2108 29.5255 21.2228L29.3346 21.2348C29.2689 21.2348 29.2212 21.1929 29.2093 21.1212L29.1973 20.5232C29.1854 20.4574 29.2451 20.4096 29.2988 20.3976ZM28.2248 20.3438L28.4276 20.3318C28.4813 20.3199 28.541 20.3797 28.541 20.4335L28.5649 21.0434C28.5649 21.1032 28.5171 21.157 28.4515 21.157L28.2606 21.169C28.195 21.181 28.1472 21.1212 28.1472 21.0673L28.1234 20.4574C28.1234 20.4036 28.1651 20.3438 28.2248 20.3438ZM27.2105 20.2003L27.4014 20.1883C27.467 20.1883 27.5267 20.2302 27.5267 20.3019L27.5506 20.8999C27.5506 20.9657 27.5028 21.0135 27.4372 21.0255L27.2463 21.0374C27.1806 21.0374 27.1329 20.9896 27.1329 20.9358L27.109 20.3258C27.109 20.272 27.1508 20.2122 27.2105 20.2003ZM25.9277 20.0867L26.1186 20.0747C26.1842 20.0747 26.232 20.1166 26.232 20.1764L26.2558 20.7863C26.2558 20.8401 26.2081 20.8999 26.1544 20.9119L25.9635 20.9238C25.8978 20.9238 25.8382 20.876 25.8382 20.8102L25.8143 20.2122C25.8143 20.1405 25.874 20.0986 25.9277 20.0867ZM24.8238 20.003L25.0148 19.991C25.0804 19.991 25.1401 20.0328 25.1401 20.1046L25.1639 20.7026C25.1639 20.7684 25.1102 20.8162 25.0506 20.8281L24.8596 20.8401C24.794 20.8401 24.7463 20.7983 24.7463 20.7265L24.7224 20.1285C24.7224 20.0627 24.7701 20.0149 24.8238 20.003ZM23.5052 19.9372L23.6962 19.9252C23.7558 19.9133 23.8095 19.9611 23.8095 20.0269L23.8334 20.6248C23.8334 20.6966 23.7857 20.7504 23.72 20.7504L23.5291 20.7624C23.4754 20.7624 23.4157 20.7205 23.4157 20.6607L23.3919 20.0508C23.3919 19.997 23.4396 19.9372 23.5052 19.9372ZM22.5685 19.8594L22.7594 19.8475C22.825 19.8475 22.8847 19.8953 22.8847 19.9611L22.9086 20.5591C22.9086 20.6248 22.8549 20.6727 22.7952 20.6846L22.6043 20.6966C22.5386 20.6966 22.4909 20.6488 22.4909 20.5949L22.4671 19.985C22.4671 19.9133 22.5148 19.8714 22.5685 19.8594ZM21.5959 19.8236L21.7869 19.8116C21.8525 19.7996 21.9002 19.8594 21.9002 19.9132L21.9241 20.5232C21.9241 20.577 21.8764 20.6368 21.8227 20.6368L21.6198 20.6488C21.5661 20.6488 21.5064 20.6069 21.5064 20.5471L21.4826 19.9372C21.4826 19.8834 21.5303 19.8236 21.5959 19.8236ZM20.695 19.7697L20.8859 19.7578C20.9396 19.7578 20.9993 19.8056 20.9993 19.8714L21.0231 20.4694C21.0231 20.5352 20.9814 20.583 20.9217 20.5949L20.7188 20.6069C20.6592 20.6069 20.6055 20.5591 20.6055 20.5053L20.5816 19.8953C20.5816 19.8235 20.6293 19.7817 20.695 19.7697ZM19.6926 19.6322L19.8835 19.6202C19.9372 19.6202 19.9969 19.6681 19.9969 19.7339L20.0208 20.3318C20.0208 20.4036 19.973 20.4454 19.9074 20.4574L19.7165 20.4694C19.6628 20.4694 19.6031 20.4215 19.6031 20.3677L19.5792 19.7578C19.5792 19.704 19.627 19.6442 19.6926 19.6322ZM18.7797 19.5903L18.9826 19.5784C19.0363 19.5784 19.0959 19.6202 19.0959 19.68L19.1198 20.29C19.1198 20.3438 19.0721 20.4036 19.0064 20.4036L18.8155 20.4156C18.7618 20.4275 18.7021 20.3797 18.7021 20.3139L18.6783 19.7159C18.6783 19.6501 18.726 19.5903 18.7797 19.5903ZM16.6496 19.3751L16.8406 19.3631C16.9062 19.3631 16.9539 19.405 16.9659 19.4767L16.9778 20.0747C16.9897 20.1405 16.936 20.1883 16.8764 20.2003L16.6854 20.2122C16.6198 20.2122 16.5721 20.1644 16.5601 20.0986L16.5482 19.5006C16.5363 19.4349 16.5959 19.387 16.6496 19.3751ZM15.5995 19.3392L15.8024 19.3272C15.8561 19.3272 15.9158 19.3751 15.9158 19.4409L15.9396 20.0388C15.9396 20.1046 15.8979 20.1524 15.8263 20.1644L15.6353 20.1764C15.5697 20.1764 15.522 20.1285 15.522 20.0627L15.4981 19.4648C15.4981 19.393 15.5399 19.3512 15.5995 19.3392ZM14.5733 19.1957L14.7642 19.1718C14.8179 19.1718 14.8776 19.2196 14.8776 19.2854L14.9014 19.8834C14.9014 19.9491 14.8537 20.0089 14.7881 20.0089L14.5971 20.0209C14.5434 20.0209 14.4838 19.973 14.4838 19.9192L14.4599 19.3093C14.4599 19.2555 14.5076 19.1957 14.5733 19.1957ZM13.6365 19.1179L13.8275 19.106C13.8931 19.106 13.9408 19.1478 13.9528 19.2076L13.9766 19.8176C13.9766 19.8893 13.9229 19.9312 13.8633 19.9432L13.6723 19.9551C13.6067 19.9551 13.559 19.9132 13.559 19.8415L13.5351 19.2435C13.5232 19.1777 13.5769 19.1299 13.6365 19.1179ZM12.664 19.0821L12.8549 19.0701C12.9086 19.0582 12.9683 19.106 12.9683 19.1718L12.9921 19.7697C12.9921 19.8355 12.9504 19.8953 12.8788 19.8953L12.6878 19.9073C12.6341 19.9073 12.5745 19.8594 12.5745 19.8056L12.5506 19.1957C12.5506 19.1419 12.5983 19.0821 12.664 19.0821ZM11.763 19.0223L11.954 19.0103C12.0077 19.0103 12.0673 19.0581 12.0673 19.112L12.0912 19.7219C12.0912 19.7877 12.0435 19.8355 11.9778 19.8475L11.7869 19.8594C11.7332 19.8594 11.6735 19.8116 11.6735 19.7458L11.6497 19.1478C11.6497 19.0821 11.6974 19.0342 11.763 19.0223ZM10.7487 18.8907L10.9396 18.8788C11.0053 18.8788 11.0649 18.9266 11.0649 18.9924L11.0888 19.5903C11.0888 19.6561 11.0351 19.704 10.9754 19.7159L10.7845 19.7279C10.7189 19.7279 10.6711 19.68 10.6711 19.6143L10.6473 19.0163C10.6473 18.9505 10.695 18.9027 10.7487 18.8907ZM58.9049 3.96526L52.3655 14.4059L52.0612 14.2145L58.6006 3.77391L58.9049 3.96526ZM60.8082 4.94593L54.2689 15.3746L53.9646 15.1833L60.5039 4.75459L60.8082 4.94593ZM60.5039 3.58853L53.9646 14.0292L53.6603 13.8378L60.1996 3.39718L60.5039 3.58853Z" fill="white"/>
</svg>
