<svg width="47" height="28" viewBox="0 0 47 28" fill="none" xmlns="http://www.w3.org/2000/svg">
<path fill-rule="evenodd" clip-rule="evenodd" d="M46.9232 18.0601C46.6667 17.3803 45.5451 16.9854 44.2827 17.0953C43.9608 17.1303 43.5986 17.2003 43.2767 17.3003C41.7175 17.7701 33.8109 20.4644 33.7354 20.5394L33.5544 20.5794L33.66 20.6844C34.5603 21.4391 34.9979 22.2339 34.7816 22.8738C34.5352 23.8485 33.2325 24.4233 31.0949 24.6033C29.2238 24.7432 26.8347 24.6033 24.0533 24.0634C24.345 24.0634 24.6971 24.0634 25.0341 24.1034C27.056 24.1034 28.9321 24.1034 30.4108 23.9885C32.6943 23.8085 33.7757 23.3086 33.9216 22.4489C33.997 21.874 33.665 21.3992 32.8754 21.0393C32.0103 20.6144 30.2348 20.3594 28.5046 20.0745C27.3176 19.8946 26.2261 19.7546 25.4365 19.5347C22.6903 18.8149 19.8686 18.1001 16.5742 18.355C16.0712 18.42 15.528 18.46 15.0653 18.5699C12.5354 18.9948 10.0759 19.5697 7.51078 20.3295L7.18384 20.3694L11.0164 25.8279C11.6602 25.688 12.3845 25.533 13.0686 25.498C13.9789 25.3931 14.8088 25.4331 15.6337 25.538C16.6899 25.718 19.3204 26.2578 21.8504 26.7577C24.4557 27.3325 26.9454 27.7974 27.886 27.9374C28.4644 28.0124 28.9673 28.0124 29.5105 27.9774C30.773 27.8724 32.1159 27.1826 33.3431 26.5428C33.7405 26.2878 34.1428 26.1079 34.505 25.8929L45.8167 19.8196C47.0791 19.0748 47.0791 18.42 46.9383 18.0651L46.9232 18.0601ZM24.3903 0H33.4488C34.5402 0 35.4355 0.889757 35.4355 1.97446V15.6807C35.4355 16.7654 34.5402 17.6552 33.4488 17.6552H24.3903C23.2989 17.6552 22.4036 16.7654 22.4036 15.6807V1.97446C22.4036 0.889757 23.2989 0 24.3903 0ZM25.7986 14.2661C25.9395 14.2661 26.1558 14.1911 26.1558 13.9062C26.1558 13.6213 25.9948 13.5763 25.7081 13.5763H25.4264V14.596H25.6176V14.2661H25.7986ZM31.8242 10.5621C31.3313 11.052 30.7227 11.4119 30.0386 11.6118C30.3807 11.132 30.6674 10.5721 30.8635 9.97728H32.307C32.1662 10.1872 32.0052 10.3822 31.8242 10.5621ZM28.1475 11.6868C27.7602 11.1969 27.4333 10.6171 27.2069 9.97728H28.7662V11.7518C28.5549 11.7518 28.3487 11.7218 28.1475 11.6868ZM24.8279 7.84286H26.5179C26.5279 8.48768 26.6235 9.09752 26.7845 9.67736H25.3409C25.0341 9.12751 24.848 8.50268 24.8279 7.84286ZM29.078 5.39353V3.61901C29.249 3.61901 29.42 3.63901 29.581 3.664C29.9783 4.15386 30.3153 4.74371 30.5416 5.39353H29.078ZM30.6372 5.69345C30.8182 6.26829 30.9138 6.88312 30.9339 7.52795H29.078V5.69345H30.6372ZM28.7662 5.39353H27.2069C27.4333 4.7537 27.7602 4.17386 28.1475 3.68399C28.3487 3.644 28.5549 3.61901 28.7662 3.61901V5.39353ZM28.7662 5.69345V7.52795H26.8196C26.8398 6.88812 26.9353 6.27329 27.1114 5.69345H28.7662ZM26.5229 7.52795H24.8329C24.8531 6.85813 25.0442 6.2433 25.356 5.69345H26.7995C26.6285 6.26829 26.533 6.88312 26.5229 7.52795ZM26.8196 7.83786H28.7662V9.67236H27.1013C26.9303 9.09752 26.8347 8.48269 26.8196 7.83786ZM29.083 9.97228H30.5466C30.3203 10.6221 29.9984 11.2119 29.586 11.7018C29.425 11.7318 29.254 11.7468 29.083 11.7468V9.97228ZM29.083 9.67236V7.83786H30.9389C30.9188 8.48269 30.8233 9.09252 30.6523 9.67236H29.083ZM31.2307 7.83786H33.0263C32.9961 8.50768 32.81 9.1425 32.4931 9.68736V9.66736H30.9641C31.1251 9.09252 31.2206 8.47769 31.2307 7.83286V7.83786ZM31.2307 7.52795C31.2206 6.88812 31.1251 6.27329 30.954 5.69345H32.5032C32.81 6.2433 32.9961 6.85313 33.0263 7.52795H31.2307ZM32.3121 5.39353H30.8685C30.6623 4.79869 30.3857 4.24884 30.0437 3.75897C30.7277 3.95892 31.3363 4.31382 31.8292 4.79869C32.0103 4.98864 32.1712 5.18359 32.3121 5.39353ZM26.03 4.79869C26.4877 4.34381 27.0561 3.99391 27.6948 3.79896C27.3629 4.26884 27.0862 4.80869 26.9001 5.39353H25.5421C25.6829 5.18359 25.8539 4.98864 26.035 4.79869H26.03ZM25.5371 9.97228H26.885C27.0862 10.5571 27.3629 11.097 27.6948 11.5668C27.0611 11.3669 26.4877 11.017 26.03 10.5571C25.8389 10.3772 25.6779 10.1772 25.5371 9.97228ZM32.4177 13.7512V13.5713H31.6582V13.7512H31.9449V14.591H32.136V13.7512H32.4227H32.4177ZM31.628 14.591L31.3916 14.1661C31.4872 14.1111 31.5727 14.0262 31.5727 13.8712C31.5727 13.6463 31.4117 13.5713 31.2206 13.5713H30.8434V14.591H31.0345V14.2111H31.2256L31.4369 14.591H31.633H31.628ZM31.1703 13.7313C31.3313 13.7313 31.3715 13.7862 31.3715 13.8812C31.3715 13.9762 31.3363 14.0412 31.1653 14.0412H31.0345V13.7313H31.1754H31.1703ZM30.1745 14.611C30.4662 14.611 30.6774 14.4061 30.6774 14.0812C30.6774 13.7562 30.4712 13.5513 30.1745 13.5513C29.8777 13.5513 29.6715 13.7562 29.6715 14.0812C29.6715 14.4061 29.8827 14.611 30.1745 14.611ZM30.1745 13.7313C30.3756 13.7313 30.4662 13.8812 30.4662 14.0812C30.4662 14.2811 30.3706 14.4311 30.1745 14.4311C29.9783 14.4311 29.8727 14.2911 29.8727 14.0812C29.8727 13.8712 29.9783 13.7313 30.1745 13.7313ZM29.2238 14.2611C29.3747 14.2611 29.581 14.1861 29.581 13.9012C29.581 13.6163 29.4301 13.5713 29.1434 13.5713H28.8466V14.591H29.0377V14.2611H29.2188H29.2238ZM29.1937 13.7313C29.3546 13.7313 29.3898 13.7812 29.3898 13.9012C29.3898 14.0312 29.3345 14.0812 29.1987 14.0812H29.0377V13.7313H29.1886H29.1937ZM28.2984 14.611C28.6504 14.611 28.7008 14.4311 28.7008 14.3161C28.7008 14.0912 28.5096 14.0312 28.3487 13.9862C28.233 13.9512 28.1374 13.9212 28.1374 13.8362C28.1374 13.7512 28.2531 13.7313 28.3285 13.7313C28.4241 13.7313 28.5197 13.7612 28.6203 13.8262L28.6404 13.6363C28.5951 13.6013 28.4593 13.5513 28.3185 13.5513C28.0419 13.5513 27.9463 13.7213 27.9463 13.8612C27.9463 14.0412 28.1073 14.0862 28.2531 14.1361C28.3738 14.1811 28.4895 14.2211 28.4895 14.3261C28.4895 14.4011 28.4141 14.4311 28.3084 14.4311C28.1575 14.4311 28.0419 14.3861 27.9865 14.3261L27.9664 14.531C28.0268 14.571 28.1475 14.606 28.2984 14.606V14.611ZM27.4534 14.611C27.7954 14.611 27.8507 14.4311 27.8507 14.3161C27.8507 14.0912 27.6496 14.0312 27.4987 13.9862C27.388 13.9512 27.2924 13.9212 27.2924 13.8362C27.2924 13.7512 27.3981 13.7313 27.4836 13.7313C27.5791 13.7313 27.6747 13.7612 27.7753 13.8262L27.7954 13.6363C27.7501 13.6013 27.6144 13.5513 27.4735 13.5513C27.1969 13.5513 27.1013 13.7213 27.1013 13.8612C27.1013 14.0412 27.2522 14.0862 27.4081 14.1361C27.5288 14.1811 27.6445 14.2211 27.6445 14.3261C27.6445 14.4011 27.5691 14.4311 27.4635 14.4311C27.3025 14.4311 27.1969 14.3861 27.1415 14.3261L27.1114 14.531C27.1768 14.571 27.3025 14.606 27.4534 14.606V14.611ZM27.046 14.591L26.6738 13.5713H26.5028L26.1306 14.591H26.3267L26.4122 14.3461H26.7543L26.8398 14.591H27.0409H27.046ZM26.6939 14.1661H26.4827L26.5883 13.8712L26.6939 14.1661ZM25.7735 13.7313C25.9244 13.7313 25.9696 13.7812 25.9696 13.9012C25.9696 14.0312 25.9143 14.0812 25.7735 14.0812H25.6226V13.7313H25.7735ZM0.217762 20.1445H5.28264C5.514 20.1445 5.81576 20.3344 5.97671 20.5594L10.7951 27.4375C10.946 27.6624 10.8907 27.8424 10.6694 27.8424H5.59448C5.37317 27.8424 5.06133 27.6624 4.90038 27.4375L0.0920208 20.5594C-0.0689285 20.3344 -0.0136022 20.1445 0.217762 20.1445Z" fill="white"/>
</svg>
