<svg width="115" height="38" viewBox="0 0 115 38" fill="none" xmlns="http://www.w3.org/2000/svg">
<path d="M114.88 20.4022L68.3404 23.8005C68.3404 23.8005 68.3791 22.3947 68.001 20.5379C70.7158 19.6847 77.6725 17.4305 77.4883 16.7808C77.3041 16.1506 70.5995 17.6438 67.4629 18.5503C66.3624 15.3798 63.9046 11.8845 58.3974 11.5209C58.4119 7.86077 58.3392 0.0266156 57.4424 0.118725C56.5504 0.205987 57.0158 7.86562 57.2921 11.4967C51.1886 11.5597 49.0459 15.4283 48.3526 18.8897C45.3372 18.0413 39.0447 16.3494 38.686 16.8826C38.3369 17.4111 44.8088 19.709 48.0908 20.8288C47.9502 22.7825 48.1829 24.266 48.1829 24.266L0 20.3973L17.4135 23.3497C17.3748 23.4806 17.3457 23.6115 17.3457 23.7521C17.3457 24.5374 17.9807 25.1725 18.7661 25.1725C19.5514 25.1725 20.1477 24.5714 20.1817 23.8151L26.8135 24.9398C26.799 25.0174 26.7893 25.0949 26.7893 25.1725C26.7893 25.9579 27.4244 26.5929 28.2097 26.5929C28.9127 26.5929 29.4896 26.0839 29.6059 25.4149L33.4357 26.0645V27.548C30.5513 27.548 28.2097 29.8895 28.2097 32.774C28.2097 35.6584 30.5513 38 33.4357 38C36.3202 38 38.6617 35.6584 38.6617 32.774C38.6617 30.7621 37.5273 29.0217 35.8597 28.1491V26.4766L49.1089 28.7211C49.1089 28.7211 51.9206 33.1763 57.9029 33.1763C63.8852 33.1763 66.2267 28.8375 66.2267 28.8375L79.602 26.5154V28.1442C77.9391 29.0169 76.7999 30.7621 76.7999 32.7691C76.7999 35.6536 79.1414 37.9951 82.0259 37.9951C84.9104 37.9951 87.2519 35.6536 87.2519 32.7691C87.2519 29.8846 84.9104 27.5431 82.0259 27.5431V26.0936L86.4278 25.3276C86.5053 26.0354 87.1016 26.5929 87.8336 26.5929C88.619 26.5929 89.2541 25.9579 89.2541 25.1725C89.2541 25.061 89.2395 24.9543 89.2153 24.8477L95.8665 23.6939C95.8665 23.6939 95.8617 23.7327 95.8617 23.7521C95.8617 24.5374 96.4968 25.1725 97.2821 25.1725C98.0675 25.1725 98.7026 24.5374 98.7026 23.7521C98.7026 23.563 98.6638 23.3836 98.5959 23.2188L114.875 20.3925L114.88 20.4022Z" fill="white"/>
</svg>
