<svg width="88" height="44" viewBox="0 0 88 44" fill="none" xmlns="http://www.w3.org/2000/svg">
<path d="M87.6933 16.1571C87.7727 15.8353 79.1231 17.2853 70.0807 18.8815C69.6253 18.1795 68.7352 16.9384 68.1878 16.9969C67.7073 17.0513 67.8368 18.3257 67.9956 19.2492C65.3589 19.7172 62.7432 20.1894 60.3572 20.6239C60.1441 19.8008 59.9937 19.245 59.9561 19.1823C59.2332 17.9162 59.1162 19.1823 59.1162 19.1823L59.4421 20.7911C53.9682 21.7856 49.8941 22.5419 49.8941 22.5419L48.1308 13.2195C48.1308 13.2195 60.8127 9.10367 60.7291 8.26378C60.6455 7.42389 46.7853 10.9506 46.7853 10.9506C46.7853 10.9506 45.9538 9.41288 44.6417 8.96995C44.5665 5.50593 44.3617 -0.00139575 43.8436 0.115604C43.3255 0.228425 43.2419 5.57697 43.2419 8.96995C41.7669 9.45884 40.6554 11.289 40.6554 11.289C40.6554 11.289 27.8857 8.01307 27.5514 8.51867C27.2171 9.02427 39.3934 12.8017 39.3934 12.8017L37.4629 23.0558C37.4629 23.0558 32.5239 21.9987 26.2352 20.7117L26.5444 19.1865C26.5444 19.1865 26.4274 17.9204 25.7045 19.1865C25.6711 19.2492 25.529 19.759 25.3284 20.5236C22.8923 20.0264 20.2849 19.4999 17.7068 18.9901C17.8405 18.1043 17.9073 17.0513 17.4728 17.0011C16.9964 16.9468 16.2484 17.8995 15.7679 18.6099C7.61138 17.0178 0.227885 15.7141 0.00224345 16.1612C-0.202506 16.5749 13.6494 20.9331 24.3924 24.2467C24.1417 25.2579 23.8868 26.2859 23.6654 27.201C23.6654 27.201 20.7529 27.8361 20.3309 30.36C19.9089 32.8796 20.4145 35.3157 23.6904 35.2321C26.9664 35.1486 27.472 31.6219 27.2171 30.0257C26.9622 28.4295 24.9231 27.2051 24.9231 27.2051L25.4538 24.5768C31.7342 26.5115 36.7066 28.0074 36.7066 28.0074C36.7066 28.0074 35.9503 34.2251 36.7066 37.5011C37.4629 40.7771 41.9131 43.8859 43.8478 43.8859C45.7824 43.8859 50.2326 39.9372 50.5669 37.1668C50.9012 34.3964 50.5669 28.1787 50.5669 28.1787C50.5669 28.1787 54.758 26.8918 60.3238 25.1618L60.7375 27.2051C60.7375 27.2051 58.6942 28.4295 58.4434 30.0257C58.1927 31.6219 58.6942 35.1486 61.9701 35.2321C65.2461 35.3157 65.7517 32.8796 65.3297 30.36C64.9077 27.8403 61.9952 27.201 61.9952 27.201C61.8114 26.4614 61.6108 25.6424 61.4102 24.8192C72.3288 21.4179 87.5847 16.5958 87.6933 16.1612V16.1571Z" fill="white"/>
</svg>
