<svg width="36" height="36" viewBox="0 0 36 36" fill="none" xmlns="http://www.w3.org/2000/svg">
<path d="M23.9202 13.5748H0V4.60468C0 3.41517 0.47253 2.27438 1.31364 1.43327C2.15475 0.592159 3.29554 0.119629 4.48505 0.119629L19.4352 0.119629C20.6247 0.119629 21.7655 0.592159 22.6066 1.43327C23.4477 2.27438 23.9202 3.41517 23.9202 4.60468V13.5748ZM35.0043 6.09969L29.4623 0.557668L27.3483 2.67162L29.9003 5.22361V9.08972C29.9003 9.88273 30.2153 10.6433 30.7761 11.204C31.3368 11.7647 32.0973 12.0798 32.8903 12.0798V27.0299C32.8903 27.4264 32.7328 27.8067 32.4525 28.087C32.1721 28.3674 31.7918 28.5249 31.3953 28.5249C30.9988 28.5249 30.6186 28.3674 30.3382 28.087C30.0578 27.8067 29.9003 27.4264 29.9003 27.0299V25.5349C29.9003 24.3454 29.4278 23.2046 28.5867 22.3635C27.7456 21.5224 26.6048 21.0498 25.4153 21.0498H23.9202V16.5648H0V36H23.9202V24.0399H25.4153C25.8118 24.0399 26.192 24.1974 26.4724 24.4778C26.7528 24.7581 26.9103 25.1384 26.9103 25.5349V27.0299C26.9103 28.2194 27.3828 29.3602 28.2239 30.2013C29.065 31.0424 30.2058 31.515 31.3953 31.515C32.5848 31.515 33.7256 31.0424 34.5667 30.2013C35.4078 29.3602 35.8804 28.2194 35.8804 27.0299V8.21364C35.8784 7.42106 35.5635 6.66132 35.0043 6.09969Z" fill="white"/>
</svg>
