<svg width="40" height="40" viewBox="0 0 40 40" fill="none" xmlns="http://www.w3.org/2000/svg">
<path fill-rule="evenodd" clip-rule="evenodd" d="M19.9925 0C31.0434 0 40 8.95052 40 19.995C40 31.0395 31.0484 40 19.9925 40C8.93665 40 0 31.0495 0 19.995C0 8.94053 8.95165 0 19.9925 0ZM39.8201 17.3463C39.935 18.2159 40 19.0955 40 19.99C40 20.8846 39.935 21.7741 39.8201 22.6437H34.8919V17.3463H39.8201ZM0.209913 22.8986C0.0749634 21.944 0 20.9795 0 19.99C0 19.0005 0.0749634 18.036 0.209913 17.0915H8.42684V15.3173H12.2904C13.4699 15.3173 14.5396 15.8571 15.2443 16.7067H20.2424C20.5523 16.7067 20.8372 16.8316 21.0421 17.0365H21.0321C21.237 17.2414 21.372 17.5262 21.372 17.8311V22.1539C21.372 22.4638 21.237 22.7486 21.0421 22.9585H21.0321C20.8322 23.1684 20.5523 23.2884 20.2424 23.2884H15.2443C14.5396 24.1379 13.4699 24.6777 12.2904 24.6777H8.42684V22.9036H0.209913V22.8986ZM24.8257 14.8726H33.2675C33.9873 14.8726 34.582 15.4573 34.582 16.1769V23.8081C34.582 24.5377 33.9873 25.1224 33.2675 25.1224H24.8257C24.106 25.1224 23.5212 24.5377 23.5212 23.8081V16.1769C23.5212 15.4573 24.106 14.8726 24.8257 14.8726ZM27.3397 17.951H30.7685C30.9484 17.951 31.1083 18.026 31.2333 18.1509C31.3582 18.2759 31.4332 18.4358 31.4332 18.6157V21.3743C31.4332 21.5642 31.3582 21.7241 31.2333 21.8441C31.1083 21.959 30.9484 22.034 30.7685 22.034H27.3397C27.1498 22.034 26.9899 21.959 26.8699 21.8441C26.755 21.7191 26.68 21.5592 26.68 21.3743V18.6157C26.68 18.4358 26.755 18.2759 26.8699 18.1509C26.9899 18.026 27.1498 17.951 27.3397 17.951ZM30.7685 18.1959H27.3397C27.2198 18.1959 27.1148 18.2409 27.0399 18.3208C26.9649 18.3958 26.9149 18.5008 26.9149 18.6157V21.3743C26.9149 21.4893 26.9599 21.5992 27.0399 21.6742C27.1148 21.7491 27.2198 21.7991 27.3397 21.7991H30.7685C30.8834 21.7991 30.9834 21.7491 31.0583 21.6742C31.1383 21.5992 31.1833 21.4843 31.1833 21.3743V18.6157C31.1833 18.5008 31.1383 18.4008 31.0583 18.3208C30.9834 18.2459 30.8784 18.1959 30.7685 18.1959ZM15.959 17.996C16.079 18.3658 16.149 18.7606 16.149 19.1654V20.8196C16.149 21.2244 16.084 21.6242 15.959 21.989H20.0874V17.996H15.959ZM9.2915 17.0865V23.0735H10.0412V16.9065H9.2915V17.0865Z" fill="white"/>
</svg>
